<?xml version="1.0" encoding="UTF-8" standalone="no"?>
<svg
   xmlns:dc="http://purl.org/dc/elements/1.1/"
   xmlns:cc="http://creativecommons.org/ns#"
   xmlns:rdf="http://www.w3.org/1999/02/22-rdf-syntax-ns#"
   xmlns:svg="http://www.w3.org/2000/svg"
   xmlns="http://www.w3.org/2000/svg"
   xmlns:xlink="http://www.w3.org/1999/xlink"
   xmlns:sodipodi="http://sodipodi.sourceforge.net/DTD/sodipodi-0.dtd"
   xmlns:inkscape="http://www.inkscape.org/namespaces/inkscape"
   style="height: 45px; width: 45px;"
   viewBox="0 0 512 512"
   version="1.1"
   id="svg8"
   sodipodi:docname="armor-rogue-uncommon.svg"
   inkscape:version="0.92.4 (5da689c313, 2019-01-14)">
  <metadata
     id="metadata14">
    <rdf:RDF>
      <cc:Work
         rdf:about="">
        <dc:format>image/svg+xml</dc:format>
        <dc:type
           rdf:resource="http://purl.org/dc/dcmitype/StillImage" />
      </cc:Work>
    </rdf:RDF>
  </metadata>
  <defs
     id="defs12">
    <linearGradient
       inkscape:collect="always"
       id="linearGradient4518">
      <stop
         style="stop-color:#30201a;stop-opacity:1"
         offset="0"
         id="stop4514" />
      <stop
         id="stop4522"
         offset="0.5"
         style="stop-color:#473513;stop-opacity:1" />
      <stop
         style="stop-color:#30201a;stop-opacity:1"
         offset="1"
         id="stop4516" />
    </linearGradient>
    <linearGradient
       inkscape:collect="always"
       id="linearGradient4508">
      <stop
         style="stop-color:#452d25;stop-opacity:1"
         offset="0"
         id="stop4504" />
      <stop
         id="stop4512"
         offset="0.5"
         style="stop-color:#6d4734;stop-opacity:1" />
      <stop
         style="stop-color:#452d25;stop-opacity:1"
         offset="1"
         id="stop4506" />
    </linearGradient>
    <linearGradient
       inkscape:collect="always"
       xlink:href="#linearGradient4508"
       id="linearGradient4510"
       x1="38.188"
       y1="241.21899"
       x2="486.375"
       y2="243.71899"
       gradientUnits="userSpaceOnUse" />
    <linearGradient
       inkscape:collect="always"
       xlink:href="#linearGradient4518"
       id="linearGradient4520"
       x1="106.75"
       y1="456.75"
       x2="421.31299"
       y2="457.46899"
       gradientUnits="userSpaceOnUse" />
    <linearGradient
       inkscape:collect="always"
       xlink:href="#linearGradient4508"
       id="linearGradient21201"
       gradientUnits="userSpaceOnUse"
       x1="38.188"
       y1="241.21899"
       x2="486.375"
       y2="243.71899"
       gradientTransform="translate(0,1.0000001e-6)" />
    <linearGradient
       inkscape:collect="always"
       xlink:href="#linearGradient4518"
       id="linearGradient21203"
       gradientUnits="userSpaceOnUse"
       x1="106.75"
       y1="456.75"
       x2="421.31299"
       y2="457.46899"
       gradientTransform="translate(0,1.0000001e-6)" />
  </defs>
  <sodipodi:namedview
     pagecolor="#ffffff"
     bordercolor="#666666"
     borderopacity="1"
     objecttolerance="10"
     gridtolerance="10"
     guidetolerance="10"
     inkscape:pageopacity="0"
     inkscape:pageshadow="2"
     inkscape:window-width="2560"
     inkscape:window-height="1377"
     id="namedview10"
     showgrid="false"
     inkscape:zoom="1.3037281"
     inkscape:cx="43.152875"
     inkscape:cy="263.55235"
     inkscape:window-x="1912"
     inkscape:window-y="-8"
     inkscape:window-maximized="1"
     inkscape:current-layer="svg8" />
  <g
     id="g21227"
     transform="matrix(0.95874784,0,0,0.95874784,10.821503,10.573902)">
    <path
       style="fill:url(#linearGradient21201);fill-opacity:1;stroke:#000000;stroke-width:32;stroke-miterlimit:4;stroke-dasharray:none;stroke-opacity:1"
       d="m 260.375,19.656001 c -38.78,0 -73.995,3.935 -100.5,12.407 -13.253,4.235 -24.39,9.556 -32.813,16.78 -8.42,7.226 -14.124,17.087 -14.124,28.094 0,4.472 0.917,8.784 2.53,12.876 C 118.901,142.029 80.323,208.073 38.188,241.219 c 9.894,50.565 32.645,102.465 66.53,149.81 39.964,32.405 91.668,49.857 144.282,52.314 v -33.75 c -16.175,-0.15 -31.88,-0.668 -44.5,-1.594 l 1.375,-18.625 c 11.96,0.878 27.288,1.356 43.125,1.5 V 350.97 c -15.294,0.57 -29.984,2.542 -41.063,5.936 l -5.5,-17.875 c 13.523,-4.142 29.83,-6.512 46.563,-7.155 v -33.5 c -4.892,0.263 -9.767,0.762 -14.594,1.438 -28.855,1.45 -53.472,5.125 -75.906,10.593 l -0.22,-0.28 c 28.03,-20.89 64.05,-31.314 100.064,-31.313 36.015,0 72.034,10.425 100.062,31.312 l -0.125,0.188 c -22.516,-5.463 -47.247,-9.113 -76.25,-10.532 -4.746,-0.656 -9.533,-1.148 -14.342,-1.405 v 33.5 c 16.734,0.643 33.04,3.013 46.562,7.156 l -5.47,17.876 c -11.084,-3.396 -25.787,-5.366 -41.092,-5.937 v 39.905 c 15.843,-0.144 31.16,-0.622 43.125,-1.5 L 312.188,408 c -12.627,0.927 -28.317,1.445 -44.5,1.594 v 34 c 54.5,-1.12 108.566,-18.29 150.187,-51.47 35.375,-47.383 58.567,-98.53 68.5,-148.405 -43.943,-32.66 -85.096,-102.138 -80.344,-155.999999 1.132,-3.463 1.75,-7.065 1.75,-10.782 0,-11.008 -5.67,-20.87 -14.092,-28.094 -8.422,-7.225 -19.59,-12.546 -32.844,-16.782 -26.506,-8.47 -61.687,-12.406 -100.47,-12.406 z"
       id="path21187"
       inkscape:connector-curvature="0" />
    <path
       sodipodi:nodetypes="cccccccc"
       style="fill:url(#linearGradient21203);fill-opacity:1;stroke:#000000;stroke-width:32;stroke-miterlimit:4;stroke-dasharray:none;stroke-opacity:1"
       d="m 415.375,417.187 c -88.88,60.702 -217.204,60.827 -306.25,0.375 l -2.375,39.188 c 6.073,8.603 23.877,18.598 49.406,25.094 27.31,6.95 62.423,10.798 98.313,11.125 35.888,0.326 72.623,-2.834 103.374,-9.47 28.162,-6.078 51.078,-15.495 63.47,-26.03 z"
       id="path21197"
       inkscape:connector-curvature="0" />
    <path
       id="path4502"
       d="m 260.375,19.656 c -38.78,0 -73.995,3.935 -100.5,12.407 -13.253,4.235 -24.39,9.556 -32.813,16.78 -8.42,7.226 -14.124,17.087 -14.124,28.094 0,4.472 0.917,8.784 2.53,12.876 3.433,52.216 -35.145,118.26 -77.28,151.406 9.894,50.565 32.645,102.465 66.53,149.81 39.964,32.405 91.668,49.857 144.282,52.314 v -33.75 c -16.175,-0.15 -31.88,-0.668 -44.5,-1.594 l 1.375,-18.625 c 11.96,0.878 27.288,1.356 43.125,1.5 V 350.97 c -15.294,0.57 -29.984,2.542 -41.063,5.936 l -5.5,-17.875 c 13.523,-4.142 29.83,-6.512 46.563,-7.155 v -33.5 c -4.892,0.263 -9.767,0.762 -14.594,1.438 -28.855,1.45 -53.472,5.125 -75.906,10.593 l -0.22,-0.28 c 28.03,-20.89 64.05,-31.314 100.064,-31.313 36.015,0 72.034,10.425 100.062,31.312 l -0.125,0.188 c -22.516,-5.463 -47.247,-9.113 -76.25,-10.532 -4.746,-0.656 -9.533,-1.148 -14.342,-1.405 v 33.5 c 16.734,0.643 33.04,3.013 46.562,7.156 l -5.47,17.876 c -11.084,-3.396 -25.787,-5.366 -41.092,-5.937 v 39.905 c 15.843,-0.144 31.16,-0.622 43.125,-1.5 L 312.188,408 c -12.627,0.927 -28.317,1.445 -44.5,1.594 v 34 c 54.5,-1.12 108.566,-18.29 150.187,-51.47 35.375,-47.383 58.567,-98.53 68.5,-148.405 -43.943,-32.66 -85.096,-102.138 -80.344,-156 1.132,-3.463 1.75,-7.065 1.75,-10.782 0,-11.008 -5.67,-20.87 -14.092,-28.094 -8.422,-7.225 -19.59,-12.546 -32.844,-16.782 -26.506,-8.47 -61.687,-12.406 -100.47,-12.406 z"
       style="fill:url(#linearGradient4510);fill-opacity:1"
       inkscape:connector-curvature="0" />
    <path
       id="path4500"
       d="m 260.375,38.344 c 37.48,0 71.312,4.03 94.78,11.53 11.736,3.752 20.793,8.394 26.345,13.157 5.552,4.765 7.594,8.92 7.594,13.907 0,2.495 -0.582,5.05 -1.875,7.688 -36.805,-16.793 -82.838,-25.218 -128.876,-25.22 -44.633,0 -89.28,7.903 -125.5,23.69 -0.83,-2.1 -1.22,-4.145 -1.22,-6.157 0,-4.99 2.042,-9.143 7.595,-13.907 5.55,-4.762 14.608,-9.404 26.343,-13.155 23.47,-7.5 57.334,-11.53 94.812,-11.53 z"
       style="fill:#000000;fill-opacity:1"
       inkscape:connector-curvature="0" />
    <path
       id="path4498"
       d="m 258.345,78.812 c 41.273,0 82.56,6.716 115.186,20.188 -5.193,3.626 -11.645,7.13 -19.155,10.28 -23.424,9.827 -56.93,16.22 -94,16.22 -37.07,0 -70.607,-6.393 -94.03,-16.22 -8.22,-3.446 -15.152,-7.322 -20.564,-11.31 32.202,-12.77 72.385,-19.16 112.563,-19.158 z"
       style="fill:#000000;fill-opacity:1"
       inkscape:connector-curvature="0" />
    <path
       id="path4496"
       d="m 222.437,142.062 c 6.253,0.724 12.667,1.266 19.22,1.625 0.814,5.004 1.705,10.514 2.624,16.688 2.72,18.253 5.47,39.27 5.47,52.875 0,15.196 -5.87,28.974 -16.03,39.594 -10.163,10.62 -24.316,18.284 -41.25,23.28 -18.763,5.537 -41.102,7.852 -66.032,6.72 -23.82,-3.486 -42.194,-13.06 -59.97,-27.656 48.897,11.737 91.53,11.613 120.72,3 14.638,-4.32 25.797,-10.72 33.03,-18.282 7.235,-7.56 10.845,-16.048 10.845,-26.656 0,-10.86 -2.608,-32.175 -5.282,-50.125 -1.202,-8.075 -2.384,-15.295 -3.343,-21.063 z"
       style="fill:#000000;fill-opacity:1"
       inkscape:connector-curvature="0" />
    <path
       id="path4494"
       d="m 294.125,142.532 c -0.946,5.705 -2.108,12.72 -3.28,20.593 -2.675,17.95 -5.283,39.265 -5.283,50.125 0,10.608 3.61,19.096 10.844,26.656 7.234,7.56 18.393,13.962 33.03,18.28 29.11,8.59 71.588,8.735 120.314,-2.905 -17.762,14.562 -36.125,24.13 -59.938,27.595 -24.778,1.092 -46.988,-1.242 -65.656,-6.75 -16.935,-4.997 -31.088,-12.66 -41.25,-23.28 -10.162,-10.62 -16.03,-24.4 -16.03,-39.595 0,-13.606 2.78,-34.622 5.5,-52.875 0.905,-6.08 1.788,-11.517 2.593,-16.47 6.518,-0.276 12.915,-0.738 19.155,-1.374 z"
       style="fill:#000000;fill-opacity:1"
       inkscape:connector-curvature="0" />
    <path
       id="path4"
       d="m 415.375,417.187 c -88.88,60.702 -217.204,60.827 -306.25,0.375 l -2.375,39.188 c 6.073,8.603 23.877,18.598 49.406,25.094 27.31,6.95 62.423,10.798 98.313,11.125 35.888,0.326 72.623,-2.834 103.374,-9.47 28.162,-6.078 51.078,-15.495 63.47,-26.03 l -5.94,-40.283 z"
       style="fill:url(#linearGradient4520);fill-opacity:1"
       inkscape:connector-curvature="0" />
  </g>
</svg>
