<?xml version="1.0" encoding="UTF-8" standalone="no"?>
<svg
   xmlns:dc="http://purl.org/dc/elements/1.1/"
   xmlns:cc="http://creativecommons.org/ns#"
   xmlns:rdf="http://www.w3.org/1999/02/22-rdf-syntax-ns#"
   xmlns:svg="http://www.w3.org/2000/svg"
   xmlns="http://www.w3.org/2000/svg"
   xmlns:sodipodi="http://sodipodi.sourceforge.net/DTD/sodipodi-0.dtd"
   xmlns:inkscape="http://www.inkscape.org/namespaces/inkscape"
   style="height: 45px; width: 45px;"
   viewBox="0 0 512 512"
   version="1.1"
   id="svg8"
   sodipodi:docname="armor-ranger-uncommon.svg"
   inkscape:version="0.92.1 r15371">
  <metadata
     id="metadata14">
    <rdf:RDF>
      <cc:Work
         rdf:about="">
        <dc:format>image/svg+xml</dc:format>
        <dc:type
           rdf:resource="http://purl.org/dc/dcmitype/StillImage" />
      </cc:Work>
    </rdf:RDF>
  </metadata>
  <defs
     id="defs12" />
  <sodipodi:namedview
     pagecolor="#ffffff"
     bordercolor="#666666"
     borderopacity="1"
     objecttolerance="10"
     gridtolerance="10"
     guidetolerance="10"
     inkscape:pageopacity="0"
     inkscape:pageshadow="2"
     inkscape:window-width="1920"
     inkscape:window-height="1017"
     id="namedview10"
     showgrid="false"
     inkscape:zoom="1"
     inkscape:cx="149.64215"
     inkscape:cy="228.14251"
     inkscape:window-x="-8"
     inkscape:window-y="-8"
     inkscape:window-maximized="1"
     inkscape:current-layer="svg8" />
  <rect
     fill="#000"
     fill-opacity="1"
     height="512"
     width="512"
     rx="64"
     ry="64"
     id="rect2" />
  <path
     style="fill:#fffcdb;fill-opacity:1"
     d="m 172.4,27.63 c -14.8,7.64 -27.9,15.41 -40,23.26 l -35.02,5.23 c 6.82,1.77 14.22,3.27 17.02,7.08 -8.4,6 -16.36,12.08 -24.08,18.08 -15.9,2.5 -27.27,9 -38.31,15.7 l 15.28,2.7 C 50.7,110.1 42.85,119.9 32.89,135.6 l 27.97,-1.4 c 4.13,2.5 8.56,5 7.89,8.2 -3.07,6.7 -3.43,11.4 -3.99,17.2 L 80.85,155 c 10.11,9 12.6,23.1 17.28,35.4 11.37,-6 22.97,-11.9 29.97,-19.9 L 118,189.6 c 22.3,-10.8 30.5,-21.1 48,-36 -1.4,16.5 -2.2,32.8 -2.6,49.1 -13.8,22.7 -17.9,44.9 -16.6,68.1 5.5,-6.3 11.1,-18.3 16.6,-12.9 0,4.3 0.2,8.6 0.3,12.8 -7.2,4 -10.2,16.4 -14.8,25.5 5.1,-2.9 5.1,-6.7 15.3,-8.7 0.5,12.1 1.1,24.3 1.8,36.4 22.2,4.6 44.4,6.9 67,7.5 11.7,3.6 19,8.9 25.1,14.7 l 1.2,-14.7 c 16.1,-2.3 29.3,3.8 45.2,8.6 l 19.3,-14.3 c 4.2,-0.6 8.5,-1.2 12.8,-1.8 l -1.9,13.2 8.2,-14.2 c 3.1,-0.5 6.2,-1 9.4,-1.5 0.3,-3.8 0.7,-7.7 1.1,-11.5 l 17.7,12.8 -11.3,-34.1 11.3,10.5 -13.2,-33.3 c 0.5,-4.9 0.9,-9.8 1.3,-14.6 l 13.4,14.1 c -5.3,-33.1 -8.5,-76.3 -14.9,-106 l 16,4.5 27.7,24.3 -4,-17.5 c 11.8,2.3 20.7,6 31.8,10.8 12,-20.3 7.5,-34.4 36.7,-40.9 l -6.2,-29.3 c 5.3,-3.8 13.1,-5.2 19.4,-7.4 -16.3,-4.62 -30.9,-15.02 -50.7,-31.12 l 10.2,-5.69 c -8.2,-2.23 -19.1,0.58 -26.3,-4.08 L 435.6,49.37 C 434.2,48.78 400.4,48 392.1,51.45 376.8,43.18 360,35.33 340.3,28.38 331,35.18 328.8,38.89 319.1,43.59 l -5.6,-10.61 c -3.1,8.77 -8.9,16.32 -16.7,19 1.6,-6.34 5.6,-19 5.6,-19 -7.4,8.24 -12.9,16.69 -26.2,24.26 -17.8,2.91 -36.5,1.65 -56.1,-4.8 -1.7,7.1 0.4,13.42 2.1,19.84 -12.8,-6.1 -13.8,-16.7 -18,-26.1 -10.3,-4.72 -20.9,-10.86 -31.8,-18.55 z"
     id="path4494" />
  <path
     style="fill:#fffcdb;fill-opacity:1"
     d="m 364.1,357.5 c -42.6,10.7 -86.9,18.6 -129.5,17.1 l 18.9,13.2 -47.6,-15.7 c -17.7,-2.6 -35,-7.1 -51.6,-14.1 -7.3,10.7 -27.3,17 -39.7,23.2 l 26.5,-1.3 c -6.5,15.7 -19.4,27.7 -30.6,41 0,0 10.6,-2.5 17.1,-4.3 27.3,15 56.1,29 67.9,52.7 42.8,22.9 81.8,16.6 119.7,1.8 7.1,-11.9 15.7,-22.7 26.6,-31.9 22.1,-5.9 29.6,-2 40.4,-0.3 -5.7,-5 -6.3,-11.8 -17.4,-15 10.8,-5.6 23,-10 36.9,-13.2 -3.6,-6.5 -7.4,-13 -11.6,-19.4 l 22.3,6.7 c -19.5,-11.9 -34.5,-24.9 -48.3,-40.5 z"
     id="path4" />
  <path
     style="fill:#f16e03;fill-opacity:1"
     d="M 172.40039 27.630859 C 157.60039 35.270859 144.50039 43.040625 132.40039 50.890625 L 106.84766 54.705078 C 105.55822 55.659679 104.27516 56.614782 103.00391 57.570312 C 107.90354 58.888522 112.36763 60.433208 114.40039 63.199219 C 106.00039 69.199219 98.040312 75.279297 90.320312 81.279297 C 74.82593 83.71552 63.63681 89.953978 52.859375 96.470703 C 52.656235 96.654992 52.450256 96.838166 52.25 97.023438 L 67.289062 99.679688 C 56.469508 106.47533 49.372971 113.01694 42.978516 121.09375 L 60.859375 120.19922 C 64.989375 122.69922 69.42 125.20039 68.75 128.40039 C 67.202129 131.77848 66.345764 134.64767 65.802734 137.40625 C 67.790562 138.92737 69.138454 140.54509 68.75 142.40039 C 68.378994 143.21008 68.052845 143.9874 67.755859 144.74414 L 80.849609 141 C 90.959609 150 93.450859 164.10039 98.130859 176.40039 C 109.50086 170.40039 121.09961 164.5 128.09961 156.5 L 118 175.59961 C 140.3 164.79961 148.5 154.49961 166 139.59961 C 165.57576 144.5996 165.22196 149.57805 164.90234 154.54688 C 165.27172 154.22943 165.62219 153.92129 166 153.59961 C 164.6 170.09961 163.80039 186.39922 163.40039 202.69922 C 152.55736 220.53522 147.71955 238.06546 146.76758 256.01172 C 146.78095 256.27511 146.78601 256.53714 146.80078 256.80078 C 152.30078 250.50078 157.90039 238.50039 163.40039 243.90039 C 163.40039 248.20039 163.59922 252.49922 163.69922 256.69922 C 163.36024 256.88754 163.03386 257.09988 162.71289 257.32422 C 162.94224 257.4904 163.17137 257.67553 163.40039 257.90039 C 163.40039 262.20039 163.59922 266.49922 163.69922 270.69922 C 161.95658 271.66735 160.46366 273.13548 159.13086 274.92188 C 160.48979 274.38929 162.12594 273.90653 164.19922 273.5 C 164.69922 285.6 165.3 297.80039 166 309.90039 C 188.2 314.50039 210.4 316.80039 233 317.40039 C 244.7 321.00039 251.99961 326.29961 258.09961 332.09961 L 259.30078 317.40039 C 275.40078 315.10039 288.6 321.2 304.5 326 L 323.80078 311.69922 C 328.00078 311.09922 332.29961 310.50039 336.59961 309.90039 L 334.69922 323.09961 L 342.90039 308.90039 C 346.00039 308.40039 349.10078 307.90039 352.30078 307.40039 C 352.60078 303.60039 353.00039 299.70039 353.40039 295.90039 L 364.99805 304.28711 L 359.80078 288.59961 L 366.50391 294.82812 L 359.80078 274.59961 L 362.31445 276.93555 L 357.90039 265.80078 C 358.29028 261.97987 358.61399 258.17193 358.92969 254.39844 L 357.90039 251.80078 C 358.40039 246.90078 358.79922 241.99922 359.19922 237.19922 L 370.22266 248.79883 C 366.21346 218.75934 363.08239 184.28208 357.69922 159.30078 L 360.46875 160.08008 C 359.6081 154.89548 358.69479 149.92086 357.69922 145.30078 L 373.69922 149.80078 L 397.41406 170.60156 C 398.56391 170.82584 399.66611 171.07558 400.76562 171.32617 L 397.40039 156.59961 C 409.20039 158.89961 418.09922 162.60039 429.19922 167.40039 C 440.79703 147.78075 436.98941 133.95268 463.08203 127.17969 L 459.69922 111.19922 C 460.51751 110.61252 461.40147 110.08952 462.32422 109.60547 L 459.69922 97.199219 C 460.18298 96.852374 460.69443 96.531945 461.2168 96.222656 C 451.18811 90.629136 440.81743 82.776368 428.40039 72.679688 L 438.59961 66.990234 C 430.39961 64.760234 419.50078 67.570156 412.30078 62.910156 L 431.01953 52.03125 C 424.50371 51.771376 417.56851 52.217236 412.44727 48.994141 C 404.01838 49.262503 395.68248 49.959952 392.09961 51.449219 C 376.79961 43.179219 360.00078 35.330859 340.30078 28.380859 C 331.00078 35.180859 328.79961 38.889844 319.09961 43.589844 L 313.5 32.980469 C 310.4 41.750469 304.60078 49.300469 296.80078 51.980469 C 298.11135 46.787339 300.58968 38.799617 301.60352 35.556641 C 300.69544 36.166513 299.75069 36.707788 298.76953 37.167969 C 292.92257 44.049631 287.25331 50.948546 276.19922 57.240234 C 258.5866 60.1196 240.09171 58.9069 220.7168 52.632812 C 221.17827 54.520867 221.70059 56.396242 222.19922 58.279297 C 221.23181 57.818264 220.34103 57.328341 219.50195 56.818359 C 219.2739 62.198539 220.85637 67.208055 222.19922 72.279297 C 209.39922 66.179297 208.39922 55.579687 204.19922 46.179688 C 193.89922 41.459688 183.30039 35.320859 172.40039 27.630859 z "
     id="path4496" />
  <path
     style="fill:#f16e03;fill-opacity:1"
     d="M 364.09961 357.5 C 321.49961 368.2 277.19961 376.09961 234.59961 374.59961 L 253.5 387.80078 L 205.90039 372.09961 C 188.20039 369.49961 170.90078 365 154.30078 358 C 151.13932 362.63392 145.59289 366.44073 139.31641 369.77344 C 137.48691 373.45105 135.32563 376.93953 132.93555 380.30078 L 141.09961 379.90039 C 137.57336 388.41764 132.15832 395.84278 126.1582 402.98047 C 126.6228 402.85541 127.167 402.71941 127.59961 402.59961 C 154.89961 417.59961 183.7 431.60078 195.5 455.30078 C 238.3 478.20078 277.29922 471.89961 315.19922 457.09961 C 322.29922 445.19961 330.90078 434.39922 341.80078 425.19922 C 353.90214 421.96854 361.61538 421.68345 367.90039 422.35938 C 370.7755 420.96316 373.74517 419.64632 376.81836 418.41211 C 374.34441 415.05705 371.47826 411.82543 364.80078 409.90039 C 373.72302 405.27404 383.61871 401.48054 394.62109 398.49219 C 393.15724 396.08558 391.66413 393.68481 390.09961 391.30078 L 400.4043 394.39648 C 399.04084 391.96896 397.65504 389.54402 396.21875 387.125 C 384.14964 378.19024 373.82294 368.49159 364.09961 357.5 z "
     id="path4498" />
</svg>
