<?xml version="1.0" encoding="UTF-8" standalone="no"?>
<svg
   xmlns:dc="http://purl.org/dc/elements/1.1/"
   xmlns:cc="http://creativecommons.org/ns#"
   xmlns:rdf="http://www.w3.org/1999/02/22-rdf-syntax-ns#"
   xmlns:svg="http://www.w3.org/2000/svg"
   xmlns="http://www.w3.org/2000/svg"
   xmlns:xlink="http://www.w3.org/1999/xlink"
   xmlns:sodipodi="http://sodipodi.sourceforge.net/DTD/sodipodi-0.dtd"
   xmlns:inkscape="http://www.inkscape.org/namespaces/inkscape"
   style="height: 45px; width: 45px;"
   viewBox="0 0 512 512"
   version="1.1"
   id="svg8"
   sodipodi:docname="armor-cleric-rare.svg"
   inkscape:version="0.92.1 r15371">
  <metadata
     id="metadata14">
    <rdf:RDF>
      <cc:Work
         rdf:about="">
        <dc:format>image/svg+xml</dc:format>
        <dc:type
           rdf:resource="http://purl.org/dc/dcmitype/StillImage" />
      </cc:Work>
    </rdf:RDF>
  </metadata>
  <defs
     id="defs12">
    <linearGradient
       inkscape:collect="always"
       id="linearGradient4531">
      <stop
         id="stop4529"
         offset="0"
         style="stop-color:#69849c;stop-opacity:1" />
      <stop
         style="stop-color:#69849c;stop-opacity:1;"
         offset="0.125"
         id="stop4539" />
      <stop
         id="stop4537"
         offset="0.25"
         style="stop-color:#a2bcc5;stop-opacity:1" />
      <stop
         style="stop-color:#69849c;stop-opacity:1;"
         offset="0.5"
         id="stop4535" />
      <stop
         id="stop4527"
         offset="1"
         style="stop-color:#69849c;stop-opacity:1" />
    </linearGradient>
    <linearGradient
       inkscape:collect="always"
       id="linearGradient4512">
      <stop
         style="stop-color:#ffffff;stop-opacity:1;"
         offset="0"
         id="stop4508" />
      <stop
         id="stop4516"
         offset="0.5"
         style="stop-color:#ffffff;stop-opacity:1" />
      <stop
         style="stop-color:#a2bcc5;stop-opacity:1"
         offset="0.75"
         id="stop4518" />
      <stop
         id="stop4520"
         offset="0.875"
         style="stop-color:#ffffff;stop-opacity:1" />
      <stop
         style="stop-color:#ffffff;stop-opacity:1"
         offset="1"
         id="stop4510" />
    </linearGradient>
    <linearGradient
       inkscape:collect="always"
       xlink:href="#linearGradient4512"
       id="linearGradient4514"
       x1="99.344002"
       y1="69.438004"
       x2="398.8699"
       y2="298.44037"
       gradientUnits="userSpaceOnUse" />
    <linearGradient
       inkscape:collect="always"
       xlink:href="#linearGradient4531"
       id="linearGradient4546"
       gradientUnits="userSpaceOnUse"
       x1="81.220001"
       y1="73.905998"
       x2="486.54037"
       y2="352.07895" />
    <linearGradient
       inkscape:collect="always"
       xlink:href="#linearGradient4531"
       id="linearGradient4548"
       gradientUnits="userSpaceOnUse"
       x1="317.39368"
       y1="254.92534"
       x2="486.54037"
       y2="352.07895" />
    <linearGradient
       inkscape:collect="always"
       xlink:href="#linearGradient4531"
       id="linearGradient4550"
       gradientUnits="userSpaceOnUse"
       x1="109.282"
       y1="421.03299"
       x2="407.31201"
       y2="421.37701" />
  </defs>
  <sodipodi:namedview
     pagecolor="#ffffff"
     bordercolor="#666666"
     borderopacity="1"
     objecttolerance="10"
     gridtolerance="10"
     guidetolerance="10"
     inkscape:pageopacity="0"
     inkscape:pageshadow="2"
     inkscape:window-width="1920"
     inkscape:window-height="1017"
     id="namedview10"
     showgrid="false"
     inkscape:zoom="0.125"
     inkscape:cx="-149.52224"
     inkscape:cy="732.23935"
     inkscape:window-x="-8"
     inkscape:window-y="-8"
     inkscape:window-maximized="1"
     inkscape:current-layer="svg8" />
  <rect
     fill="#000"
     fill-opacity="1"
     height="512"
     width="512"
     rx="64"
     ry="64"
     id="rect2" />
  <g
     id="g4506"
     style="fill-opacity:1;fill:url(#linearGradient4514)">
    <path
       id="path4502"
       d="m 257.03,17.625 c -30.488,0 -58.12,4.958 -78.967,13.5 -10.424,4.27 -19.193,9.4 -25.813,15.813 -3.92,3.797 -7.126,8.218 -9.094,13.093 -14.737,2.635 -29.356,5.773 -43.812,9.407 27.48,115.995 84.27,189.266 160.187,232.844 75.63,-43.412 132.25,-116.295 159.845,-231.53 -15.998,-4.16 -32.162,-7.707 -48.438,-10.625 -1.964,-4.912 -5.18,-9.366 -9.125,-13.188 -6.62,-6.413 -15.39,-11.54 -25.812,-15.812 -20.846,-8.542 -48.48,-13.5 -78.97,-13.5 z"
       style="fill:url(#linearGradient4514);fill-opacity:1" />
    <path
       id="path4494"
       d="m 199.312,282.533 c -38.34,27.264 -70.936,61.702 -96.468,104.72 2.514,3.787 5.09,7.554 7.75,11.28 80.937,65.808 213.544,66.076 294.906,0.814 2.41,-3.242 4.773,-6.502 7.063,-9.78 -25.13,-43.067 -57.255,-77.624 -95.094,-105.064 -16.623,14.114 -34.475,26.346 -53.408,36.813 l -4.53,2.5 -4.532,-2.5 c -19.806,-10.95 -38.416,-23.835 -55.688,-38.782 z"
       style="fill:url(#linearGradient4514);fill-opacity:1" />
  </g>
  <path
     style="fill:#000000;fill-opacity:1"
     d="m 257.03,36.313 c 28.422,0 54.116,4.816 71.876,12.093 8.88,3.64 15.73,7.923 19.906,11.97 4.176,4.045 5.532,7.357 5.532,10.312 0,2.954 -2.117,10.08 -6.97,17.937 -4.85,7.857 -12.145,16.657 -21.155,24.72 -18.02,16.122 -42.748,29.124 -69.19,29.124 -26.44,0 -51.166,-13.003 -69.186,-29.126 -9.01,-8.062 -16.304,-16.862 -21.156,-24.72 -4.853,-7.856 -6.97,-14.982 -6.97,-17.936 0,-2.955 1.356,-6.267 5.532,-10.313 4.176,-4.046 11.026,-8.33 19.906,-11.97 17.76,-7.276 43.455,-12.093 71.875,-12.093 z"
     id="path4500" />
  <path
     inkscape:connector-curvature="0"
     style="fill:url(#linearGradient4546);fill-opacity:1"
     d="m 81.22,73.906 c -3.418,1.244 -6.14,3.31 -8.47,5.72 -4.96,5.123 -8.637,11.95 -12.063,20.468 -6.354,15.8 -11.376,37.542 -14.312,62.812 -3.59,19.297 -4.55,39.622 -3,60.563 3.545,47.928 20.35,98.78 48.438,146.218 25.367,-40.346 56.914,-73.48 93.437,-100.063 -37.737,-36.798 -68.137,-84.54 -89.188,-144.72 2.14,18.382 2.275,42.013 -0.218,66.72 -2.674,26.5 -7.94,49.237 -13.75,63.688 -2.906,7.225 -6.083,12.327 -8.125,14.437 -0.422,0.435 -0.34,0.31 -0.595,0.5 -0.666,-0.786 -1.99,-2.45 -3.5,-6.28 -2.076,-5.275 -3.98,-13.097 -5.28,-22.533 -2.603,-18.87 -2.957,-44.186 -0.282,-70.687 2.674,-26.5 7.907,-49.206 13.718,-63.656 2.842,-7.065 5.955,-12.12 8,-14.313 -1.698,-6.168 -3.29,-12.47 -4.81,-18.874 z"
     id="path4498" />
  <path
     inkscape:connector-curvature="0"
     style="fill:url(#linearGradient4548);fill-opacity:1"
     d="m 437.75,74.186 c -1.563,6.57 -3.217,13.023 -4.97,19.345 2.026,2.486 4.82,7.21 7.376,13.564 5.81,14.45 11.045,37.155 13.72,63.656 2.673,26.5 2.32,51.817 -0.282,70.688 -1.3,9.435 -3.205,17.257 -5.28,22.53 -1.51,3.833 -2.835,5.496 -3.502,6.282 -0.255,-0.19 -0.173,-0.065 -0.593,-0.5 -2.043,-2.11 -5.22,-7.212 -8.126,-14.438 -5.81,-14.45 -11.076,-37.186 -13.75,-63.687 -2.34,-23.19 -2.368,-45.437 -0.594,-63.28 -21.398,59.69 -52.126,106.966 -90.125,143.343 36.126,26.816 67.28,60.153 92.28,100.656 30.156,-48.402 47.387,-99.807 50.314,-148.28 0.593,-9.844 0.58,-19.547 0,-29.095 -0.285,-8.466 -0.855,-17.212 -1.75,-26.095 -2.81,-27.826 -8.12,-51.745 -14.97,-68.78 -3.426,-8.52 -7.104,-15.346 -12.063,-20.47 -2.154,-2.226 -4.625,-4.172 -7.687,-5.438 z"
     id="path4496" />
  <path
     inkscape:connector-curvature="0"
     style="fill:url(#linearGradient4550);fill-opacity:1"
     d="m 109.282,421.033 c -7.83,11.086 -8.854,19.277 -6.688,26.158 2.532,8.044 11.047,16.432 25.53,23.593 28.969,14.322 78.986,22.336 128.876,22.311 49.89,-0.025 100.116,-8.06 129.563,-22.438 14.723,-7.188 23.563,-15.67 26.343,-23.78 2.342,-6.834 1.588,-14.775 -5.594,-25.5 -85.68,61.277 -212.512,61.175 -298.03,-0.345 z"
     id="path4" />
</svg>
