<?xml version="1.0" encoding="UTF-8" standalone="no"?>
<svg
   xmlns:dc="http://purl.org/dc/elements/1.1/"
   xmlns:cc="http://creativecommons.org/ns#"
   xmlns:rdf="http://www.w3.org/1999/02/22-rdf-syntax-ns#"
   xmlns:svg="http://www.w3.org/2000/svg"
   xmlns="http://www.w3.org/2000/svg"
   xmlns:sodipodi="http://sodipodi.sourceforge.net/DTD/sodipodi-0.dtd"
   xmlns:inkscape="http://www.inkscape.org/namespaces/inkscape"
   style="height: 45px; width: 45px;"
   viewBox="0 0 512 512"
   version="1.1"
   id="svg8"
   sodipodi:docname="armor-ranger-rare.svg"
   inkscape:version="0.92.4 (5da689c313, 2019-01-14)">
  <metadata
     id="metadata14">
    <rdf:RDF>
      <cc:Work
         rdf:about="">
        <dc:format>image/svg+xml</dc:format>
        <dc:type
           rdf:resource="http://purl.org/dc/dcmitype/StillImage" />
      </cc:Work>
    </rdf:RDF>
  </metadata>
  <defs
     id="defs12" />
  <sodipodi:namedview
     pagecolor="#ffffff"
     bordercolor="#666666"
     borderopacity="1"
     objecttolerance="10"
     gridtolerance="10"
     guidetolerance="10"
     inkscape:pageopacity="0"
     inkscape:pageshadow="2"
     inkscape:window-width="2560"
     inkscape:window-height="1377"
     id="namedview10"
     showgrid="false"
     inkscape:zoom="1"
     inkscape:cx="156.75428"
     inkscape:cy="292.28181"
     inkscape:window-x="1912"
     inkscape:window-y="-8"
     inkscape:window-maximized="1"
     inkscape:current-layer="svg8" />
  <g
     id="g18620"
     transform="matrix(0.95580002,0,0,0.95580002,11.295083,11.082486)">
    <path
       sodipodi:nodetypes="cccccccccccccccccccccccccccccccczccccccccccccccccccccccccccccccc"
       inkscape:connector-curvature="0"
       style="fill:#033017;fill-opacity:1;stroke:#000000;stroke-width:32;stroke-miterlimit:4;stroke-dasharray:none;stroke-opacity:1"
       id="path18613"
       d="M 174.688,61.094 144.125,78.75 43.53,136.813 l -10.124,5.843 -10.718,6.188 -5.47,3.156 65.407,113.375 2.03,-1.156 4.97,-2.876 9.188,-5.313 V 256 l 55.874,-32.438 -8.625,195.938 -0.156,3.22 -1.125,24.03 h 222.126 l -0.125,-2.688 -0.31,-7.343 -0.783,-17.22 -8.593,-195.53 55.22,32.06 -0.033,0.033 13.283,7.656 0.843,0.5 2.063,1.186 65.402,-113.404 -5.47,-3.156 -10.717,-6.188 -94.438,-54.5 -16.28,-9.406 -22.408,-12.938 -8.156,-4.687 c -11.456,23.492 -44.17599,42.14778 -81.156,40.594 -36.98001,-1.55378 -67.81752,-16.399214 -80.561,-40.625 z M 170.219,296 l 3.405,-77.25 h -0.03 l 1.155,-28.875 c -28.2598,16.93047 -56.79541,33.39052 -85.28,49.938 l -46.72,-80.97 114.625,-66.187 h 0.001 c 38.33,35.412 91.103,46.482 137.03,34.563 l 9.313,-2.782 c 18.97,-6.366 36.472,-16.805 50.876,-31.25 l 113.75,65.656 -46.72,81 -51.748,-30.063 -33.563,-19.874 1.998,33.75 h 0.032 L 341.534,296 Z m -0.749,16.97 h 172.81 l 0.876,19.967 H 168.594 l 0.875,-19.968 z m -1.626,36.936 H 343.906 L 346.97,419.5 H 164.78 Z" />
    <path
       inkscape:connector-curvature="0"
       id="path18615"
       d="m 42.749,158.843 114.625,-66.187 99.53476,24.6791 97.68524,-24.1481 113.75,65.656 -46.72,81 L 336.313,189.906 346.97,419.5 H 164.78 l 9.969,-229.625 -85.28,49.938 z"
       style="fill:#02180c;fill-opacity:1;stroke:none;stroke-width:1px;stroke-linecap:butt;stroke-linejoin:miter;stroke-opacity:1"
       sodipodi:nodetypes="cccccccccccc" />
    <path
       d="M 174.688,61.094 144.125,78.75 43.53,136.813 l -10.124,5.843 -10.718,6.188 -5.47,3.156 65.407,113.375 2.03,-1.156 4.97,-2.876 9.188,-5.313 V 256 l 55.874,-32.438 -8.625,195.938 -0.156,3.22 -1.125,24.03 h 222.126 l -0.125,-2.688 -0.31,-7.343 -0.783,-17.22 -8.593,-195.53 55.22,32.06 -0.033,0.033 13.283,7.656 0.843,0.5 2.063,1.186 65.402,-113.404 -5.47,-3.156 -10.717,-6.188 -94.438,-54.5 -16.28,-9.406 -22.408,-12.938 -8.156,-4.687 c -11.456,23.492 -43.573,40.594 -81.156,40.594 -37.564,0 -69.075,-17.103 -80.53,-40.595 l -0.032,-0.03 z m -17.313,31.562 c 38.33,35.412 91.103,46.482 137.03,34.563 l -7.717,14.25 13.125,24.25 13.125,-24.25 -9.22,-17.032 c 18.97,-6.366 36.472,-16.805 50.876,-31.25 l 113.75,65.656 -46.72,81 -29.624,-17.219 12.156,-22.468 -13.125,-24.25 -13.124,24.25 11.279,20.844 -19.31,-11.22 -33.563,-19.874 0.5,8.5 -12.938,-23.906 -13.156,24.25 13.155,24.25 12.97,-23.97 1.467,24.626 h 0.032 l 2.187,49.406 -10.655,-19.656 -13.125,24.25 9.938,18.344 h -60.22 l 9,-16.625 -13.124,-24.25 -13.125,24.25 9,16.625 h -88 l 3.405,-77.25 h -0.03 l 1.155,-28.875 -33.53,19.875 -51.75,30.063 -46.72,-80.97 114.625,-66.187 z m 4.563,16.78 -13.125,24.25 13.125,24.25 13.125,-24.25 z m 270.093,39.626 -13.124,24.25 13.125,24.25 13.126,-24.25 -13.125,-24.25 z m -303.341,17.658 -13.125,24.25 13.124,24.25 13.125,-24.25 -13.125,-24.25 z m 113.843,38.186 -13.124,24.25 13.125,24.25 13.126,-24.25 -13.125,-24.25 z m 55.876,19.813 -13.125,24.25 13.126,24.25 13.125,-24.25 -13.124,-24.25 z m -99.72,9.186 -13.124,24.25 13.125,24.25 13.157,-24.25 -13.156,-24.25 z m 142.22,47.625 0.625,14.47 h -8.467 l 7.843,-14.47 z M 169.47,312.97 h 172.81 l 0.876,19.967 H 168.594 l 0.875,-19.968 z m -1.626,36.936 H 207 l -10.844,19.97 13.156,24.25 13.125,-24.25 -10.812,-19.97 h 120.563 l -11.563,21.375 13.125,24.25 11.25,-20.781 1.97,44.75 h -53.44 l 8.095,-14.97 -13.125,-24.25 -13.125,24.25 8.094,14.97 H 164.78 Z m 167.47,0 h 8.592 l 0.75,17.28 -9.344,-17.28 z"
       id="path4"
       style="fill:#033017;fill-opacity:1"
       inkscape:connector-curvature="0" />
  </g>
</svg>
