<?xml version="1.0" encoding="UTF-8" standalone="no"?>
<svg
   xmlns:dc="http://purl.org/dc/elements/1.1/"
   xmlns:cc="http://creativecommons.org/ns#"
   xmlns:rdf="http://www.w3.org/1999/02/22-rdf-syntax-ns#"
   xmlns:svg="http://www.w3.org/2000/svg"
   xmlns="http://www.w3.org/2000/svg"
   xmlns:xlink="http://www.w3.org/1999/xlink"
   xmlns:sodipodi="http://sodipodi.sourceforge.net/DTD/sodipodi-0.dtd"
   xmlns:inkscape="http://www.inkscape.org/namespaces/inkscape"
   style="height: 512px; width: 512px;"
   viewBox="0 0 512 512"
   version="1.1"
   id="svg8"
   sodipodi:docname="pet-duck.svg"
   inkscape:version="0.92.4 (5da689c313, 2019-01-14)">
  <metadata
     id="metadata14">
    <rdf:RDF>
      <cc:Work
         rdf:about="">
        <dc:format>image/svg+xml</dc:format>
        <dc:type
           rdf:resource="http://purl.org/dc/dcmitype/StillImage" />
        <dc:title></dc:title>
      </cc:Work>
    </rdf:RDF>
  </metadata>
  <defs
     id="defs12">
    <linearGradient
       inkscape:collect="always"
       id="linearGradient888">
      <stop
         id="stop886"
         offset="0"
         style="stop-color:#442723;stop-opacity:1" />
      <stop
         style="stop-color:#93807d;stop-opacity:1;"
         offset="0.16853629"
         id="stop907" />
      <stop
         style="stop-color:#e3dad8;stop-opacity:1"
         offset="0.30660594"
         id="stop892" />
      <stop
         id="stop905"
         offset="0.73103583"
         style="stop-color:#8e8076;stop-opacity:1;" />
      <stop
         id="stop884"
         offset="1"
         style="stop-color:#392615;stop-opacity:1" />
    </linearGradient>
    <linearGradient
       inkscape:collect="always"
       id="linearGradient880">
      <stop
         style="stop-color:#e3ca8d;stop-opacity:1;"
         offset="0"
         id="stop876" />
      <stop
         style="stop-color:#9b8023;stop-opacity:1"
         offset="1"
         id="stop878" />
    </linearGradient>
    <linearGradient
       inkscape:collect="always"
       id="linearGradient868">
      <stop
         style="stop-color:#408276;stop-opacity:1;"
         offset="0"
         id="stop864" />
      <stop
         id="stop872"
         offset="0.65113449"
         style="stop-color:#3b6260;stop-opacity:1;" />
      <stop
         style="stop-color:#37434a;stop-opacity:1"
         offset="1"
         id="stop866" />
    </linearGradient>
    <radialGradient
       inkscape:collect="always"
       xlink:href="#linearGradient868"
       id="radialGradient870"
       cx="312.98056"
       cy="98.522408"
       fx="312.98056"
       fy="98.522408"
       r="115.77652"
       gradientTransform="matrix(0.97013691,0.04711377,-0.03903513,0.80378657,13.192414,8.550486)"
       gradientUnits="userSpaceOnUse" />
    <linearGradient
       inkscape:collect="always"
       xlink:href="#linearGradient880"
       id="linearGradient882"
       x1="391.603"
       y1="105.191"
       x2="387.03699"
       y2="149.244"
       gradientUnits="userSpaceOnUse" />
    <radialGradient
       inkscape:collect="always"
       xlink:href="#linearGradient888"
       id="radialGradient894"
       cx="443.54327"
       cy="276.90616"
       fx="443.54327"
       fy="276.90616"
       r="204.82291"
       gradientTransform="matrix(1.830078,-0.4891188,0.4799724,1.7958569,-516.34897,-17.782243)"
       gradientUnits="userSpaceOnUse" />
  </defs>
  <sodipodi:namedview
     pagecolor="#ffffff"
     bordercolor="#666666"
     borderopacity="1"
     objecttolerance="10"
     gridtolerance="10"
     guidetolerance="10"
     inkscape:pageopacity="0"
     inkscape:pageshadow="2"
     inkscape:window-width="1920"
     inkscape:window-height="1080"
     id="namedview10"
     showgrid="false"
     inkscape:zoom="0.921875"
     inkscape:cx="10.230168"
     inkscape:cy="288.50487"
     inkscape:window-x="2232"
     inkscape:window-y="160"
     inkscape:window-maximized="0"
     inkscape:current-layer="svg8" />
  <g
     id="g932"
     transform="matrix(0.94317007,0,0,0.94317007,14.303634,14.548473)">
    <path
       sodipodi:nodetypes="cccccccccccccccccccccccccccccccc"
       inkscape:connector-curvature="0"
       id="path910"
       d="m 319.39844,26.759766 c -9.51,-0.074 -19.2378,2.177234 -28.9668,8.615234 -75.118,49.7 -18.15339,114.96978 -2.02539,166.17578 11.882,2.75 26.06822,3.49711 40.57422,1.78711 17.012,-2.006 34.34548,-7.26223 49.02148,-15.36523 -6.18,-11.668 3.62016,-29.60052 9.03516,-38.72852 l 83.39648,-8.39258 c 12.108,-7.608 21.48569,-19.25689 4.05469,-24.21289 l -82.88476,-11.44726 c 7.013,-28.320004 -22.40316,-65.607926 -41.03516,-71.919926 -10.8397,-2.968957 -21.67226,-6.338672 -31.16992,-6.511718 z m 72.08008,174.263674 v 0.002 c -18.094,11.122 -39.44472,17.7195 -60.38672,20.1875 -14.264,1.682 -28.37221,1.49969 -41.28321,-0.82031 -77.015,18.895 -133.99023,36.87695 -211.240231,36.87695 -24.21,-3.115 -31.61714,-11.99608 -50.36914,-20.08008 16.237,56.88 3.742812,95.62636 64.382812,131.19336 105.144999,50.197 218.444999,51.527 319.999999,0 21.96,-11.142 33.83833,-103.73623 17.98633,-127.11523 -8.27,-12.196 -27.65584,-30.11314 -39.08984,-40.24414 z m -215.3086,215.32812 -0.26562,44.43555 c -11.283,5.013 -20.25033,12.84408 -27.48633,24.45508 h 144 c -14.892,-14.892 -33.40744,-29.82335 -64.27344,-31.77735 l 0.1875,-29.12304 c -5.886,-0.56 -11.91233,-1.25055 -17.98633,-2.06055 l -0.20312,31.26563 c -5.774,0.32499 -11.17008,0.91974 -16.20508,1.84374 l 0.20898,-35.5664 c -6.128,-1.044 -12.17456,-2.19266 -17.97656,-3.47266 z"
       style="fill:#000000;fill-opacity:1;stroke:#000000;stroke-width:32;stroke-miterlimit:4;stroke-dasharray:none;stroke-opacity:1" />
    <path
       id="path851"
       d="m 319.398,26.76 c -9.51,-0.074 -19.237,2.177 -28.966,8.615 -75.118,49.7 -18.154,114.97 -2.026,166.176 11.882,2.75 26.068,3.496 40.574,1.786 17.012,-2.006 34.346,-7.262 49.022,-15.365 -6.18,-11.668 3.62,-29.6 9.035,-38.728 l 83.396,-8.392 c 12.108,-7.608 21.486,-19.257 4.055,-24.213 l -82.885,-11.448 c 7.013,-28.32 -22.403,-65.608 -41.035,-71.92 -9.898,-3.354 -20.393,-6.427 -31.17,-6.51 z"
       style="fill:url(#radialGradient870);fill-opacity:1"
       inkscape:connector-curvature="0" />
    <path
       id="path849"
       d="m 348.441,75.97 c 8.286,0 15,6.716 15,15 0,8.285 -6.714,15 -15,15 -8.283,0 -15,-6.715 -15,-15 0,-8.284 6.717,-15 15,-15 z"
       style="fill:#000000;fill-opacity:1"
       inkscape:connector-curvature="0" />
    <path
       id="path847"
       d="m 391.479,201.025 c -18.094,11.122 -39.446,17.72 -60.388,20.188 -14.264,1.682 -28.372,1.5 -41.283,-0.82 -77.015,18.895 -133.99,36.876 -211.24,36.876 -24.21,-3.115 -31.616,-11.996 -50.368,-20.08 16.237,56.88 3.742,95.626 64.382,131.193 105.145,50.197 218.445,51.527 320,0 21.96,-11.142 33.838,-103.735 17.986,-127.114 -8.27,-12.196 -27.656,-30.114 -39.09,-40.245 z"
       style="fill:url(#radialGradient894);fill-opacity:1"
       inkscape:connector-curvature="0" />
    <path
       id="path845"
       d="m 362.549,256.295 c 0.275,28.072 -13.338,50.968 -33.58,67.04 -20.24,16.074 -46.96,26.048 -75.013,30.925 -28.053,4.876 -57.493,4.613 -83.498,-0.717 -26.005,-5.33 -48.854,-15.582 -62.87,-32.49 l 13.856,-11.487 c 9.996,12.058 29.158,21.53 52.63,26.342 23.47,4.81 50.974,5.107 76.8,0.617 25.826,-4.49 49.922,-13.804 66.902,-27.287 16.98,-13.483 26.994,-30.408 26.774,-52.765 l 17.997,-0.178 z"
       style="fill:#563521;fill-opacity:1"
       inkscape:connector-curvature="0" />
    <path
       id="path4"
       d="m 176.17,416.35 -0.266,44.437 c -11.283,5.013 -20.25,12.844 -27.486,24.455 h 144 C 277.526,470.35 259.01,455.419 228.144,453.465 l 0.188,-29.123 c -5.886,-0.56 -11.912,-1.25 -17.986,-2.06 l -0.204,31.265 c -5.774,0.325 -11.17,0.92 -16.205,1.844 l 0.21,-35.566 c -6.128,-1.044 -12.176,-2.194 -17.978,-3.474 z"
       style="fill:#e87944;fill-opacity:1"
       inkscape:connector-curvature="0" />
    <path
       sodipodi:nodetypes="ccccc"
       inkscape:connector-curvature="0"
       style="fill:url(#linearGradient882);fill-opacity:1"
       d="m 387.037,149.244 83.396,-8.392 c 12.108,-7.608 21.486,-19.257 4.055,-24.213 l -82.885,-11.448 c 1.32398,32.9365 -3.60809,32.94724 -4.566,44.053 z"
       id="path874" />
  </g>
</svg>
