<?xml version="1.0" encoding="UTF-8" standalone="no"?>
<svg
   xmlns:dc="http://purl.org/dc/elements/1.1/"
   xmlns:cc="http://creativecommons.org/ns#"
   xmlns:rdf="http://www.w3.org/1999/02/22-rdf-syntax-ns#"
   xmlns:svg="http://www.w3.org/2000/svg"
   xmlns="http://www.w3.org/2000/svg"
   xmlns:xlink="http://www.w3.org/1999/xlink"
   xmlns:sodipodi="http://sodipodi.sourceforge.net/DTD/sodipodi-0.dtd"
   xmlns:inkscape="http://www.inkscape.org/namespaces/inkscape"
   style="height: 512px; width: 512px;"
   viewBox="0 0 512 512"
   version="1.1"
   id="svg8"
   sodipodi:docname="pet-fairy.svg"
   inkscape:version="0.92.4 (5da689c313, 2019-01-14)">
  <metadata
     id="metadata14">
    <rdf:RDF>
      <cc:Work
         rdf:about="">
        <dc:format>image/svg+xml</dc:format>
        <dc:type
           rdf:resource="http://purl.org/dc/dcmitype/StillImage" />
        <dc:title />
      </cc:Work>
    </rdf:RDF>
  </metadata>
  <defs
     id="defs12">
    <linearGradient
       inkscape:collect="always"
       id="linearGradient879">
      <stop
         style="stop-color:#fefefe;stop-opacity:1"
         offset="0"
         id="stop875" />
      <stop
         style="stop-color:#8ec1bf;stop-opacity:1"
         offset="1"
         id="stop877" />
    </linearGradient>
    <linearGradient
       inkscape:collect="always"
       id="linearGradient861">
      <stop
         style="stop-color:#e4fdff;stop-opacity:1"
         offset="0"
         id="stop857" />
      <stop
         id="stop873"
         offset="0.5"
         style="stop-color:#51e5f6;stop-opacity:0.96470588" />
      <stop
         style="stop-color:#3d9fbe;stop-opacity:1"
         offset="1"
         id="stop859" />
    </linearGradient>
    <radialGradient
       inkscape:collect="always"
       xlink:href="#linearGradient861"
       id="radialGradient863"
       cx="302.04838"
       cy="249.321"
       fx="302.04838"
       fy="249.321"
       r="35.451382"
       gradientTransform="matrix(0.95342808,0,0,1.1634327,43.473906,-40.344608)"
       gradientUnits="userSpaceOnUse" />
    <radialGradient
       inkscape:collect="always"
       xlink:href="#linearGradient861"
       id="radialGradient871"
       cx="270.16385"
       cy="313.92404"
       fx="270.16385"
       fy="313.92404"
       r="55.120434"
       gradientTransform="matrix(0.73428705,-0.74190728,0.80357158,0.795318,-143.24453,274.79077)"
       gradientUnits="userSpaceOnUse" />
    <linearGradient
       inkscape:collect="always"
       xlink:href="#linearGradient879"
       id="linearGradient881"
       x1="239.136"
       y1="142.72701"
       x2="151.73599"
       y2="288.85599"
       gradientUnits="userSpaceOnUse"
       gradientTransform="matrix(0.95342808,0,0,0.95342808,43.473906,12.013963)" />
    <linearGradient
       inkscape:collect="always"
       xlink:href="#linearGradient879"
       id="linearGradient889"
       x1="256.207"
       y1="113.277"
       x2="154.687"
       y2="41.862999"
       gradientUnits="userSpaceOnUse"
       gradientTransform="matrix(0.95342808,0,0,0.95342808,43.473906,12.013963)" />
  </defs>
  <sodipodi:namedview
     pagecolor="#ffffff"
     bordercolor="#666666"
     borderopacity="1"
     objecttolerance="10"
     gridtolerance="10"
     guidetolerance="10"
     inkscape:pageopacity="0"
     inkscape:pageshadow="2"
     inkscape:window-width="1920"
     inkscape:window-height="1080"
     id="namedview10"
     showgrid="false"
     inkscape:zoom="0.65186406"
     inkscape:cx="184.17086"
     inkscape:cy="156.21827"
     inkscape:window-x="2232"
     inkscape:window-y="160"
     inkscape:window-maximized="0"
     inkscape:current-layer="svg8" />
  <path
     d="m 227.32344,35.302397 c -14.02492,1.609387 -26.12583,7.942056 -36.3666,16.624926 20.24127,12.429842 40.08593,29.459021 58.3231,47.386329 11.18085,10.991118 21.721,22.329288 31.28769,33.184068 2.32828,-4.06447 4.71375,-8.22427 7.18122,-12.48228 C 283.64053,83.542998 254.7488,36.866973 227.32344,35.302397 Z M 112.01204,56.160543 C 84.73446,73.751291 73.681368,94.292899 71.391234,116.60598 c -0.143015,71.07139 60.720976,144.99067 116.752036,170.8114 -26.95818,11.64804 -57.80921,31.08176 -72.90007,53.37291 -10.85668,18.14564 -9.56669,30.25609 6.74265,38.2706 32.4709,15.52372 64.4422,7.74279 91.70643,-7.42244 -7.00197,-3.35988 -14.1155,-6.90472 -21.32056,-10.45147 42.78985,-10.13208 63.77004,-43.21509 87.52184,-72.21741 0.0563,-6.13627 0.48053,-12.70634 1.26329,-19.54719 -1.71489,0.59865 -3.46725,1.08403 -5.24576,1.45303 -6.58247,8.89929 -14.14315,16.91381 -22.94234,23.35899 2.04034,10.21693 -2.90223,21.57607 -11.89687,28.79352 -12.03608,9.65442 -29.73457,10.62215 -39.2269,-1.20894 -9.49233,-11.83205 -4.70993,-28.89841 7.32615,-38.55473 10.14161,-8.13751 24.30478,-10.10348 34.19088,-3.43901 3.5191,-2.67151 6.8418,-5.69483 9.99002,-9.00036 -18.27722,-5.65574 -48.98141,-15.19574 -54.17188,-33.21744 -1.2795,-4.68324 0.77228,-11.49548 4.97594,-14.69042 35.37409,-26.88286 52.23165,-49.71841 67.31679,-74.82313 C 261.3122,136.4001 249.74902,123.83964 237.24863,111.55185 206.0906,82.014653 148.77241,34.270788 112.01204,56.160543 Z m 204.74868,49.068177 c -30.39624,47.42733 -41.47984,84.32404 -99.80962,129.44693 13.1983,12.00747 32.13243,20.06299 49.07676,20.08301 8.09174,-0.0839 13.51198,-2.19861 16.80417,-6.73025 10.94535,-15.06416 14.92687,-37.76147 20.38905,-59.89244 5.46315,-22.13193 13.28221,-45.09906 35.87274,-55.35127 19.1639,-5.6586 36.85857,2.60858 52.57488,11.05976 1.45779,-3.92812 2.34829,-8.46644 2.25486,-13.05624 -1.10312,-32.898036 -65.19827,-38.707274 -77.16284,-25.5595 z m 29.42469,43.18266 c -13.84282,6.28119 -20.00292,20.09541 -24.94167,38.56522 3.31888,6.76838 8.47406,11.79962 14.74571,13.96581 14.8077,5.11419 33.97446,-6.33553 41.20431,-28.63621 1.69996,-5.24386 2.51323,-10.4162 2.58474,-15.33112 -9.15863,-5.0036 -24.74527,-12.39457 -33.59309,-8.5637 z m -30.05777,60.06788 c -3.11294,13.53677 -6.75313,27.65895 -13.62353,40.39007 -2.57521,11.82537 -4.19985,23.31037 -4.84914,33.38238 12.43175,6.81511 27.94498,10.25984 40.94211,8.05265 11.75672,-11.29812 27.34813,-26.6464 26.63497,-41.88695 -0.52725,-8.29197 -4.77286,-19.22683 -7.12306,-31.4822 -16.40659,4.34954 -30.21509,2.31683 -41.98135,-8.4569 z m 105.29278,15.68103 c -2.16142,7.56355 1.34434,13.49101 5.76538,14.57792 4.42105,1.08786 10.63359,-2.44841 12.79501,-10.01195 2.16142,-7.5645 -1.34624,-13.49292 -5.76824,-14.58078 -6.20491,-0.86285 -11.63182,6.24877 -12.79215,10.01481 z m -7.23079,27.27091 c -3.29219,9.34836 -6.97433,18.17233 -13.80564,26.98678 -6.5205,-6.43469 -12.31067,-13.86952 -17.41723,-21.7763 -1.04591,7.26989 -4.53259,13.41092 -8.1213,18.5785 8.74103,11.33531 16.61635,18.6338 26.91528,27.16793 13.59302,-13.11917 23.61641,-30.72898 29.1625,-46.55112 -6.12832,-0.14523 -12.4621,-1.46029 -16.73361,-4.40579 z m -194.28004,45.21728 c -6.28214,5.03982 -6.87422,11.69474 -4.67943,14.43013 2.19479,2.73538 8.82016,3.60014 15.1023,-1.43968 6.28214,-5.03982 6.87231,-11.69475 4.67752,-14.43013 -4.7128,-3.90906 -11.28001,-1.55409 -15.10039,1.43968 z m 73.69522,2.83168 c -14.20989,17.34285 -30.40959,43.81002 -61.00033,62.02526 39.21164,17.729 74.65342,27.66944 99.59796,27.39104 5.32966,-27.07069 8.35394,-54.29297 1.68471,-80.85547 -14.54455,0.4052 -28.006,-2.44745 -40.28234,-8.55988 z m -40.0497,89.51736 c -5.45361,8.59611 -11.94836,16.89951 -19.53002,24.71572 -7.14308,-4.05875 -14.41297,-8.19853 -21.91169,-11.9436 l -7.66842,15.35305 c 5.27437,2.63528 10.64503,5.73011 16.13868,8.95937 -17.43629,14.32716 -39.24691,26.30985 -65.81419,34.39778 l 4.99787,16.41803 c 31.04839,-9.45134 56.48776,-24.07788 76.50212,-41.72202 21.60945,9.82985 40.32047,17.51829 60.17752,16.26167 13.10296,-12.30685 21.1804,-29.99961 25.96947,-45.44229 -5.68815,-0.37183 -11.60989,-1.11741 -17.73185,-2.19955 -3.87092,11.32195 -8.68669,23.01766 -15.68866,30.74996 -13.20212,-0.0572 -26.20021,-5.33634 -39.5072,-12.29446 7.98782,-8.66761 14.84487,-17.86342 20.58928,-27.38054 -5.5535,-1.8262 -11.0627,-3.78447 -16.52291,-5.87312 z"
     id="path833"
     inkscape:connector-curvature="0"
     style="fill:#3b5b5b;fill-opacity:1;stroke:#3b5b5b;stroke-width:30.50969887;stroke-miterlimit:4;stroke-dasharray:none;stroke-opacity:1"
     sodipodi:nodetypes="cccccccccccccccccccccccccccccccccccccccccccccccccccccccccccccccssccccccccccccccccccccccc" />
  <path
     inkscape:connector-curvature="0"
     style="fill:url(#linearGradient889);fill-opacity:1;stroke-width:0.95342809"
     d="m 227.32344,35.302397 c -14.02492,1.609387 -26.12583,7.942056 -36.3666,16.624926 20.24127,12.429842 40.08593,29.459021 58.3231,47.386329 11.18085,10.991118 21.721,22.329288 31.28769,33.184068 2.32828,-4.06447 4.71375,-8.22427 7.18122,-12.48228 C 283.64053,83.542998 254.7488,36.866973 227.32344,35.302397 Z"
     id="path855" />
  <path
     inkscape:connector-curvature="0"
     style="fill:url(#linearGradient881);fill-opacity:1;stroke-width:0.95342809"
     d="M 112.01204,56.160543 C 84.73446,73.751291 73.681368,94.292899 71.391234,116.60598 c -0.143015,71.07139 60.720976,144.99067 116.752036,170.8114 -26.95818,11.64804 -57.80921,31.08176 -72.90007,53.37291 -10.85668,18.14564 -9.56669,30.25609 6.74265,38.2706 32.4709,15.52372 64.4422,7.74279 91.70643,-7.42244 -7.00197,-3.35988 -14.1155,-6.90472 -21.32056,-10.45147 42.78985,-10.13208 63.77004,-43.21509 87.52184,-72.21741 0.0563,-6.13627 0.48053,-12.70634 1.26329,-19.54719 -1.71489,0.59865 -3.46725,1.08403 -5.24576,1.45303 -6.58247,8.89929 -14.14315,16.91381 -22.94234,23.35899 2.04034,10.21693 -2.90223,21.57607 -11.89687,28.79352 -12.03608,9.65442 -29.73457,10.62215 -39.2269,-1.20894 -9.49233,-11.83205 -4.70993,-28.89841 7.32615,-38.55473 10.14161,-8.13751 24.30478,-10.10348 34.19088,-3.43901 3.5191,-2.67151 6.8418,-5.69483 9.99002,-9.00036 -18.27722,-5.65574 -48.98141,-15.19574 -54.17188,-33.21744 -1.2795,-4.68324 0.77228,-11.49548 4.97594,-14.69042 35.37409,-26.88286 52.23165,-49.71841 67.31679,-74.82313 C 261.3122,136.4001 249.74902,123.83964 237.24863,111.55185 206.0906,82.014653 148.77241,34.270788 112.01204,56.160543 Z"
     id="path853" />
  <path
     inkscape:connector-curvature="0"
     style="fill:#ffeeaa;fill-opacity:1;stroke-width:0.95342809"
     d="m 316.76072,105.22872 c -30.39624,47.42733 -41.47984,84.32404 -99.80962,129.44693 13.1983,12.00747 32.13243,20.06299 49.07676,20.08301 8.09174,-0.0839 13.51198,-2.19861 16.80417,-6.73025 10.94535,-15.06416 14.92687,-37.76147 20.38905,-59.89244 5.46315,-22.13193 13.28221,-45.09906 35.87274,-55.35127 19.1639,-5.6586 36.85857,2.60858 52.57488,11.05976 1.45779,-3.92812 2.34829,-8.46644 2.25486,-13.05624 -1.10312,-32.898036 -65.19827,-38.707274 -77.16284,-25.5595 z"
     id="path851" />
  <path
     inkscape:connector-curvature="0"
     style="fill:#e9afaf;fill-opacity:1;stroke-width:0.95342809"
     d="m 346.18541,148.41138 c -13.84282,6.28119 -20.00292,20.09541 -24.94167,38.56522 3.31888,6.76838 8.47406,11.79962 14.74571,13.96581 14.8077,5.11419 33.97446,-6.33553 41.20431,-28.63621 1.69996,-5.24386 2.51323,-10.4162 2.58474,-15.33112 -9.15863,-5.0036 -24.74527,-12.39457 -33.59309,-8.5637 z"
     id="path849" />
  <path
     inkscape:connector-curvature="0"
     style="fill:url(#radialGradient863);fill-opacity:1;stroke-width:0.95342809"
     d="m 316.12764,208.47926 c -3.11294,13.53677 -6.75313,27.65895 -13.62353,40.39007 -2.57521,11.82537 -4.19985,23.31037 -4.84914,33.38238 12.43175,6.81511 27.94498,10.25984 40.94211,8.05265 11.75672,-11.29812 27.34813,-26.6464 26.63497,-41.88695 -0.52725,-8.29197 -4.77286,-19.22683 -7.12306,-31.4822 -16.40659,4.34954 -30.21509,2.31683 -41.98135,-8.4569 z"
     id="path847" />
  <path
     inkscape:connector-curvature="0"
     style="fill:#e9afaf;fill-opacity:1;stroke-width:0.95342809"
     d="m 421.42042,224.16029 c -2.16142,7.56355 1.34434,13.49101 5.76538,14.57792 4.42105,1.08786 10.63359,-2.44841 12.79501,-10.01195 2.16142,-7.5645 -1.34624,-13.49292 -5.76824,-14.58078 -6.20491,-0.86285 -11.63182,6.24877 -12.79215,10.01481 z"
     id="path845" />
  <path
     inkscape:connector-curvature="0"
     style="fill:#e9afaf;fill-opacity:1;stroke-width:0.95342809"
     d="m 414.18963,251.4312 c -3.29219,9.34836 -6.97433,18.17233 -13.80564,26.98678 -6.5205,-6.43469 -12.31067,-13.86952 -17.41723,-21.7763 -1.04591,7.26989 -4.53259,13.41092 -8.1213,18.5785 8.74103,11.33531 16.61635,18.6338 26.91528,27.16793 13.59302,-13.11917 23.61641,-30.72898 29.1625,-46.55112 -6.08287,0.49197 -12.08375,-1.09931 -16.73361,-4.40484 z"
     id="path843" />
  <path
     inkscape:connector-curvature="0"
     style="fill:#e9afaf;fill-opacity:1;stroke-width:0.95342809"
     d="m 219.90959,296.64848 c -6.28214,5.03982 -6.87422,11.69474 -4.67943,14.43013 2.19479,2.73538 8.82016,3.60014 15.1023,-1.43968 6.28214,-5.03982 6.87231,-11.69475 4.67752,-14.43013 -4.7128,-3.90906 -11.28001,-1.55409 -15.10039,1.43968 z"
     id="path841" />
  <path
     inkscape:connector-curvature="0"
     style="fill:url(#radialGradient871);fill-opacity:1;stroke-width:0.95342809"
     d="m 293.60481,299.48016 c -14.20989,17.34285 -30.40959,43.81002 -61.00033,62.02526 39.21164,17.729 74.65342,27.66944 99.59796,27.39104 5.32966,-27.07069 8.35394,-54.29297 1.68471,-80.85547 -14.54455,0.4052 -28.006,-2.44745 -40.28234,-8.55988 z"
     id="path839" />
  <path
     inkscape:connector-curvature="0"
     style="fill:#e9afaf;fill-opacity:1;stroke-width:0.95342809"
     d="m 253.55511,388.99752 c -5.45361,8.59611 -11.94836,16.89951 -19.53002,24.71572 -7.14308,-4.05875 -14.41297,-8.19853 -21.91169,-11.9436 l -7.66842,15.35305 c 5.27437,2.63528 10.64503,5.73011 16.13868,8.95937 -17.43629,14.32716 -39.24691,26.30985 -65.81419,34.39778 l 4.99787,16.41803 c 31.04839,-9.45134 56.48776,-24.07788 76.50212,-41.72202 21.60945,9.82985 40.32047,17.51829 60.17752,16.26167 13.10296,-12.30685 21.1804,-29.99961 25.96947,-45.44229 -5.68815,-0.37183 -11.60989,-1.11741 -17.73185,-2.19955 -3.87092,11.32195 -8.68669,23.01766 -15.68866,30.74996 -13.20212,-0.0572 -26.20021,-5.33634 -39.5072,-12.29446 7.98782,-8.66761 14.84487,-17.86342 20.58928,-27.38054 -5.5535,-1.8262 -11.0627,-3.78447 -16.52291,-5.87312 z"
     id="path835" />
</svg>
