<?xml version="1.0" encoding="UTF-8" standalone="no"?>
<svg
   xmlns:dc="http://purl.org/dc/elements/1.1/"
   xmlns:cc="http://creativecommons.org/ns#"
   xmlns:rdf="http://www.w3.org/1999/02/22-rdf-syntax-ns#"
   xmlns:svg="http://www.w3.org/2000/svg"
   xmlns="http://www.w3.org/2000/svg"
   xmlns:xlink="http://www.w3.org/1999/xlink"
   xmlns:sodipodi="http://sodipodi.sourceforge.net/DTD/sodipodi-0.dtd"
   xmlns:inkscape="http://www.inkscape.org/namespaces/inkscape"
   style="height: 512px; width: 512px;"
   viewBox="0 0 512 512"
   version="1.1"
   id="svg8"
   sodipodi:docname="pet-rat.svg"
   inkscape:version="0.92.4 (5da689c313, 2019-01-14)">
  <metadata
     id="metadata14">
    <rdf:RDF>
      <cc:Work
         rdf:about="">
        <dc:format>image/svg+xml</dc:format>
        <dc:type
           rdf:resource="http://purl.org/dc/dcmitype/StillImage" />
        <dc:title></dc:title>
      </cc:Work>
    </rdf:RDF>
  </metadata>
  <defs
     id="defs12">
    <linearGradient
       inkscape:collect="always"
       id="linearGradient872">
      <stop
         style="stop-color:#b7a1b3;stop-opacity:1;"
         offset="0"
         id="stop868" />
      <stop
         style="stop-color:#b7a1b3;stop-opacity:0;"
         offset="1"
         id="stop870" />
    </linearGradient>
    <linearGradient
       inkscape:collect="always"
       id="linearGradient860">
      <stop
         style="stop-color:#e5e1f7;stop-opacity:1;"
         offset="0"
         id="stop856" />
      <stop
         style="stop-color:#e5e1f7;stop-opacity:0;"
         offset="1"
         id="stop858" />
    </linearGradient>
    <radialGradient
       inkscape:collect="always"
       xlink:href="#linearGradient860"
       id="radialGradient862"
       cx="429.39719"
       cy="214.44952"
       fx="429.39719"
       fy="214.44952"
       r="141.70828"
       gradientTransform="matrix(1.0066561,0.53303762,-0.53904692,1.0180048,-7.543422,-147.6631)"
       gradientUnits="userSpaceOnUse" />
    <radialGradient
       inkscape:collect="always"
       xlink:href="#linearGradient872"
       id="radialGradient874"
       cx="266.61075"
       cy="84.254829"
       fx="266.61075"
       fy="84.254829"
       r="141.70828"
       gradientTransform="matrix(0.2560808,0.135219,-0.14660614,0.27764602,238.52603,-3.5955701)"
       gradientUnits="userSpaceOnUse" />
    <radialGradient
       inkscape:collect="always"
       xlink:href="#linearGradient872"
       id="radialGradient876"
       gradientUnits="userSpaceOnUse"
       gradientTransform="matrix(0.33118766,0.19789264,-0.22663528,0.37929054,225.24458,-28.869078)"
       cx="266.61075"
       cy="84.254829"
       fx="266.61075"
       fy="84.254829"
       r="141.70828" />
  </defs>
  <sodipodi:namedview
     pagecolor="#ffffff"
     bordercolor="#666666"
     borderopacity="1"
     objecttolerance="10"
     gridtolerance="10"
     guidetolerance="10"
     inkscape:pageopacity="0"
     inkscape:pageshadow="2"
     inkscape:window-width="1920"
     inkscape:window-height="1080"
     id="namedview10"
     showgrid="false"
     inkscape:zoom="0.921875"
     inkscape:cx="115.89037"
     inkscape:cy="229.24245"
     inkscape:window-x="2232"
     inkscape:window-y="160"
     inkscape:window-maximized="0"
     inkscape:current-layer="svg8" />
  <g
     id="g834"
     transform="translate(0,0)"
     style="fill:#000000;fill-opacity:1;stroke:#000000;stroke-opacity:1;stroke-width:32;stroke-miterlimit:4;stroke-dasharray:none"
     class="">
    <path
       id="path832"
       d="m 433.5,31.6 c -8.5,0 -15.1,6.58 -15.1,14.81 0,8.23 6.6,14.81 15.1,14.81 8.5,0 15.1,-6.58 15.1,-14.81 0,-8.23 -6.6,-14.81 -15.1,-14.81 z M 267,59.05 c 6.6,15.84 17.1,18.03 31.1,24.77 -11.2,20.98 -23.2,51.08 -43.5,59.28 -64.7,26.1 -98.7,58.3 -112.3,98.7 -13.1,39 -7,87.2 13.3,145.4 61.8,4.9 127.3,9.2 159.4,2.8 -1.3,-4.4 -5.8,-7.5 -8.6,-9 -28.5,-9.8 -45.2,-10.9 -71.5,-12 l 1.1,-9.6 c 2.2,-19.6 0.4,-44.3 -7.7,-61.3 -4.1,-8.5 -9.5,-14.9 -16.5,-18.8 -7,-3.9 -15.8,-5.7 -28.4,-3.3 l -3.2,-17.8 c 13.5,-2.4 29.4,-0.6 40.4,5.4 10.9,6.1 18.7,15.8 23.9,26.7 9.1,18.9 11.1,41.6 9.9,61.8 10,0.6 18.9,1.6 26.8,2.9 19.2,-30.7 37,-60.4 39.5,-90.7 -13.8,-4 -32.4,-10.7 -34.3,-24.4 -2.7,-19.6 3.6,-45 19.3,-55.5 -1,27.8 -4.3,43.9 -2.3,49.7 5.8,10.9 30.3,15.2 40.1,17.4 v 0.1 c 17.4,4.8 31.9,7 34.8,25.6 18.2,-29.5 -14.4,-45 -36.2,-54.5 l -0.1,-5.8 c -0.3,-23.5 5.5,-39.4 13.5,-53.1 8,-13.6 17.7,-25 26.9,-43.2 v -0.1 c -9.4,-1.3 -19.4,-0.1 -27.1,1.3 5.7,-19.9 23.2,-23.73 38.6,-16.1 5.9,-8.3 13.4,-18.83 24.9,-29.96 -12.7,-9.39 -19.9,-20.4 -18.1,-33.92 -28,-3.4 -57.4,-4.45 -78.6,9.84 l -4,-3.72 C 302.4,30.07 257.2,35.64 267,59.05 Z M 129.4,364.6 c -14.6,3.2 -38.77,7 -49.63,16 -8.5,7.4 -15.03,19.8 -16.19,31.4 -1.17,11.6 1.99,21.6 12.85,28.8 43.57,28.9 88.57,25.6 128.97,14.1 40.4,-11.6 75.4,-32.6 119.4,-22.8 8.4,2.5 15.7,6.5 14.5,15.9 -0.4,2.8 -1.5,4.8 -2.7,6.5 -9.7,10.8 -30.9,17.7 -33.6,21.5 -6.4,9.2 34.2,2.8 45,-7.6 4.2,-4.2 8.1,-13 8.9,-21.3 0.8,-8.3 -1.3,-15.3 -4.9,-18.3 -11.2,-9.6 -24.1,-15.1 -39.8,-15.1 -15.7,-0.1 -34,1.7 -53.5,6.5 -39.1,9.6 -83.6,27.5 -127.4,18.6 -17,-3.4 -27.4,-6.8 -33.77,-14.9 -3.22,-4 -4.39,-10.6 -2.48,-15.4 7.45,-15.2 28.15,-17.8 40.95,-20.5 -2.4,-7.2 -4.6,-16.4 -6.6,-23.4 z"
       style="fill:#000000;fill-opacity:1;stroke:#000000;stroke-width:32;stroke-miterlimit:4;stroke-dasharray:none;stroke-opacity:1"
       inkscape:connector-curvature="0"
       sodipodi:nodetypes="sssssccccccccccscccccccccccccccccccccccccccccccccccscccccccc" />
  </g>
  <g
     class=""
     style="fill:#706364;fill-opacity:1"
     transform="translate(0,0)"
     id="g6">
    <path
       d="m 267,59.05 c 6.6,15.84 17.1,18.03 31.1,24.77 -11.2,20.98 -23.2,51.08 -43.5,59.28 -64.7,26.1 -98.7,58.3 -112.3,98.7 -13.1,39 -7,87.2 13.3,145.4 61.8,4.9 127.3,9.2 159.4,2.8 -1.3,-4.4 -5.8,-7.5 -8.6,-9 -28.5,-9.8 -45.2,-10.9 -71.5,-12 l 1.1,-9.6 c 2.2,-19.6 0.4,-44.3 -7.7,-61.3 -4.1,-8.5 -9.5,-14.9 -16.5,-18.8 -7,-3.9 -15.8,-5.7 -28.4,-3.3 l -3.2,-17.8 c 13.5,-2.4 29.4,-0.6 40.4,5.4 10.9,6.1 18.7,15.8 23.9,26.7 9.1,18.9 11.1,41.6 9.9,61.8 10,0.6 18.9,1.6 26.8,2.9 19.2,-30.7 37,-60.4 39.5,-90.7 -13.8,-4 -32.4,-10.7 -34.3,-24.4 -2.7,-19.6 3.6,-45 19.3,-55.5 -1,27.8 -4.3,43.9 -2.3,49.7 5.8,10.9 30.3,15.2 40.1,17.4 v 0.1 c 17.4,4.8 31.9,7 34.8,25.6 18.2,-29.5 -14.4,-45 -36.2,-54.5 l -0.1,-5.8 c -0.3,-23.5 5.5,-39.4 13.5,-53.1 8,-13.6 17.7,-25 26.9,-43.2 v -0.1 c -9.4,-1.3 -19.4,-0.1 -27.1,1.3 5.7,-19.9 23.2,-23.73 38.6,-16.1 5.9,-8.3 13.4,-18.83 24.9,-29.96 -12.7,-9.39 -19.9,-20.4 -18.1,-33.92 -28,-3.4 -57.4,-4.45 -78.6,9.84 l -4,-3.72 C 302.4,30.07 257.2,35.64 267,59.05 Z m 68.71356,-1.458136 c 8.47217,-8.423881 26.73512,-1.594311 24.58983,11.168136 -2.14529,12.762447 -14.52797,12.854492 -22.97797,7.409492 -8.45,-5.445001 -10.08403,-10.153746 -1.61186,-18.577628 z"
       id="path4"
       inkscape:connector-curvature="0"
       style="fill:#706364;fill-opacity:1"
       sodipodi:nodetypes="ccccccccccsccccccccccccccccccccccccczzzz" />
  </g>
  <g
     id="g838"
     transform="translate(0,0)"
     style="fill:#c7b6c4;fill-opacity:1"
     class="">
    <path
       id="path836"
       d="m 129.4,364.6 c -14.6,3.2 -38.77,7 -49.63,16 -8.5,7.4 -15.03,19.8 -16.19,31.4 -1.17,11.6 1.99,21.6 12.85,28.8 43.57,28.9 88.57,25.6 128.97,14.1 40.4,-11.6 75.4,-32.6 119.4,-22.8 8.4,2.5 15.7,6.5 14.5,15.9 -0.4,2.8 -1.5,4.8 -2.7,6.5 -9.7,10.8 -30.9,17.7 -33.6,21.5 -6.4,9.2 34.2,2.8 45,-7.6 4.2,-4.2 8.1,-13 8.9,-21.3 0.8,-8.3 -1.3,-15.3 -4.9,-18.3 -11.2,-9.6 -24.1,-15.1 -39.8,-15.1 -15.7,-0.1 -34,1.7 -53.5,6.5 -39.1,9.6 -83.6,27.5 -127.4,18.6 -17,-3.4 -27.4,-6.8 -33.77,-14.9 -3.22,-4 -4.39,-10.6 -2.48,-15.4 7.45,-15.2 28.15,-17.8 40.95,-20.5 -2.4,-7.2 -4.6,-16.4 -6.6,-23.4 z"
       inkscape:connector-curvature="0"
       style="fill:#c7b6c4;fill-opacity:1"
       sodipodi:nodetypes="ccccccccccscccccccc" />
  </g>
  <g
     id="g842"
     transform="translate(0,0)"
     style="fill:#c88695;fill-opacity:1"
     class="">
    <path
       sodipodi:nodetypes="sssss"
       style="fill:#c88695;fill-opacity:1"
       inkscape:connector-curvature="0"
       id="path840"
       d="m 433.5,31.6 c -8.5,0 -15.1,6.58 -15.1,14.81 0,8.23 6.6,14.81 15.1,14.81 8.5,0 15.1,-6.58 15.1,-14.81 0,-8.23 -6.6,-14.81 -15.1,-14.81 z" />
  </g>
  <g
     id="g846"
     transform="translate(0,0)"
     style="fill:url(#radialGradient862);fill-opacity:1"
     class="">
    <path
       sodipodi:nodetypes="ccccccccccsccccccccccccccccccccccccczzzz"
       style="fill:url(#radialGradient862);fill-opacity:1.0"
       inkscape:connector-curvature="0"
       id="path844"
       d="m 267,59.05 c 6.6,15.84 17.1,18.03 31.1,24.77 -11.2,20.98 -23.2,51.08 -43.5,59.28 -64.7,26.1 -98.7,58.3 -112.3,98.7 -13.1,39 -7,87.2 13.3,145.4 61.8,4.9 127.3,9.2 159.4,2.8 -1.3,-4.4 -5.8,-7.5 -8.6,-9 -28.5,-9.8 -45.2,-10.9 -71.5,-12 l 1.1,-9.6 c 2.2,-19.6 0.4,-44.3 -7.7,-61.3 -4.1,-8.5 -9.5,-14.9 -16.5,-18.8 -7,-3.9 -15.8,-5.7 -28.4,-3.3 l -3.2,-17.8 c 13.5,-2.4 29.4,-0.6 40.4,5.4 10.9,6.1 18.7,15.8 23.9,26.7 9.1,18.9 11.1,41.6 9.9,61.8 10,0.6 18.9,1.6 26.8,2.9 19.2,-30.7 37,-60.4 39.5,-90.7 -13.8,-4 -32.4,-10.7 -34.3,-24.4 -2.7,-19.6 3.6,-45 19.3,-55.5 -1,27.8 -4.3,43.9 -2.3,49.7 5.8,10.9 30.3,15.2 40.1,17.4 v 0.1 c 17.4,4.8 31.9,7 34.8,25.6 18.2,-29.5 -14.4,-45 -36.2,-54.5 l -0.1,-5.8 c -0.3,-23.5 5.5,-39.4 13.5,-53.1 8,-13.6 17.7,-25 26.9,-43.2 v -0.1 c -9.4,-1.3 -19.4,-0.1 -27.1,1.3 5.7,-19.9 23.2,-23.73 38.6,-16.1 5.9,-8.3 13.4,-18.83 24.9,-29.96 -12.7,-9.39 -19.9,-20.4 -18.1,-33.92 -28,-3.4 -57.4,-4.45 -78.6,9.84 l -4,-3.72 C 302.4,30.07 257.2,35.64 267,59.05 Z m 68.71356,-1.458136 c 8.47217,-8.423881 26.73512,-1.594311 24.58983,11.168136 -2.14529,12.762447 -14.52797,12.854492 -22.97797,7.409492 -8.45,-5.445001 -10.08403,-10.153746 -1.61186,-18.577628 z" />
  </g>
  <g
     class=""
     style="fill:url(#radialGradient874);fill-opacity:1"
     transform="translate(0,0)"
     id="g866">
    <path
       d="m 267,59.05 c 6.6,15.84 17.1,18.03 31.1,24.77 -11.2,20.98 -23.2,51.08 -43.5,59.28 -64.7,26.1 -98.7,58.3 -112.3,98.7 -13.1,39 -7,87.2 13.3,145.4 61.8,4.9 127.3,9.2 159.4,2.8 -1.3,-4.4 -5.8,-7.5 -8.6,-9 -28.5,-9.8 -45.2,-10.9 -71.5,-12 l 1.1,-9.6 c 2.2,-19.6 0.4,-44.3 -7.7,-61.3 -4.1,-8.5 -9.5,-14.9 -16.5,-18.8 -7,-3.9 -15.8,-5.7 -28.4,-3.3 l -3.2,-17.8 c 13.5,-2.4 29.4,-0.6 40.4,5.4 10.9,6.1 18.7,15.8 23.9,26.7 9.1,18.9 11.1,41.6 9.9,61.8 10,0.6 18.9,1.6 26.8,2.9 19.2,-30.7 37,-60.4 39.5,-90.7 -13.8,-4 -32.4,-10.7 -34.3,-24.4 -2.7,-19.6 3.6,-45 19.3,-55.5 -1,27.8 -4.3,43.9 -2.3,49.7 5.8,10.9 30.3,15.2 40.1,17.4 v 0.1 c 17.4,4.8 31.9,7 34.8,25.6 18.2,-29.5 -14.4,-45 -36.2,-54.5 l -0.1,-5.8 c -0.3,-23.5 5.5,-39.4 13.5,-53.1 8,-13.6 17.7,-25 26.9,-43.2 v -0.1 c -9.4,-1.3 -19.4,-0.1 -27.1,1.3 5.7,-19.9 23.2,-23.73 38.6,-16.1 5.9,-8.3 13.4,-18.83 24.9,-29.96 -12.7,-9.39 -19.9,-20.4 -18.1,-33.92 -28,-3.4 -57.4,-4.45 -78.6,9.84 l -4,-3.72 C 302.4,30.07 257.2,35.64 267,59.05 Z m 68.71356,-1.458136 c 8.47217,-8.423881 26.73512,-1.594311 24.58983,11.168136 -2.14529,12.762447 -14.52797,12.854492 -22.97797,7.409492 -8.45,-5.445001 -10.08403,-10.153746 -1.61186,-18.577628 z"
       id="path864"
       inkscape:connector-curvature="0"
       style="fill:url(#radialGradient876);fill-opacity:1"
       sodipodi:nodetypes="ccccccccccsccccccccccccccccccccccccczzzz" />
  </g>
</svg>
