<?xml version="1.0" encoding="UTF-8" standalone="no"?>
<svg
   xmlns:dc="http://purl.org/dc/elements/1.1/"
   xmlns:cc="http://creativecommons.org/ns#"
   xmlns:rdf="http://www.w3.org/1999/02/22-rdf-syntax-ns#"
   xmlns:svg="http://www.w3.org/2000/svg"
   xmlns="http://www.w3.org/2000/svg"
   xmlns:xlink="http://www.w3.org/1999/xlink"
   xmlns:sodipodi="http://sodipodi.sourceforge.net/DTD/sodipodi-0.dtd"
   xmlns:inkscape="http://www.inkscape.org/namespaces/inkscape"
   style="height: 45px; width: 45px;"
   viewBox="0 0 512 512"
   version="1.1"
   id="svg8"
   sodipodi:docname="orb-wand.svg"
   inkscape:version="0.92.1 r15371">
  <metadata
     id="metadata14">
    <rdf:RDF>
      <cc:Work
         rdf:about="">
        <dc:format>image/svg+xml</dc:format>
        <dc:type
           rdf:resource="http://purl.org/dc/dcmitype/StillImage" />
      </cc:Work>
    </rdf:RDF>
  </metadata>
  <defs
     id="defs12">
    <linearGradient
       inkscape:collect="always"
       id="linearGradient4591">
      <stop
         style="stop-color:#e0a186;stop-opacity:1;"
         offset="0"
         id="stop4587" />
      <stop
         style="stop-color:#a65133;stop-opacity:1"
         offset="1"
         id="stop4589" />
    </linearGradient>
    <linearGradient
       inkscape:collect="always"
       id="linearGradient4574">
      <stop
         style="stop-color:#ffe22c;stop-opacity:1"
         offset="0"
         id="stop4570" />
      <stop
         style="stop-color:#f16e03;stop-opacity:1"
         offset="1"
         id="stop4572" />
    </linearGradient>
    <linearGradient
       inkscape:collect="always"
       id="linearGradient4539">
      <stop
         style="stop-color:#221478;stop-opacity:1"
         offset="0"
         id="stop4535" />
      <stop
         style="stop-color:#96daff;stop-opacity:1"
         offset="1"
         id="stop4537" />
    </linearGradient>
    <radialGradient
       inkscape:collect="always"
       xlink:href="#linearGradient4539"
       id="radialGradient4541"
       cx="363.38983"
       cy="208.26465"
       fx="363.38983"
       fy="208.26465"
       r="92.985"
       gradientTransform="matrix(0.40372692,-1.5067294,1.7378992,0.46566195,-123.66888,639.3204)"
       gradientUnits="userSpaceOnUse" />
    <linearGradient
       inkscape:collect="always"
       xlink:href="#linearGradient4574"
       id="linearGradient4576"
       x1="151.93945"
       y1="263.875"
       x2="247.125"
       y2="359.0625"
       gradientUnits="userSpaceOnUse" />
    <linearGradient
       inkscape:collect="always"
       xlink:href="#linearGradient4591"
       id="linearGradient4593"
       x1="157.21875"
       y1="295.5957"
       x2="214.875"
       y2="353.25"
       gradientUnits="userSpaceOnUse" />
  </defs>
  <sodipodi:namedview
     pagecolor="#ffffff"
     bordercolor="#666666"
     borderopacity="1"
     objecttolerance="10"
     gridtolerance="10"
     guidetolerance="10"
     inkscape:pageopacity="0"
     inkscape:pageshadow="2"
     inkscape:window-width="958"
     inkscape:window-height="1008"
     id="namedview10"
     showgrid="false"
     inkscape:zoom="0.35355339"
     inkscape:cx="409.46207"
     inkscape:cy="747.96707"
     inkscape:window-x="953"
     inkscape:window-y="0"
     inkscape:window-maximized="0"
     inkscape:current-layer="svg8" />
  <rect
     fill="#000"
     fill-opacity="1"
     height="512"
     width="512"
     rx="64"
     ry="64"
     id="rect2" />
  <path
     inkscape:connector-curvature="0"
     style="fill:#ffffff;fill-opacity:1"
     d="m 361.3145,36.375 c -61.792,0 -111.876,50.08 -111.876,111.875 0,61.79 50.08,111.875 111.875,111.875 61.79,0 111.905,-50.08 111.905,-111.875 0,-61.79 -50.112,-111.875 -111.906,-111.875 z"
     id="path4525" />
  <path
     inkscape:connector-curvature="0"
     style="fill:url(#radialGradient4541);fill-opacity:1"
     d="m 361.3145,55.25 c 51.36,0 93,41.642 93,93 0,51.362 -41.643,93 -93,93 -51.363,0 -92.97,-41.642 -92.97,-93 0,-33.034 17.208,-62.033 43.156,-78.53 -4.767,5.728 -7.656,13.088 -7.656,21.124 0,18.257 14.806,33.062 33.063,33.062 18.256,0 33.062,-14.805 33.062,-33.062 0,-17.464 -13.562,-31.73 -30.72,-32.938 7.073,-1.72 14.46,-2.656 22.064,-2.656 z"
     id="path4523" />
  <path
     inkscape:connector-curvature="0"
     style="fill:#96daff;fill-opacity:1"
     d="m 298.7815,120.28 c -8.418,0 -15.28,6.825 -15.28,15.25 0,8.42 6.854,15.25 15.28,15.25 8.42,0 15.25,-6.822 15.25,-15.25 0,-8.418 -6.823,-15.25 -15.25,-15.25 z"
     id="path4521" />
  <path
     style="fill:url(#linearGradient4576);fill-opacity:1"
     d="M 222.46875 193.25195 C 221.62271 201.04719 220.12657 208.17079 217.96875 214.65625 L 296.46875 293.15625 C 302.91275 290.98325 309.99175 289.42325 317.71875 288.53125 L 222.46875 193.25195 z M 209.34375 232.4707 C 204.43375 239.8057 198.26575 245.8625 190.84375 250.6875 L 260.43945 320.3125 C 265.28145 312.9025 271.35945 306.7325 278.68945 301.8125 L 209.34375 232.4707 z M 172.90625 259.1875 C 166.50025 261.3235 159.50945 262.904 151.93945 263.875 C 184.48345 295.587 214.483 326.4205 247.125 359.0625 C 248.128 351.5285 249.72 344.5645 251.875 338.1875 L 172.9082 259.1875 L 172.90625 259.1875 z "
     id="path4519" />
  <path
     style="fill:url(#linearGradient4593);fill-opacity:1"
     d="M 157.21875 295.5957 L 38.78125 413.6875 L 38.78125 435.625 L 168.03125 306.4043 L 157.21875 295.5957 z M 181.21875 319.59375 L 38.78125 462.0293 L 38.78125 475.625 L 92.501953 475.625 L 214.875 353.25 L 181.21875 319.59375 z "
     id="path4513" />
</svg>
