<?xml version="1.0" encoding="UTF-8" standalone="no"?>
<svg
   xmlns:dc="http://purl.org/dc/elements/1.1/"
   xmlns:cc="http://creativecommons.org/ns#"
   xmlns:rdf="http://www.w3.org/1999/02/22-rdf-syntax-ns#"
   xmlns:svg="http://www.w3.org/2000/svg"
   xmlns="http://www.w3.org/2000/svg"
   xmlns:xlink="http://www.w3.org/1999/xlink"
   xmlns:sodipodi="http://sodipodi.sourceforge.net/DTD/sodipodi-0.dtd"
   xmlns:inkscape="http://www.inkscape.org/namespaces/inkscape"
   style="height: 45px; width: 45px;"
   viewBox="0 0 512 512"
   version="1.1"
   id="svg8"
   sodipodi:docname="lunar-wand.svg"
   inkscape:version="0.92.1 r15371">
  <metadata
     id="metadata14">
    <rdf:RDF>
      <cc:Work
         rdf:about="">
        <dc:format>image/svg+xml</dc:format>
        <dc:type
           rdf:resource="http://purl.org/dc/dcmitype/StillImage" />
      </cc:Work>
    </rdf:RDF>
  </metadata>
  <defs
     id="defs12">
    <linearGradient
       inkscape:collect="always"
       id="linearGradient4550">
      <stop
         style="stop-color:#fffcdb;stop-opacity:1"
         offset="0"
         id="stop4546" />
      <stop
         style="stop-color:#ffe22c;stop-opacity:1"
         offset="1"
         id="stop4548" />
    </linearGradient>
    <linearGradient
       inkscape:collect="always"
       id="linearGradient4541">
      <stop
         style="stop-color:#fffcdb;stop-opacity:1"
         offset="0"
         id="stop4537" />
      <stop
         style="stop-color:#ffe22c;stop-opacity:1"
         offset="1"
         id="stop4539" />
    </linearGradient>
    <linearGradient
       inkscape:collect="always"
       id="linearGradient4533">
      <stop
         style="stop-color:#88512b;stop-opacity:1"
         offset="0"
         id="stop4529" />
      <stop
         style="stop-color:#452d25;stop-opacity:1"
         offset="1"
         id="stop4531" />
    </linearGradient>
    <linearGradient
       inkscape:collect="always"
       xlink:href="#linearGradient4533"
       id="linearGradient4535"
       x1="121.5918"
       y1="335.47266"
       x2="176.74609"
       y2="390.62695"
       gradientUnits="userSpaceOnUse" />
    <linearGradient
       inkscape:collect="always"
       xlink:href="#linearGradient4541"
       id="linearGradient4543"
       x1="187.37891"
       y1="240.04102"
       x2="272.17773"
       y2="324.8418"
       gradientUnits="userSpaceOnUse" />
    <radialGradient
       inkscape:collect="always"
       xlink:href="#linearGradient4550"
       id="radialGradient4552"
       cx="300.52039"
       cy="163.97089"
       fx="300.52039"
       fy="163.97089"
       r="143"
       gradientUnits="userSpaceOnUse"
       gradientTransform="matrix(0.92715048,-0.06953633,0.07479,0.99719931,9.629383,21.356317)" />
  </defs>
  <sodipodi:namedview
     pagecolor="#ffffff"
     bordercolor="#666666"
     borderopacity="1"
     objecttolerance="10"
     gridtolerance="10"
     guidetolerance="10"
     inkscape:pageopacity="0"
     inkscape:pageshadow="2"
     inkscape:window-width="958"
     inkscape:window-height="1008"
     id="namedview10"
     showgrid="false"
     inkscape:snap-global="false"
     inkscape:zoom="0.1767767"
     inkscape:cx="308.84703"
     inkscape:cy="825.2166"
     inkscape:window-x="953"
     inkscape:window-y="0"
     inkscape:window-maximized="0"
     inkscape:current-layer="svg8" />
  <rect
     fill="#000"
     fill-opacity="1"
     height="512"
     width="512"
     rx="64"
     ry="64"
     id="rect2" />
  <path
     style="fill:url(#radialGradient4552);fill-opacity:1"
     d="M 373 20 C 326.263 20 285.91255 46.806109 266.43555 85.912109 L 206 98 L 254.10938 134.08203 C 254.04237 135.71403 254 137.352 254 139 C 254 159.94 259.3868 179.59202 268.8418 196.66602 L 277.64453 174.6582 L 283.81445 169.26953 L 300.25586 165.16016 C 295.59286 154.36716 293 142.48 293 130 C 293 83.99 328.158 45.984125 373 41.453125 L 414 34 L 373 20 z M 478 114 L 470.54688 139 C 466.01688 183.842 428.009 219 382 219 C 369.52 219 357.63284 216.41014 346.83984 211.74414 L 342.73047 228.18359 L 337.3418 234.35352 L 315.33398 243.1582 C 332.40798 252.6132 352.06 258 373 258 C 374.648 258 376.28597 257.95763 377.91797 257.89062 L 414 306 L 426.08789 245.56445 C 465.19389 226.08745 492 185.737 492 139 L 478 114 z "
     id="path4508" />
  <path
     style="fill:#dafffe;fill-opacity:1"
     d="m 337.63,174.37 -44.984,11.245 -22.492,56.23 56.23,-22.49 z"
     id="path4504" />
  <path
     style="fill:url(#linearGradient4535);fill-opacity:1"
     d="M 252.64453 204.41992 L 236.14258 220.92188 L 252.56836 237.34766 L 260.60547 217.25781 C 257.72879 213.13628 255.06431 208.85339 252.64453 204.41992 z M 294.74414 251.39258 L 274.65234 259.43359 L 291.29688 276.07617 L 307.86523 259.50781 C 303.33171 257.04807 298.95569 254.33022 294.74609 251.39258 L 294.74414 251.39258 z M 189.47266 267.59375 L 168.25977 288.80469 L 223.41406 343.95898 L 244.62695 322.74414 L 189.47266 267.59375 z M 121.5918 335.47266 L 18 439.0625 L 18 494 L 73.373047 494 L 176.74609 390.62695 L 121.5918 335.47266 z "
     id="path4502" />
  <path
     style="fill:url(#linearGradient4543);fill-opacity:1"
     d="M 208.5918 218.82812 C 200.9838 219.34312 196.07481 221.38703 193.00781 224.45703 C 189.93981 227.52403 187.89491 232.43302 187.37891 240.04102 L 272.17773 324.8418 C 279.78573 324.3268 284.69372 322.27794 287.76172 319.21094 C 290.82872 316.14094 292.87658 311.23495 293.39258 303.62695 L 208.5918 218.82812 z M 144.21875 290.21875 L 123.00586 311.43164 L 200.78516 389.21094 L 222 368 L 144.21875 290.21875 z "
     id="path4500" />
</svg>
