<?xml version="1.0" encoding="UTF-8" standalone="no"?>
<svg
   xmlns:dc="http://purl.org/dc/elements/1.1/"
   xmlns:cc="http://creativecommons.org/ns#"
   xmlns:rdf="http://www.w3.org/1999/02/22-rdf-syntax-ns#"
   xmlns:svg="http://www.w3.org/2000/svg"
   xmlns="http://www.w3.org/2000/svg"
   xmlns:xlink="http://www.w3.org/1999/xlink"
   xmlns:sodipodi="http://sodipodi.sourceforge.net/DTD/sodipodi-0.dtd"
   xmlns:inkscape="http://www.inkscape.org/namespaces/inkscape"
   style="height: 45px; width: 45px;"
   viewBox="0 0 512 512"
   version="1.1"
   id="svg8"
   sodipodi:docname="armor-warrior-epic.svg"
   inkscape:version="0.92.4 (5da689c313, 2019-01-14)">
  <metadata
     id="metadata14">
    <rdf:RDF>
      <cc:Work
         rdf:about="">
        <dc:format>image/svg+xml</dc:format>
        <dc:type
           rdf:resource="http://purl.org/dc/dcmitype/StillImage" />
      </cc:Work>
    </rdf:RDF>
  </metadata>
  <defs
     id="defs12">
    <linearGradient
       id="linearGradient4550"
       inkscape:collect="always">
      <stop
         id="stop4538"
         offset="0"
         style="stop-color:#435655;stop-opacity:1" />
      <stop
         style="stop-color:#2c3233;stop-opacity:1"
         offset="0.0738594"
         id="stop4552" />
      <stop
         style="stop-color:#101010;stop-opacity:1"
         offset="0.20371164"
         id="stop4540" />
      <stop
         style="stop-color:#600119;stop-opacity:1"
         offset="0.25371954"
         id="stop4542" />
      <stop
         id="stop4544"
         offset="0.53679979"
         style="stop-color:#101010;stop-opacity:1" />
      <stop
         id="stop4546"
         offset="0.92813665"
         style="stop-color:#2c3233;stop-opacity:1" />
      <stop
         id="stop4548"
         offset="1"
         style="stop-color:#435655;stop-opacity:1" />
    </linearGradient>
    <linearGradient
       inkscape:collect="always"
       xlink:href="#linearGradient4550"
       id="linearGradient4586"
       gradientUnits="userSpaceOnUse"
       x1="187.688"
       y1="69.188004"
       x2="324.34399"
       y2="108.438"
       spreadMethod="repeat" />
    <linearGradient
       inkscape:collect="always"
       xlink:href="#linearGradient4550"
       id="linearGradient4588"
       gradientUnits="userSpaceOnUse"
       x1="23.180304"
       y1="40.464394"
       x2="157.99805"
       y2="133.2793"
       spreadMethod="repeat" />
    <linearGradient
       inkscape:collect="always"
       xlink:href="#linearGradient4550"
       id="linearGradient4590"
       gradientUnits="userSpaceOnUse"
       x1="499.77026"
       y1="56.020744"
       x2="492.9375"
       y2="168.46875"
       spreadMethod="repeat" />
    <linearGradient
       inkscape:collect="always"
       xlink:href="#linearGradient4550"
       id="linearGradient4600"
       gradientUnits="userSpaceOnUse"
       x1="317.21429"
       y1="155.075"
       x2="642.57611"
       y2="349.40698"
       spreadMethod="reflect" />
    <linearGradient
       inkscape:collect="always"
       xlink:href="#linearGradient4550"
       id="linearGradient4602"
       gradientUnits="userSpaceOnUse"
       x1="127.125"
       y1="176.936"
       x2="267.93188"
       y2="263.78751"
       spreadMethod="repeat" />
    <linearGradient
       inkscape:collect="always"
       xlink:href="#linearGradient4550"
       id="linearGradient4604"
       gradientUnits="userSpaceOnUse"
       x1="103.32738"
       y1="314.38309"
       x2="220"
       y2="385.09375"
       spreadMethod="repeat" />
    <linearGradient
       inkscape:collect="always"
       xlink:href="#linearGradient4550"
       id="linearGradient4606"
       gradientUnits="userSpaceOnUse"
       x1="275.12695"
       y1="368.7793"
       x2="714.11627"
       y2="253.888"
       spreadMethod="repeat" />
  </defs>
  <sodipodi:namedview
     pagecolor="#ffffff"
     bordercolor="#666666"
     borderopacity="1"
     objecttolerance="10"
     gridtolerance="10"
     guidetolerance="10"
     inkscape:pageopacity="0"
     inkscape:pageshadow="2"
     inkscape:window-width="2560"
     inkscape:window-height="1377"
     id="namedview10"
     showgrid="false"
     inkscape:zoom="1.4142136"
     inkscape:cx="157.52241"
     inkscape:cy="365.73413"
     inkscape:window-x="1912"
     inkscape:window-y="-8"
     inkscape:window-maximized="1"
     inkscape:current-layer="svg8" />
  <g
     id="g21946"
     transform="matrix(0.96080047,0,0,0.96080047,10.051043,10.401805)">
    <g
       style="fill:none;stroke:#000000;stroke-width:32;stroke-miterlimit:4;stroke-dasharray:none;stroke-opacity:1"
       id="g21921">
      <path
         style="fill:none;fill-opacity:1;stroke:#000000;stroke-width:32;stroke-miterlimit:4;stroke-dasharray:none;stroke-opacity:1"
         d="m 324.344,67.25 c -44.475,19.314 -91.03,25.953 -136.656,1.938 v 39.53 c 45.86,22.493 90.487,21.026 136.656,-0.28 z"
         id="path21907"
         inkscape:connector-curvature="0" />
      <path
         sodipodi:nodetypes="ccccccccccccccccc"
         inkscape:connector-curvature="0"
         id="path21909"
         d="m 133.71875,74.220703 c -6.80931,0.03506 -13.44762,0.37806 -19.875,1 -3.125,24.06 6.117,52.094297 24.625,73.779297 7.23,-4.935 13.7473,-10.2807 19.5293,-15.7207 -6.15,-19.57 -10.293,-38.9158 -11.625,-58.7168 -2.14,-0.095 -4.3235,-0.2705 -6.4375,-0.3125 -2.08135,-0.03999 -4.16247,-0.04128 -6.21485,-0.0293 z M 94.75,78.0625 C 81.052,80.9245 68.72575,85.428297 58.34375,91.654297 L 90.279297,170.2793 c 11.587003,-2.66 22.214953,-6.69305 31.876953,-11.62305 C 102.97625,135.18625 92.664,105.8945 94.75,78.0625 Z m -54.34375,28 c -13.318,14.436 -20.879297,34.40725 -20.529297,62.40625 17.887,4.688 34.461547,6.02555 49.685547,4.93555 C 53.492912,155.29476 43.166567,131.11581 40.40625,106.0625 Z"
         style="fill:none;fill-opacity:1;stroke:#000000;stroke-width:32;stroke-miterlimit:4;stroke-dasharray:none;stroke-opacity:1" />
      <path
         sodipodi:nodetypes="ccccccccccccccccc"
         inkscape:connector-curvature="0"
         id="path21911"
         d="m 379.06055,74.220703 c -2.05338,-0.01199 -4.13345,-0.01069 -6.2168,0.0293 -2.107,0.042 -4.27025,0.2175 -6.40625,0.3125 -1.33,19.8 -5.475,39.148747 -11.625,58.718747 5.783,5.44 12.29925,10.7857 19.53125,15.7207 18.507,-21.685 27.75,-49.721244 24.625,-73.781244 -6.44138,-0.62394 -13.08494,-0.964944 -19.90625,-1 z M 418.0625,78.0625 c -6.39928,24.64802 -8.22625,57.1218 -27.40625,80.5918 9.663,4.93 20.29,8.964 31.875,11.625 L 454.43945,91.625 C 442.19137,85.233303 429.28608,80.466615 418.0625,78.0625 Z m 54.34375,28 c -2.76,25.052 -13.08425,49.2328 -29.15625,67.3418 15.225,1.09 31.7995,-0.24655 49.6875,-4.93555 0.34999,-27.9993 -7.21387,-47.96933 -20.53125,-62.40625 z"
         style="fill:none;fill-opacity:1;stroke:#000000;stroke-width:32;stroke-miterlimit:4;stroke-dasharray:none;stroke-opacity:1" />
      <path
         style="fill:none;fill-opacity:1;stroke:#000000;stroke-width:32;stroke-miterlimit:4;stroke-dasharray:none;stroke-opacity:1"
         d="m 338.686,122.468 -0.873,0.436 c -24.024,11.837 -48.424,18.767 -72.907,20.28 v 214.095 c 73.59,-26.01 122.813,-81.045 122.813,-144.25 0,-13.11 -2.14,-25.886 -6.158,-38.155 -17.663,-9.017 -32.466,-20.5 -44,-32.063 l -4.093,-4.093 1.842,-5.47 c 1.205,-3.623 2.32,-7.217 3.375,-10.78 z"
         id="path21913"
         inkscape:connector-curvature="0" />
      <path
         style="fill:none;fill-opacity:1;stroke:#000000;stroke-width:32;stroke-miterlimit:4;stroke-dasharray:none;stroke-opacity:1"
         d="m 174.25,122.904 c 1.018,3.422 2.094,6.87 3.25,10.344 l 1.813,5.47 -4.063,4.093 c -12.424,12.456 -28.62,24.84 -48.125,34.125 -3.644,11.637 -5.563,23.723 -5.563,36.093 0,63.404 50.45,118.71 124.657,144.595 V 143.28 c -24.095,-1.254 -48.185,-7.88 -71.97,-20.374 z"
         id="path21915"
         inkscape:connector-curvature="0" />
      <path
         id="path21917"
         d="m 157,326.7207 c -5.933,4.816 -11.396,9.827 -16.5,15 22.033,17.485 50.57,35.56605 79.5,43.37305 5.045,-5.72 10.6093,-11.1635 16.7793,-16.3125 z m -29.06445,28.9043 c -6.25,7.537 -11.945,15.36 -17.25,23.375 23.228,18.444 53.698,37.55375 84.25,44.59375 3.68,-7.79 7.9002,-15.35475 12.7832,-22.59375 -30.46,-9.71 -58.19925,-28.08 -79.78125,-45.375 z m -27.21485,39.3125 c -5.852679,9.82254 -11.394974,19.86975 -16.9707,30.03125 28.236,27.185 59.2553,42.2943 95.2793,45.7793 2.33,-10.074 5.1662,-19.99425 8.6582,-29.65625 -33.071,-8.29775 -63.44509,-27.62881 -86.9668,-46.1543 z"
         style="fill:none;fill-opacity:1;stroke:#000000;stroke-width:32;stroke-miterlimit:4;stroke-dasharray:none;stroke-opacity:1"
         inkscape:connector-curvature="0" />
      <path
         id="path21919"
         d="m 354.90625,326.7207 -79.7793,42.0586 c 6.348,5.3 12.0568,10.91345 17.2168,16.81445 29.006,-7.38 57.7345,-25.30175 80.0625,-42.84375 -5.387,-5.534 -11.177,-10.8973 -17.5,-16.0293 z m 30,29.99805 c -21.83,17.33 -49.7575,35.531 -80.3125,44.875 4.804,7.193 8.96675,14.70455 12.59375,22.43555 30.588,-6.498 61.22425,-25.38505 84.78125,-43.87305 -5.26,-8.024 -10.8745,-15.8835 -17.0625,-23.4375 z m 27,39.4375 c -23.8,18.54 -54.345,37.58325 -87.5,45.40625 3.415,9.513 6.1807,19.27555 8.4707,29.18555 36.024,-3.485 67.0433,-18.5943 95.2793,-45.7793 -5.34573,-9.7455 -10.66431,-19.37696 -16.25,-28.8125 z"
         style="fill:none;fill-opacity:1;stroke:#000000;stroke-width:32;stroke-miterlimit:4;stroke-dasharray:none;stroke-opacity:1"
         inkscape:connector-curvature="0" />
    </g>
    <g
       id="g21905">
      <path
         inkscape:connector-curvature="0"
         id="path4584"
         d="m 324.344,67.25 c -44.475,19.314 -91.03,25.953 -136.656,1.938 v 39.53 c 45.86,22.493 90.487,21.026 136.656,-0.28 z"
         style="fill:url(#linearGradient4586);fill-opacity:1" />
      <path
         style="fill:url(#linearGradient4588);fill-opacity:1"
         d="m 133.71875,74.220703 c -6.80931,0.03506 -13.44762,0.37806 -19.875,1 -3.125,24.06 6.117,52.094297 24.625,73.779297 7.23,-4.935 13.7473,-10.2807 19.5293,-15.7207 -6.15,-19.57 -10.293,-38.9158 -11.625,-58.7168 -2.14,-0.095 -4.3235,-0.2705 -6.4375,-0.3125 -2.08135,-0.03999 -4.16247,-0.04128 -6.21485,-0.0293 z M 94.75,78.0625 C 81.052,80.9245 68.72575,85.428297 58.34375,91.654297 58.15075,120.9223 71.36,151.607 91.5,168.875 l -1.220703,1.4043 c 11.587003,-2.66 22.214953,-6.69305 31.876953,-11.62305 C 102.97625,135.18625 92.664,105.8945 94.75,78.0625 Z m -54.34375,28 c -13.318,14.436 -20.879297,34.40725 -20.529297,62.40625 17.887,4.688 34.461547,6.02555 49.685547,4.93555 C 53.492912,155.29476 43.166567,131.11581 40.40625,106.0625 Z"
         id="path4582"
         inkscape:connector-curvature="0" />
      <path
         style="fill:url(#linearGradient4590);fill-opacity:1"
         d="m 379.06055,74.220703 c -2.05338,-0.01199 -4.13345,-0.01069 -6.2168,0.0293 -2.107,0.042 -4.27025,0.2175 -6.40625,0.3125 -1.33,19.8 -5.475,39.14875 -11.625,58.71875 5.783,5.44 12.29925,10.7857 19.53125,15.7207 18.507,-21.685 27.75,-49.721247 24.625,-73.781247 -6.44138,-0.62394 -13.08494,-0.964944 -19.90625,-1 z M 418.0625,78.0625 c 2.086,27.83 -8.22625,57.1218 -27.40625,80.5918 9.663,4.93 20.29,8.964 31.875,11.625 l -1.2168,-1.4043 c 20.146,-17.273 33.33,-47.973 33.125,-77.25 -10.376,-6.215 -22.686,-10.7035 -36.375,-13.5625 z m 54.34375,28 c -2.76,25.052 -13.08425,49.2328 -29.15625,67.3418 15.225,1.09 31.7995,-0.24655 49.6875,-4.93555 0.34999,-27.9993 -7.21387,-47.96933 -20.53125,-62.40625 z"
         id="path4580"
         inkscape:connector-curvature="0" />
      <path
         inkscape:connector-curvature="0"
         id="path4570"
         d="m 338.686,122.468 -0.873,0.436 c -24.024,11.837 -48.424,18.767 -72.907,20.28 v 214.095 c 73.59,-26.01 122.813,-81.045 122.813,-144.25 0,-13.11 -2.14,-25.886 -6.158,-38.155 -17.663,-9.017 -32.466,-20.5 -44,-32.063 l -4.093,-4.093 1.842,-5.47 c 1.205,-3.623 2.32,-7.217 3.375,-10.78 z"
         style="fill:url(#linearGradient4600);fill-opacity:1" />
      <path
         inkscape:connector-curvature="0"
         id="path4568"
         d="m 174.25,122.904 c 1.018,3.422 2.094,6.87 3.25,10.344 l 1.813,5.47 -4.063,4.093 c -12.424,12.456 -28.62,24.84 -48.125,34.125 -3.644,11.637 -5.563,23.723 -5.563,36.093 0,63.404 50.45,118.71 124.657,144.595 V 143.28 c -24.095,-1.254 -48.185,-7.88 -71.97,-20.374 z"
         style="fill:url(#linearGradient4602);fill-opacity:1" />
      <path
         style="fill:url(#linearGradient4604);fill-opacity:1"
         d="m 157,326.7207 c -5.933,4.816 -11.396,9.827 -16.5,15 22.033,17.485 50.57,35.56605 79.5,43.37305 5.045,-5.72 10.6093,-11.1635 16.7793,-16.3125 z m -29.06445,28.9043 c -6.25,7.537 -11.945,15.36 -17.25,23.375 23.228,18.444 53.698,37.55375 84.25,44.59375 3.68,-7.79 7.9002,-15.35475 12.7832,-22.59375 -30.46,-9.71 -58.19925,-28.08 -79.78125,-45.375 z m -27.21485,39.3125 c -5.852679,9.82254 -11.394974,19.86975 -16.9707,30.03125 28.236,27.185 59.2553,42.2943 95.2793,45.7793 2.33,-10.074 5.1662,-19.99425 8.6582,-29.65625 -33.071,-8.29775 -63.44509,-27.62881 -86.9668,-46.1543 z"
         id="path4566"
         inkscape:connector-curvature="0" />
      <path
         style="fill:url(#linearGradient4606);fill-opacity:1"
         d="m 354.90625,326.7207 -79.7793,42.0586 c 6.348,5.3 12.0568,10.91345 17.2168,16.81445 29.006,-7.38 57.7345,-25.30175 80.0625,-42.84375 -5.387,-5.534 -11.177,-10.8973 -17.5,-16.0293 z m 30,29.99805 c -21.83,17.33 -49.7575,35.531 -80.3125,44.875 4.804,7.193 8.96675,14.70455 12.59375,22.43555 30.588,-6.498 61.22425,-25.38505 84.78125,-43.87305 -5.26,-8.024 -10.8745,-15.8835 -17.0625,-23.4375 z m 27,39.4375 c -23.8,18.54 -54.345,37.58325 -87.5,45.40625 3.415,9.513 6.1807,19.27555 8.4707,29.18555 36.024,-3.485 67.0433,-18.5943 95.2793,-45.7793 -5.34573,-9.7455 -10.66431,-19.37696 -16.25,-28.8125 z"
         id="path4564"
         inkscape:connector-curvature="0" />
    </g>
  </g>
</svg>
