<?xml version="1.0" encoding="UTF-8" standalone="no"?>
<svg
   xmlns:dc="http://purl.org/dc/elements/1.1/"
   xmlns:cc="http://creativecommons.org/ns#"
   xmlns:rdf="http://www.w3.org/1999/02/22-rdf-syntax-ns#"
   xmlns:svg="http://www.w3.org/2000/svg"
   xmlns="http://www.w3.org/2000/svg"
   xmlns:sodipodi="http://sodipodi.sourceforge.net/DTD/sodipodi-0.dtd"
   xmlns:inkscape="http://www.inkscape.org/namespaces/inkscape"
   style="height: 45px; width: 45px;"
   viewBox="0 0 512 512"
   version="1.1"
   id="svg8"
   sodipodi:docname="armor-ranger-uncommon.svg"
   inkscape:version="0.92.4 (5da689c313, 2019-01-14)">
  <metadata
     id="metadata14">
    <rdf:RDF>
      <cc:Work
         rdf:about="">
        <dc:format>image/svg+xml</dc:format>
        <dc:type
           rdf:resource="http://purl.org/dc/dcmitype/StillImage" />
      </cc:Work>
    </rdf:RDF>
  </metadata>
  <defs
     id="defs12" />
  <sodipodi:namedview
     pagecolor="#ffffff"
     bordercolor="#666666"
     borderopacity="1"
     objecttolerance="10"
     gridtolerance="10"
     guidetolerance="10"
     inkscape:pageopacity="0"
     inkscape:pageshadow="2"
     inkscape:window-width="2560"
     inkscape:window-height="1377"
     id="namedview10"
     showgrid="false"
     inkscape:zoom="1.4142136"
     inkscape:cx="66.759513"
     inkscape:cy="315.95778"
     inkscape:window-x="1912"
     inkscape:window-y="-8"
     inkscape:window-maximized="1"
     inkscape:current-layer="svg8" />
  <g
     id="g19224"
     transform="matrix(0.95536338,0,0,0.95536338,0.44049091,20.353195)">
    <path
       id="path19197"
       d="m 172.40039,27.630859 c -1.85,0.955 -3.67441,1.912129 -5.47266,2.871094 -3.59648,1.91793 -7.09218,3.842774 -10.49804,5.775391 -3.40586,1.932617 -6.72188,3.872617 -9.95899,5.818359 -4.85566,2.918613 -9.53281,5.851172 -14.07031,8.794922 l -25.55273,3.814453 h -0.002 l -9.464841,1.414063 c 1.868768,0.485002 3.773751,0.953633 5.623051,1.451171 0.1351,0.03635 0.26599,0.07461 0.40039,0.111329 0.79643,0.217564 1.57441,0.446176 2.33593,0.68164 0.39308,0.121705 0.78387,0.244783 1.16407,0.373047 0.29491,0.09933 0.58321,0.200793 0.86914,0.304688 0.46834,0.170475 0.91918,0.350431 1.35937,0.535156 0.19972,0.08365 0.41031,0.161103 0.60352,0.248047 0.0447,0.02013 0.0866,0.04219 0.13086,0.0625 0.40771,0.186666 0.79737,0.382517 1.17187,0.585937 0.0803,0.0437 0.16159,0.08633 0.24024,0.13086 0.40011,0.226113 0.78077,0.461591 1.13476,0.710937 0.23783,0.167768 0.46484,0.342158 0.67969,0.521485 0.0491,0.04096 0.0947,0.0834 0.14258,0.125 0.17194,0.149543 0.33512,0.302935 0.49023,0.460937 0.0503,0.05118 0.10195,0.102188 0.15039,0.154297 0.18709,0.201375 0.36491,0.407329 0.52344,0.623047 -4.2,3 -8.2899,6.020996 -12.29492,9.041015 -4.005001,3.02 -7.925158,6.039063 -11.785158,9.039063 -0.99378,0.156255 -1.968347,0.329017 -2.927734,0.515625 -6.33e-4,1.23e-4 -0.0013,-1.23e-4 -0.002,0 -0.01525,0.003 -0.02968,0.0068 -0.04492,0.0098 -0.941101,0.183633 -1.865429,0.380727 -2.775391,0.591796 -0.05022,0.01165 -0.09831,0.02538 -0.148437,0.03711 -0.855118,0.200088 -1.700012,0.410006 -2.529297,0.632812 -0.254955,0.06847 -0.501291,0.144322 -0.753906,0.214844 -0.62373,0.174207 -1.24747,0.348862 -1.857422,0.535156 -0.382112,0.116654 -0.753925,0.242092 -1.130859,0.363282 -0.449229,0.144499 -0.901609,0.286798 -1.34375,0.4375 -0.412668,0.140587 -0.815911,0.289785 -1.222657,0.435546 -0.432066,0.154914 -0.867309,0.306294 -1.292968,0.466797 -0.444676,0.167586 -0.880353,0.342233 -1.31836,0.515625 -0.324102,0.128367 -0.65205,0.253359 -0.972656,0.384766 -0.569404,0.233266 -1.130493,0.474473 -1.689453,0.716797 -0.202677,0.08791 -0.408005,0.174633 -0.609375,0.263672 -0.570392,0.252087 -1.132907,0.510817 -1.69336,0.771484 -0.190249,0.08853 -0.383098,0.174213 -0.572265,0.263672 -0.61641,0.291374 -1.224458,0.589994 -1.830078,0.890625 -0.09611,0.04773 -0.193208,0.09463 -0.289063,0.142578 -0.938273,0.469146 -1.849617,0.961147 -2.765625,1.449219 -0.593354,0.316275 -1.19582,0.624333 -1.78125,0.947265 -0.93623,0.51626 -1.855758,1.046203 -2.77539,1.576172 -0.435624,0.251104 -0.87789,0.496508 -1.310547,0.75 -1.240249,0.726524 -2.469888,1.461881 -3.69336,2.201172 -0.04337,0.02621 -0.0875,0.05191 -0.130859,0.07813 -6.81e-4,6.18e-4 -0.0013,0.0013 -0.002,0.002 -0.281371,0.170137 -0.566781,0.337354 -0.847656,0.507813 l 0.240234,0.04297 15.039062,2.65625 c -1.204795,0.756725 -2.350033,1.510995 -3.466796,2.263675 -0.371525,0.25051 -0.73137,0.5015 -1.09375,0.75195 -0.799903,0.55256 -1.580081,1.10655 -2.337891,1.66016 -0.313864,0.22946 -0.630467,0.45956 -0.9375,0.68945 -0.99183,0.74206 -1.957,1.48678 -2.882813,2.23633 -0.01564,0.0127 -0.0332,0.0244 -0.04883,0.0371 -1.012562,0.8209 -1.984261,1.6504 -2.927734,2.48633 -0.133484,0.11838 -0.262313,0.23867 -0.394531,0.35742 -0.797553,0.71566 -1.572841,1.44043 -2.328125,2.17187 -0.150972,0.14634 -0.303688,0.2924 -0.453125,0.43946 -2.660729,2.61616 -5.088651,5.35348 -7.416016,8.29101 -0.0078,0.01 -0.01562,0.0194 -0.02344,0.0293 -3.410387,4.30765 -6.623536,9.04498 -10.087891,14.50586 l 27.96875,-1.40039 c 1.735502,1.05054 3.502607,2.10454 4.943359,3.20703 0.0022,0.002 0.0037,0.004 0.0059,0.006 0.990962,0.75896 1.823687,1.54061 2.359375,2.36523 0.125875,0.19377 0.230811,0.39126 0.322265,0.58985 0.01184,0.0261 0.02394,0.052 0.03516,0.0781 0.07475,0.17183 0.131373,0.34572 0.177734,0.52149 0.01134,0.0438 0.02566,0.0868 0.03516,0.13086 0.03512,0.15943 0.05072,0.32145 0.06055,0.48437 0.0033,0.058 0.01366,0.11541 0.01367,0.17383 5.31e-4,0.21171 -0.01685,0.42649 -0.0625,0.64453 -0.371006,0.80969 -0.697155,1.58701 -0.994141,2.34375 -2.160512,5.50514 -2.503769,9.75639 -2.996093,14.85547 L 80.849609,155 c 10.11,9 12.60125,23.10039 17.28125,35.40039 11.370001,-6 22.968751,-11.90039 29.968751,-19.90039 L 118,189.59961 c 21.81856,-10.56684 30.16238,-20.66642 46.90234,-35.05273 0.36938,-0.31745 0.71985,-0.62559 1.09766,-0.94727 -0.175,2.0625 -0.34142,4.1211 -0.49805,6.17773 -5e-5,6.5e-4 5e-5,10e-4 0,0.002 -0.15657,2.05598 -0.30436,4.10926 -0.44336,6.16015 -0.27818,4.10378 -0.52184,8.19701 -0.73437,12.28516 -0.425,8.175 -0.72383,16.32461 -0.92383,24.47461 -0.78443,1.29032 -1.52763,2.57979 -2.25,3.86719 -0.22459,0.40016 -0.43949,0.7993 -0.6582,1.19921 -0.49468,0.90481 -0.9765,1.80922 -1.44141,2.7129 -0.23228,0.45128 -0.46252,0.90247 -0.6875,1.35351 -0.44723,0.89713 -0.87623,1.79316 -1.29492,2.68945 -0.19117,0.40892 -0.39086,0.8178 -0.57617,1.22657 -0.54964,1.21343 -1.07726,2.42816 -1.57617,3.64062 -0.20493,0.4975 -0.39134,0.9948 -0.5879,1.49219 -0.30714,0.77812 -0.61149,1.55603 -0.89843,2.33398 -0.21805,0.59042 -0.42427,1.18111 -0.63086,1.77149 -0.22453,0.64252 -0.44315,1.28518 -0.6543,1.92773 -0.2226,0.67638 -0.44238,1.35282 -0.65039,2.0293 -0.16451,0.53588 -0.31717,1.07143 -0.47266,1.60742 -0.5235,1.80159 -1.00726,3.60436 -1.43164,5.4082 -0.20999,0.89261 -0.39745,1.78625 -0.58398,2.67969 -0.0648,0.31118 -0.13328,0.6223 -0.19531,0.9336 -0.18486,0.9257 -0.35517,1.85243 -0.51563,2.77929 -0.0368,0.21282 -0.0719,0.42579 -0.10742,0.63867 -0.71983,4.30763 -1.18387,8.6302 -1.41602,12.97657 -8e-4,0.015 -0.003,0.0299 -0.004,0.0449 1e-4,0.002 -1e-4,0.004 0,0.006 -0.25928,4.89214 -0.24524,9.81404 0.0332,14.7832 5.27098,-6.03767 10.63348,-17.30136 15.91211,-13.47656 10e-4,8.6e-4 0.003,10e-4 0.004,0.002 0.22826,0.16557 0.45566,0.35043 0.68359,0.57422 0,4.3 0.19883,8.59883 0.29883,12.79883 -0.22472,0.12484 -0.4455,0.25931 -0.66211,0.40039 -0.20825,0.13564 -0.41219,0.27779 -0.61328,0.42773 -0.25887,0.19241 -0.50225,0.41623 -0.75,0.63086 -0.1396,0.12141 -0.28566,0.22927 -0.42188,0.35742 -0.32209,0.30183 -0.63114,0.63163 -0.93554,0.96876 -0.0545,0.0605 -0.11207,0.11419 -0.16602,0.17578 -0.34452,0.3922 -0.67797,0.8071 -1.00195,1.24023 -0.006,0.008 -0.012,0.014 -0.0176,0.0215 -4.17388,5.59437 -6.74382,14.37984 -10.23047,21.27734 5.1,-2.9 5.09883,-6.69922 15.29883,-8.69922 0.5,12.1 1.10078,24.30039 1.80078,36.40039 22.2,4.6 44.4,6.9 67,7.5 11.7,3.6 18.99961,8.89922 25.09961,14.69922 l 1.20117,-14.69922 C 275.40078,329.10039 288.6,335.2 304.5,340 l 19.30078,-14.30078 c 4.2,-0.6 8.49883,-1.19883 12.79883,-1.79883 l -1.90039,13.19922 8.20117,-14.19922 c 3.1,-0.5 6.20039,-1 9.40039,-1.5 0.3,-3.8 0.69961,-7.7 1.09961,-11.5 l 17.69922,12.79883 -6.10156,-18.41211 -5.19727,-15.6875 6.70313,6.22851 4.5957,4.27149 -8.78516,-22.16406 -4.41406,-11.13477 c 0.22523,-2.20722 0.42687,-4.40714 0.61914,-6.60156 0.14197,-1.61006 0.27658,-3.2041 0.41016,-4.80078 0.0892,-1.0657 0.18144,-2.14216 0.26953,-3.19922 l 13.40039,14.10156 c -0.84206,-5.25889 -1.61966,-10.82781 -2.37695,-16.50195 -2.16605,-16.2294 -4.08343,-33.72101 -6.23047,-50.34375 -0.20347,-1.57896 -0.41097,-3.1482 -0.61914,-4.70899 -0.20138,-1.50643 -0.40284,-3.01002 -0.60938,-4.49609 -0.38018,-2.74134 -0.77238,-5.43242 -1.17383,-8.08789 -0.15392,-1.01636 -0.30537,-2.04131 -0.46289,-3.04297 -0.10081,-0.6421 -0.20425,-1.27648 -0.30664,-1.91211 -0.20809,-1.29003 -0.41978,-2.56463 -0.63476,-3.82617 -0.12165,-0.71467 -0.24318,-1.42994 -0.36719,-2.13477 -0.23753,-1.34862 -0.48177,-2.67026 -0.72852,-3.98047 -0.0992,-0.52744 -0.19603,-1.06513 -0.29687,-1.58593 -0.35513,-1.83301 -0.71771,-3.63383 -1.09375,-5.37891 l 2.76953,0.7793 13.23047,3.7207 27.70117,24.29883 -4,-17.5 c 0.005,9e-4 0.009,10e-4 0.0137,0.002 1.14985,0.22428 2.25205,0.47402 3.35156,0.72461 10.17735,2.31953 18.41979,5.74393 28.4336,10.07422 12,-20.3 7.50117,-34.40039 36.70117,-40.90039 l -2.81836,-13.32031 -3.38281,-15.98047 c 0.38645,-0.27708 0.79021,-0.53779 1.20312,-0.78906 0.0733,-0.045 0.14864,-0.0885 0.22266,-0.13282 0.39169,-0.23219 0.78992,-0.45717 1.19922,-0.67187 5.05386,-2.65114 11.44807,-3.94436 16.77539,-5.80469 -6.0779,-1.72269 -11.91992,-4.252309 -17.88281,-7.578124 -1.17535,-0.655552 -2.35549,-1.348815 -3.54297,-2.066406 -0.28575,-0.172685 -0.57468,-0.354972 -0.86133,-0.53125 -0.91627,-0.563431 -1.83657,-1.142085 -2.76367,-1.742188 -0.3181,-0.205906 -0.63746,-0.414776 -0.95703,-0.625 -0.89936,-0.591602 -1.8062,-1.202357 -2.71875,-1.828124 -0.34779,-0.238504 -0.69305,-0.47138 -1.04297,-0.714844 -1.19413,-0.830753 -2.39688,-1.681823 -3.61914,-2.570313 -0.002,-0.0014 -0.004,-0.0025 -0.006,-0.0039 -0.0184,-0.01339 -0.0363,-0.02566 -0.0547,-0.03906 -1.23403,-0.897623 -2.48803,-1.830724 -3.75586,-2.787109 -0.38997,-0.294191 -0.78621,-0.600645 -1.17969,-0.900391 -0.86817,-0.661309 -1.74443,-1.333133 -2.63086,-2.021484 -0.54167,-0.420668 -1.08579,-0.846588 -1.63476,-1.277344 -0.521,-0.408775 -1.0522,-0.830182 -1.58008,-1.248046 -2.10362,-1.665266 -4.24357,-3.378141 -6.46875,-5.1875 l 10.19922,-5.689454 c -1.025,-0.27875 -2.09258,-0.479316 -3.18945,-0.625 -3.83845,-0.50981 -8.04044,-0.353506 -12.07032,-0.580078 -6.5e-4,-3.6e-5 -10e-4,3.7e-5 -0.002,0 -1.72668,-0.09713 -3.42166,-0.266139 -5.04297,-0.585937 -6.3e-4,-1.24e-4 -0.001,1.24e-4 -0.002,0 -0.54,-0.106556 -1.07168,-0.229601 -1.59375,-0.373047 -6e-4,-1.66e-4 -0.001,1.65e-4 -0.002,0 -0.52206,-0.143494 -1.03415,-0.307661 -1.53516,-0.494141 -5.6e-4,-2.09e-4 -10e-4,2.1e-4 -0.002,0 -0.501,-0.186538 -0.98996,-0.397191 -1.4668,-0.632812 -5.1e-4,-2.51e-4 -10e-4,2.5e-4 -0.002,0 -0.47735,-0.235945 -0.94063,-0.497813 -1.39063,-0.789063 l 18.71875,-10.878906 4.58008,-2.662109 c -0.79566,-0.335314 -12.05508,-0.72832 -23.15234,-0.375 -1.98182,0.0631 -3.94462,0.153972 -5.85547,0.269531 -0.19988,0.01205 -0.4032,0.02053 -0.60157,0.0332 -0.50947,0.03265 -0.99819,0.07244 -1.49609,0.109375 -0.56693,0.04192 -1.131,0.08316 -1.67969,0.130859 -0.49082,0.0428 -0.96196,0.09104 -1.43554,0.138672 -0.54753,0.05491 -1.08063,0.112186 -1.60157,0.173828 -0.4099,0.04862 -0.80986,0.09939 -1.20117,0.152344 -0.56193,0.07588 -1.0924,0.157008 -1.61133,0.242188 -0.317,0.05211 -0.6382,0.1025 -0.9375,0.158203 -0.54583,0.101453 -1.04046,0.214235 -1.52148,0.328125 -0.24309,0.05761 -0.51126,0.110989 -0.73633,0.171875 -0.20588,0.05565 -0.40178,0.11146 -0.5918,0.169922 -0.0916,0.02821 -0.18951,0.05511 -0.27734,0.08398 -0.28664,0.0942 -0.55676,0.191539 -0.80078,0.292969 -3.825,-2.0675 -7.74297,-4.107735 -11.77734,-6.115235 -4.03427,-2.007346 -8.18531,-3.981767 -12.47266,-5.914062 -4.28697,-1.932262 -8.71115,-3.823731 -13.29492,-5.666016 -5.6e-4,-2.23e-4 -0.001,2.23e-4 -0.002,0 -4.58437,-1.8425 -9.32695,-3.635547 -14.25195,-5.373047 -9.3,6.8 -11.50117,10.508985 -21.20117,15.208985 L 313.5,32.980469 c -0.58125,1.644375 -1.25696,3.244763 -2.02344,4.779297 -2.6e-4,5.24e-4 2.6e-4,0.0014 0,0.002 -0.51077,1.022475 -1.06275,2.014805 -1.65234,2.970703 -2.9e-4,4.76e-4 2.9e-4,0.0015 0,0.002 -1.7695,2.868571 -3.88814,5.405557 -6.31836,7.417969 -0.81021,0.670913 -1.65503,1.282837 -2.5332,1.830078 -1.31726,0.820862 -2.70938,1.495547 -4.17188,1.998047 0.27304,-1.081902 0.6162,-2.327669 0.9668,-3.583985 0.16297,-0.581326 0.32499,-1.161137 0.5,-1.769531 0.0715,-0.248984 0.14433,-0.496042 0.2168,-0.746094 0.43718,-1.506771 0.88791,-3.016613 1.33203,-4.492187 0.66104,-2.182563 1.33032,-4.364697 1.72656,-5.632813 0.014,-0.04482 0.047,-0.156063 0.0605,-0.199218 0.22389,-0.716191 0.79687,-2.576172 0.79687,-2.576172 -1.2496,1.391451 -2.4429,2.78932 -3.63086,4.1875 -0.57077,0.671781 -1.14234,1.342131 -1.71484,2.013672 -0.88203,1.034609 -1.77207,2.069082 -2.68946,3.099609 -0.85669,0.962354 -1.74458,1.921749 -2.66406,2.876953 -0.65884,0.684272 -1.33636,1.365848 -2.04101,2.044922 -0.33283,0.320822 -0.67072,0.641485 -1.01563,0.960937 -0.11891,0.110105 -0.23502,0.220147 -0.35547,0.330079 -0.5221,0.476669 -1.05602,0.950694 -1.60937,1.423828 -0.55608,0.475459 -1.13294,0.948487 -1.72461,1.419922 -0.13053,0.103983 -0.26802,0.206773 -0.40039,0.310547 -0.44641,0.350008 -0.90253,0.699369 -1.3711,1.046874 -0.2156,0.159875 -0.4357,0.3192 -0.65625,0.478516 -0.41472,0.299634 -0.83843,0.596966 -1.27148,0.894531 -0.23956,0.164594 -0.47919,0.330209 -0.72461,0.494141 -0.44899,0.299931 -0.91332,0.598866 -1.38281,0.896484 -0.24676,0.156416 -0.48758,0.313 -0.74024,0.46875 -0.71358,0.439928 -1.44587,0.878161 -2.20898,1.3125 -1.1125,0.181875 -2.22813,0.347046 -3.34766,0.496094 -1.09608,0.14586 -2.196,0.276762 -3.29883,0.390625 -0.005,5.4e-4 -0.0104,0.0014 -0.0156,0.002 -0.58031,0.05983 -1.16391,0.101467 -1.74609,0.152344 -0.54816,0.04798 -1.09473,0.104539 -1.64454,0.144531 -0.90734,0.06585 -1.81861,0.11238 -2.73046,0.15625 -0.19766,0.0095 -0.39393,0.02669 -0.5918,0.03516 -0.004,1.67e-4 -0.008,-1.68e-4 -0.0117,0 -0.93036,0.03973 -1.86378,0.06155 -2.79883,0.07812 -0.19493,0.0035 -0.38885,0.01314 -0.58398,0.01563 -0.01,1.21e-4 -0.0196,-1.2e-4 -0.0293,0 -1.12556,0.01378 -2.25439,0.01043 -3.38672,-0.0098 -2.27328,-0.04055 -4.56077,-0.149756 -6.86133,-0.330078 -0.0111,-8.7e-4 -0.0221,-0.0011 -0.0332,-0.002 -0.001,-1.02e-4 -0.003,1.02e-4 -0.004,0 -1.15461,-0.09088 -2.31312,-0.199382 -3.47461,-0.326172 -1.16277,-0.126932 -2.32838,-0.27215 -3.49804,-0.435547 -3.50899,-0.490192 -7.05019,-1.145754 -10.6211,-1.972656 -1.1903,-0.275634 -2.38289,-0.570773 -3.58007,-0.884766 -1.19718,-0.313993 -2.39751,-0.647175 -3.60157,-1 -1.20405,-0.352825 -2.41211,-0.725057 -3.62304,-1.117188 -0.20614,-0.06675 -0.41086,-0.125458 -0.61719,-0.193359 -0.35715,1.491618 -0.537,2.947982 -0.59766,4.378906 -0.0543,1.281389 -10e-4,2.540035 0.12305,3.785157 0.0382,0.385962 0.0908,0.769125 0.14258,1.152343 0.0732,0.537814 0.15389,1.074194 0.25,1.607422 0.0846,0.47199 0.17037,0.942999 0.26953,1.41211 0.0795,0.37455 0.16692,0.747996 0.25391,1.121093 0.0908,0.390977 0.18214,0.782113 0.27929,1.171875 0.0784,0.313239 0.15691,0.626769 0.23828,0.939453 0.36978,1.425219 0.76319,2.846115 1.14063,4.271485 -0.80055,-0.381512 -1.55372,-0.779991 -2.26563,-1.195313 -0.13483,-0.07865 -0.26076,-0.16043 -0.39257,-0.240234 -0.56372,-0.341292 -1.10637,-0.689313 -1.61719,-1.050781 -0.31592,-0.22355 -0.62107,-0.450832 -0.91797,-0.681641 -0.29548,-0.229649 -0.58182,-0.462728 -0.85938,-0.699219 -7.1e-4,-6.1e-4 -0.001,-0.0013 -0.002,-0.002 -0.5564,-0.474187 -1.07656,-0.961337 -1.56641,-1.460937 -0.48984,-0.4996 -0.94829,-1.010973 -1.3789,-1.533203 -0.43098,-0.522677 -0.83391,-1.055099 -1.21289,-1.597657 -0.37819,-0.541334 -0.73268,-1.092036 -1.06641,-1.65039 -4.5e-4,-7.63e-4 -0.001,-0.0012 -0.002,-0.002 -0.33413,-0.559144 -0.64649,-1.125794 -0.94336,-1.699219 -2.375,-4.5875 -3.67539,-9.58711 -5.77539,-14.287109 -1.28801,-0.590236 -2.57956,-1.201038 -3.87695,-1.835938 -1.29685,-0.634597 -2.59811,-1.292946 -3.9043,-1.972656 -6.53081,-3.3986 -13.17821,-7.364743 -19.94336,-11.929688 -4.4e-4,-2.96e-4 -0.002,2.97e-4 -0.002,0 -1.42817,-0.971013 -2.86923,-1.962482 -4.07202,-2.810516 z"
       style="fill:#fffcdb;fill-opacity:1;stroke:#000000;stroke-width:32;stroke-miterlimit:4;stroke-dasharray:none;stroke-opacity:1"
       inkscape:connector-curvature="0"
       sodipodi:nodetypes="ccssccccccccccccccccccccscccccccccccccccccccccccccccccccccccccccccccccccccccccccsccccccccccsccccccccccccccccccccccccccccccccccccccccccccccccccccccccccccccccccccccccccccscccccccccccccccccccccccccccccccccccccccsccccccccccccccccccccccccccccccccccccccccccccccccccccccccccccccccccccssscccccccccccccccccccccccccccccc" />
    <path
       id="path19199"
       d="m 364.09961,357.5 c -2.6625,0.66875 -5.33091,1.32739 -8.00586,1.97266 -2.67495,0.64526 -5.35723,1.27793 -8.04297,1.89648 -16.11385,3.71115 -32.40805,6.9122 -48.70117,9.25586 -5.43125,0.78123 -10.8625,1.46721 -16.28711,2.04492 -2.7123,0.28887 -5.42271,0.55005 -8.13086,0.7832 -5.41631,0.46629 -10.82314,0.81887 -16.21289,1.04297 -4.04231,0.16809 -8.07487,0.26404 -12.0957,0.28321 -2.68056,0.0128 -5.35646,-0.009 -8.02539,-0.0664 -1.33447,-0.0287 -2.6668,-0.0664 -3.99805,-0.11328 L 253.5,387.80078 205.90039,372.09961 c -2.21186,-0.32491 -4.4184,-0.67904 -6.61719,-1.06445 -6.3e-4,-1.1e-4 -0.001,1.1e-4 -0.002,0 -3.29847,-0.57822 -6.58193,-1.2263 -9.84766,-1.94727 -6.2e-4,-1.4e-4 -0.001,1.4e-4 -0.002,0 -5.44336,-1.20177 -10.83799,-2.60863 -16.17578,-4.23633 -5.9e-4,-1.8e-4 -0.001,1.8e-4 -0.002,0 -3.20245,-0.97658 -6.3838,-2.03339 -9.54297,-3.17383 -5.8e-4,-2e-4 -0.001,2.1e-4 -0.002,0 -1.05267,-0.38001 -2.10281,-0.76917 -3.15039,-1.16796 -5.6e-4,-2.2e-4 -0.001,2.1e-4 -0.002,0 -1.04758,-0.39881 -2.09243,-0.80869 -3.13476,-1.22657 -5.6e-4,-2.2e-4 -0.001,2.3e-4 -0.002,0 -1.04289,-0.41811 -2.08164,-0.8457 -3.11914,-1.2832 -0.21722,0.31839 -0.44832,0.63264 -0.6875,0.94336 -0.0629,0.0817 -0.13097,0.16104 -0.19531,0.24219 -0.16071,0.2027 -0.32448,0.40401 -0.49414,0.60351 -0.41114,0.48329 -0.84981,0.95677 -1.31055,1.42188 -0.0801,0.0808 -0.1607,0.16186 -0.24219,0.24218 -0.47032,0.46341 -0.9595,0.91904 -1.47461,1.36524 -0.0738,0.0639 -0.15191,0.12585 -0.22656,0.18945 -0.37927,0.32297 -0.77902,0.63878 -1.17969,0.95313 -0.38329,0.3009 -0.77635,0.59729 -1.17773,0.89062 -0.32443,0.23696 -0.649,0.47288 -0.98438,0.70508 -0.40747,0.28228 -0.82762,0.55846 -1.25,0.83398 -0.33606,0.21912 -0.66702,0.44125 -1.01171,0.65626 -0.44175,0.27565 -0.8989,0.54331 -1.35352,0.8125 -0.36048,0.21336 -0.71235,0.43114 -1.08008,0.64062 -0.75851,0.43209 -1.53184,0.85685 -2.3164,1.27344 -8.21629,4.3627 -17.68696,7.91086 -24.7168,11.42578 l 18.33594,-0.89844 8.16406,-0.40039 c -0.42523,1.02709 -0.8815,2.03646 -1.35938,3.0332 -0.14681,0.30631 -0.30749,0.60459 -0.45898,0.90821 -0.3459,0.69299 -0.6933,1.38478 -1.0625,2.06445 -0.18004,0.33162 -0.3733,0.65575 -0.55859,0.98437 -0.35908,0.63647 -0.71983,1.27261 -1.09766,1.89844 -0.19898,0.32982 -0.40547,0.65539 -0.60938,0.98242 -0.39693,0.63621 -0.79645,1.27012 -1.21093,1.89649 -0.18088,0.27353 -0.36676,0.54463 -0.55078,0.81641 -0.46269,0.68285 -0.93282,1.36256 -1.41407,2.03515 -0.14799,0.20697 -0.29762,0.41307 -0.44726,0.61914 -0.54264,0.74682 -1.09375,1.48858 -1.65625,2.22461 -0.10342,0.1354 -0.20651,0.27119 -0.31055,0.40625 -0.60312,0.78257 -1.21583,1.55947 -1.83789,2.33203 -0.0889,0.11041 -0.1764,0.22181 -0.26562,0.33203 -0.69123,0.8537 -1.39181,1.70256 -2.10157,2.54688 -5.06,6.01934 -10.5342,11.83517 -15.6582,17.91992 0,0 10.59961,-2.50078 17.09961,-4.30078 27.3,15 56.10039,29.00117 67.90039,52.70117 42.8,22.9 81.79922,16.59883 119.69922,1.79883 7.1,-11.9 15.70156,-22.70039 26.60156,-31.90039 22.1,-5.9 29.59844,-1.99883 40.39844,-0.29883 -5.7,-5 -6.29844,-11.8 -17.39844,-15 1.01693,-0.52729 2.05761,-1.035 3.09961,-1.54101 0.008,-0.004 0.0156,-0.008 0.0234,-0.0117 1.35958,-0.65993 2.74366,-1.29974 4.14648,-1.92383 0.0952,-0.0423 0.18784,-0.0868 0.28321,-0.12891 1.46423,-0.64746 2.95147,-1.27503 4.46484,-1.88281 7.64172,-3.06896 15.90101,-5.64559 24.88086,-7.71289 -2.25899,-4.07872 -4.61223,-8.15302 -7.07813,-12.20703 -0.67855,-1.11556 -1.36155,-2.23049 -2.06054,-3.3418 -0.80456,-1.28664 -1.6218,-2.57092 -2.46094,-3.84961 l 10.30469,3.0957 11.99641,3.6035 c -5.76051,-3.51539 -11.12146,-7.12895 -16.18164,-10.875 -0.012,-0.009 -0.0231,-0.0184 -0.0352,-0.0273 -1.49619,-1.10814 -2.9673,-2.22673 -4.41211,-3.35938 -1.37946,-1.08143 -2.73185,-2.17763 -4.06836,-3.2832 -0.14327,-0.11856 -0.28687,-0.23662 -0.42968,-0.35547 -2.66496,-2.21713 -5.24831,-4.48547 -7.76563,-6.81055 -0.20202,-0.18668 -0.40234,-0.37507 -0.60351,-0.5625 -1.08015,-1.00584 -2.14788,-2.02282 -3.20508,-3.05078 -0.16404,-0.15957 -0.33062,-0.31644 -0.49414,-0.47656 -1.17306,-1.14816 -2.3322,-2.31103 -3.48047,-3.48828 -0.25202,-0.25847 -0.50103,-0.52133 -0.75195,-0.78125 -0.87326,-0.90424 -1.74063,-1.81803 -2.60157,-2.74024 -0.35877,-0.38439 -0.71739,-0.76865 -1.07421,-1.15625 -1.07285,-1.16512 -2.14015,-2.33819 -3.19727,-3.5332 z"
       style="fill:#fffcdb;fill-opacity:1;stroke:#000000;stroke-width:32;stroke-miterlimit:4;stroke-dasharray:none;stroke-opacity:1"
       inkscape:connector-curvature="0" />
    <g
       transform="translate(7.8e-4,-7.8e-4)"
       id="g19195">
      <path
         inkscape:connector-curvature="0"
         style="fill:#fffcdb;fill-opacity:1"
         d="m 172.4,27.63 c -14.8,7.64 -27.9,15.41 -40,23.26 l -35.02,5.23 c 6.82,1.77 14.22,3.27 17.02,7.08 -8.4,6 -16.36,12.08 -24.08,18.08 -15.9,2.5 -27.27,9 -38.31,15.7 l 15.28,2.7 C 50.7,110.1 42.85,119.9 32.89,135.6 l 27.97,-1.4 c 4.13,2.5 8.56,5 7.89,8.2 -3.07,6.7 -3.43,11.4 -3.99,17.2 L 80.85,155 c 10.11,9 12.6,23.1 17.28,35.4 11.37,-6 22.97,-11.9 29.97,-19.9 L 118,189.6 c 22.3,-10.8 30.5,-21.1 48,-36 -1.4,16.5 -2.2,32.8 -2.6,49.1 -13.8,22.7 -17.9,44.9 -16.6,68.1 5.5,-6.3 11.1,-18.3 16.6,-12.9 0,4.3 0.2,8.6 0.3,12.8 -7.2,4 -10.2,16.4 -14.8,25.5 5.1,-2.9 5.1,-6.7 15.3,-8.7 0.5,12.1 1.1,24.3 1.8,36.4 22.2,4.6 44.4,6.9 67,7.5 11.7,3.6 19,8.9 25.1,14.7 l 1.2,-14.7 c 16.1,-2.3 29.3,3.8 45.2,8.6 l 19.3,-14.3 c 4.2,-0.6 8.5,-1.2 12.8,-1.8 l -1.9,13.2 8.2,-14.2 c 3.1,-0.5 6.2,-1 9.4,-1.5 0.3,-3.8 0.7,-7.7 1.1,-11.5 l 17.7,12.8 -11.3,-34.1 11.3,10.5 -13.2,-33.3 c 0.5,-4.9 0.9,-9.8 1.3,-14.6 l 13.4,14.1 c -5.3,-33.1 -8.5,-76.3 -14.9,-106 l 16,4.5 27.7,24.3 -4,-17.5 c 11.8,2.3 20.7,6 31.8,10.8 12,-20.3 7.5,-34.4 36.7,-40.9 l -6.2,-29.3 c 5.3,-3.8 13.1,-5.2 19.4,-7.4 -16.3,-4.62 -30.9,-15.02 -50.7,-31.12 l 10.2,-5.69 c -8.2,-2.23 -19.1,0.58 -26.3,-4.08 L 435.6,49.37 C 434.2,48.78 400.4,48 392.1,51.45 376.8,43.18 360,35.33 340.3,28.38 331,35.18 328.8,38.89 319.1,43.59 l -5.6,-10.61 c -3.1,8.77 -8.9,16.32 -16.7,19 1.6,-6.34 5.6,-19 5.6,-19 -7.4,8.24 -12.9,16.69 -26.2,24.26 -17.8,2.91 -36.5,1.65 -56.1,-4.8 -1.7,7.1 0.4,13.42 2.1,19.84 -12.8,-6.1 -13.8,-16.7 -18,-26.1 -10.3,-4.72 -20.9,-10.86 -31.8,-18.55 z"
         id="path4494" />
      <path
         inkscape:connector-curvature="0"
         style="fill:#fffcdb;fill-opacity:1"
         d="m 364.1,357.5 c -42.6,10.7 -86.9,18.6 -129.5,17.1 l 18.9,13.2 -47.6,-15.7 c -17.7,-2.6 -35,-7.1 -51.6,-14.1 -7.3,10.7 -27.3,17 -39.7,23.2 l 26.5,-1.3 c -6.5,15.7 -19.4,27.7 -30.6,41 0,0 10.6,-2.5 17.1,-4.3 27.3,15 56.1,29 67.9,52.7 42.8,22.9 81.8,16.6 119.7,1.8 7.1,-11.9 15.7,-22.7 26.6,-31.9 22.1,-5.9 29.6,-2 40.4,-0.3 -5.7,-5 -6.3,-11.8 -17.4,-15 10.8,-5.6 23,-10 36.9,-13.2 -3.6,-6.5 -7.4,-13 -11.6,-19.4 l 22.3,6.7 c -19.5,-11.9 -34.5,-24.9 -48.3,-40.5 z"
         id="path4" />
      <path
         inkscape:connector-curvature="0"
         style="fill:#f16e03;fill-opacity:1"
         d="m 172.40039,27.630859 c -14.8,7.64 -27.9,15.409766 -40,23.259766 l -25.55273,3.814453 c -1.28944,0.954601 -2.5725,1.909704 -3.84375,2.865234 4.89963,1.31821 9.36372,2.862896 11.39648,5.628907 -8.4,6 -16.360078,12.080078 -24.080078,18.080078 C 74.82593,83.71552 63.63681,89.953978 52.859375,96.470703 52.656235,96.654992 52.450256,96.838166 52.25,97.023438 l 15.039062,2.65625 C 56.469508,106.47533 49.372971,113.01694 42.978516,121.09375 l 17.880859,-0.89453 c 4.13,2.5 8.560625,5.00117 7.890625,8.20117 -1.547871,3.37809 -2.404236,6.24728 -2.947266,9.00586 1.987828,1.52112 3.33572,3.13884 2.947266,4.99414 -0.371006,0.80969 -0.697155,1.58701 -0.994141,2.34375 L 80.849609,141 c 10.11,9 12.60125,23.10039 17.28125,35.40039 11.370001,-6 22.968751,-11.90039 29.968751,-19.90039 L 118,175.59961 c 22.3,-10.8 30.5,-21.1 48,-36 -0.42424,4.99999 -0.77804,9.97844 -1.09766,14.94727 0.36938,-0.31745 0.71985,-0.62559 1.09766,-0.94727 -1.4,16.5 -2.19961,32.79961 -2.59961,49.09961 -10.84303,17.836 -15.68084,35.36624 -16.63281,53.3125 0.0134,0.26339 0.0184,0.52542 0.0332,0.78906 5.5,-6.3 11.09961,-18.30039 16.59961,-12.90039 0,4.3 0.19883,8.59883 0.29883,12.79883 -0.33898,0.18832 -0.66536,0.40066 -0.98633,0.625 0.22935,0.16618 0.45848,0.35131 0.6875,0.57617 0,4.3 0.19883,8.59883 0.29883,12.79883 -1.74264,0.96813 -3.23556,2.43626 -4.56836,4.22266 1.35893,-0.53259 2.99508,-1.01535 5.06836,-1.42188 0.5,12.1 1.10078,24.30039 1.80078,36.40039 22.2,4.6 44.4,6.9 67,7.5 11.7,3.6 18.99961,8.89922 25.09961,14.69922 l 1.20117,-14.69922 C 275.40078,315.10039 288.6,321.2 304.5,326 l 19.30078,-14.30078 c 4.2,-0.6 8.49883,-1.19883 12.79883,-1.79883 l -1.90039,13.19922 8.20117,-14.19922 c 3.1,-0.5 6.20039,-1 9.40039,-1.5 0.3,-3.8 0.69961,-7.7 1.09961,-11.5 l 11.59766,8.38672 -5.19727,-15.6875 6.70313,6.22851 -6.70313,-20.22851 2.51367,2.33594 -4.41406,-11.13477 c 0.38989,-3.82091 0.7136,-7.62885 1.0293,-11.40234 l -1.0293,-2.59766 c 0.5,-4.9 0.89883,-9.80156 1.29883,-14.60156 l 11.02344,11.59961 c -4.0092,-30.03949 -7.14027,-64.51675 -12.52344,-89.49805 l 2.76953,0.7793 c -0.86065,-5.1846 -1.77396,-10.15922 -2.76953,-14.7793 l 16,4.5 23.71484,20.80078 c 1.14985,0.22428 2.25205,0.47402 3.35156,0.72461 l -3.36523,-14.72656 c 11.8,2.3 20.69883,6.00078 31.79883,10.80078 11.59781,-19.61964 7.79019,-33.44771 33.88281,-40.2207 l -3.38281,-15.98047 c 0.81829,-0.5867 1.70225,-1.1097 2.625,-1.59375 l -2.625,-12.406251 c 0.48376,-0.346845 0.99521,-0.667274 1.51758,-0.976563 -10.02869,-5.59352 -20.39937,-13.446288 -32.81641,-23.542968 l 10.19922,-5.689454 c -8.2,-2.23 -19.09883,0.579922 -26.29883,-4.080078 L 431.01953,52.03125 c -6.51582,-0.259874 -13.45102,0.185986 -18.57226,-3.037109 -8.42889,0.268362 -16.76479,0.965811 -20.34766,2.455078 -15.3,-8.27 -32.09883,-16.11836 -51.79883,-23.06836 -9.3,6.8 -11.50117,10.508985 -21.20117,15.208985 L 313.5,32.980469 c -3.1,8.77 -8.89922,16.32 -16.69922,19 1.31057,-5.19313 3.7889,-13.180852 4.80274,-16.423828 -0.90808,0.609872 -1.85283,1.151147 -2.83399,1.611328 -5.84696,6.881662 -11.51622,13.780577 -22.57031,20.072265 -17.61262,2.879366 -36.10751,1.666666 -55.48242,-4.607422 0.46147,1.888055 0.98379,3.76343 1.48242,5.646485 -0.96741,-0.461033 -1.85819,-0.950956 -2.69727,-1.460938 -0.22805,5.38018 1.35442,10.389696 2.69727,15.460938 -12.8,-6.1 -13.8,-16.69961 -18,-26.099609 -10.3,-4.72 -20.89883,-10.858829 -31.79883,-18.548829 z"
         id="path4496" />
      <path
         inkscape:connector-curvature="0"
         style="fill:#f16e03;fill-opacity:1"
         d="m 364.09961,357.5 c -42.6,10.7 -86.9,18.59961 -129.5,17.09961 L 253.5,387.80078 205.90039,372.09961 c -17.7,-2.6 -34.99961,-7.09961 -51.59961,-14.09961 -3.16146,4.63392 -8.70789,8.44073 -14.98437,11.77344 -1.8295,3.67761 -3.99078,7.16609 -6.38086,10.52734 l 8.16406,-0.40039 c -3.52625,8.51725 -8.94129,15.94239 -14.94141,23.08008 0.4646,-0.12506 1.0088,-0.26106 1.44141,-0.38086 27.3,15 56.10039,29.00117 67.90039,52.70117 42.8,22.9 81.79922,16.59883 119.69922,1.79883 7.1,-11.9 15.70156,-22.70039 26.60156,-31.90039 12.10136,-3.23068 19.8146,-3.51577 26.09961,-2.83984 2.87511,-1.39622 5.84478,-2.71306 8.91797,-3.94727 -2.47395,-3.35506 -5.3401,-6.58668 -12.01758,-8.51172 8.92224,-4.62635 18.81793,-8.41985 29.82031,-11.4082 -1.46385,-2.40661 -2.95696,-4.80738 -4.52148,-7.19141 l 10.30469,3.0957 c -1.36346,-2.42752 -2.74926,-4.85246 -4.18555,-7.27148 -12.06911,-8.93476 -22.39581,-18.63341 -32.11914,-29.625 z"
         id="path4498" />
    </g>
  </g>
</svg>
