<?xml version="1.0" encoding="UTF-8" standalone="no"?>
<svg
   xmlns:dc="http://purl.org/dc/elements/1.1/"
   xmlns:cc="http://creativecommons.org/ns#"
   xmlns:rdf="http://www.w3.org/1999/02/22-rdf-syntax-ns#"
   xmlns:svg="http://www.w3.org/2000/svg"
   xmlns="http://www.w3.org/2000/svg"
   xmlns:xlink="http://www.w3.org/1999/xlink"
   xmlns:sodipodi="http://sodipodi.sourceforge.net/DTD/sodipodi-0.dtd"
   xmlns:inkscape="http://www.inkscape.org/namespaces/inkscape"
   style="height: 45px; width: 45px;"
   viewBox="0 0 512 512"
   version="1.1"
   id="svg8"
   sodipodi:docname="weapon-rogue-rare.svg"
   inkscape:version="0.92.4 (5da689c313, 2019-01-14)">
  <metadata
     id="metadata14">
    <rdf:RDF>
      <cc:Work
         rdf:about="">
        <dc:format>image/svg+xml</dc:format>
        <dc:type
           rdf:resource="http://purl.org/dc/dcmitype/StillImage" />
      </cc:Work>
    </rdf:RDF>
  </metadata>
  <defs
     id="defs12">
    <linearGradient
       inkscape:collect="always"
       id="linearGradient4538">
      <stop
         style="stop-color:#acdecd;stop-opacity:1"
         offset="0"
         id="stop4534" />
      <stop
         style="stop-color:#ffffff;stop-opacity:1"
         offset="1"
         id="stop4536" />
    </linearGradient>
    <linearGradient
       inkscape:collect="always"
       id="linearGradient4530">
      <stop
         style="stop-color:#ffffff;stop-opacity:1"
         offset="0"
         id="stop4526" />
      <stop
         style="stop-color:#acdecd;stop-opacity:1"
         offset="1"
         id="stop4528" />
    </linearGradient>
    <linearGradient
       inkscape:collect="always"
       id="linearGradient4522">
      <stop
         style="stop-color:#a2bcc5;stop-opacity:1"
         offset="0"
         id="stop4518" />
      <stop
         style="stop-color:#69849c;stop-opacity:1"
         offset="1"
         id="stop4520" />
    </linearGradient>
    <linearGradient
       inkscape:collect="always"
       id="linearGradient4514">
      <stop
         style="stop-color:#acdecd;stop-opacity:1"
         offset="0"
         id="stop4510" />
      <stop
         style="stop-color:#69849c;stop-opacity:1"
         offset="1"
         id="stop4512" />
    </linearGradient>
    <linearGradient
       inkscape:collect="always"
       id="linearGradient4506">
      <stop
         style="stop-color:#e0a186;stop-opacity:1"
         offset="0"
         id="stop4502" />
      <stop
         style="stop-color:#6d4734;stop-opacity:1"
         offset="1"
         id="stop4504" />
    </linearGradient>
    <linearGradient
       inkscape:collect="always"
       xlink:href="#linearGradient4506"
       id="linearGradient4508"
       x1="88.975609"
       y1="130.01852"
       x2="124.25903"
       y2="94.735092"
       gradientUnits="userSpaceOnUse" />
    <radialGradient
       inkscape:collect="always"
       xlink:href="#linearGradient4514"
       id="radialGradient4516"
       cx="33.749367"
       cy="42.577042"
       fx="33.749367"
       fy="42.577042"
       r="28.108"
       gradientTransform="matrix(1.3407796,-0.11726109,0.08712948,0.9962506,-15.210811,4.1170589)"
       gradientUnits="userSpaceOnUse" />
    <linearGradient
       inkscape:collect="always"
       xlink:href="#linearGradient4522"
       id="linearGradient4524"
       x1="80.314003"
       y1="321.34399"
       x2="322.59399"
       y2="79.032997"
       gradientUnits="userSpaceOnUse" />
    <linearGradient
       inkscape:collect="always"
       xlink:href="#linearGradient4530"
       id="linearGradient4532"
       x1="217.12601"
       y1="176.62601"
       x2="179.84399"
       y2="215.062"
       gradientUnits="userSpaceOnUse" />
    <linearGradient
       inkscape:collect="always"
       xlink:href="#linearGradient4538"
       id="linearGradient4540"
       x1="260.15601"
       y1="145.405"
       x2="147.53101"
       y2="259.02899"
       gradientUnits="userSpaceOnUse" />
  </defs>
  <sodipodi:namedview
     pagecolor="#ffffff"
     bordercolor="#666666"
     borderopacity="1"
     objecttolerance="10"
     gridtolerance="10"
     guidetolerance="10"
     inkscape:pageopacity="0"
     inkscape:pageshadow="2"
     inkscape:window-width="2560"
     inkscape:window-height="1377"
     id="namedview10"
     showgrid="false"
     inkscape:zoom="1"
     inkscape:cx="271.62584"
     inkscape:cy="149.35829"
     inkscape:window-x="1912"
     inkscape:window-y="-8"
     inkscape:window-maximized="1"
     inkscape:current-layer="svg8" />
  <g
     id="g8316"
     transform="matrix(0.86978648,0,0,0.86978648,24.898433,24.864317)">
    <g
       style="fill:none;stroke:#000000;stroke-width:32;stroke-miterlimit:4;stroke-dasharray:none;stroke-opacity:1"
       id="g8278">
      <path
         id="path8268"
         d="m 43.53,15.75 c -15.73,0 -28.31,12.583 -28.31,28.313 0,14.086 10.092,25.644 23.5,27.906 L 42.687,68 68.81,41.906 71.436,39.281 C 69.188,25.86 57.63,15.75 43.53,15.75 Z"
         style="fill:none;fill-opacity:1;stroke:#000000;stroke-width:32;stroke-miterlimit:4;stroke-dasharray:none;stroke-opacity:1"
         inkscape:connector-curvature="0" />
      <path
         id="path8270"
         d="m 77.25,59.875 -17,17 c 15.885,39.37 43.45,66.684 78.75,87.406 8.167,-8.585 16.65,-16.898 25.438,-24.936 C 141.95,104.242 112.903,77.051 77.25,59.875 Z"
         style="fill:none;fill-opacity:1;stroke:#000000;stroke-width:32;stroke-miterlimit:4;stroke-dasharray:none;stroke-opacity:1"
         inkscape:connector-curvature="0" />
      <path
         sodipodi:nodetypes="ccccccccccccc"
         inkscape:connector-curvature="0"
         id="path8272"
         d="m 322.594,79.03 -51.25,4.314 c -79.356,48.134 -143.878,108.1 -186.72,186.53 l -4.31,51.47 44.155,-18.656 -2.94,-34.094 -0.25,-3.063 1.626,-2.624 c 35.94,-58.47 79.93,-109.41 141.5,-141.25 l 2.406,-1.25 2.688,0.25 34.125,2.906 z"
         style="fill:none;fill-opacity:1;stroke:#000000;stroke-width:32;stroke-miterlimit:4;stroke-dasharray:none;stroke-opacity:1" />
      <path
         id="path8274"
         d="m 260.156,145.406 c -10.008,5.886 -19.5,12.338 -28.562,19.313 46.688,47.93 87.208,108.588 114.72,166.5 l 11.248,23.717 -23.718,-11.28 c -57.995,-27.554 -117.918,-67.57 -165.688,-113.907 -7.155,9.404 -14.028,19.174 -20.625,29.28 101.918,94.91 227.05,177.304 347.845,234.69 C 438.313,373.594 355.338,247.539 260.156,145.405 Z"
         style="fill:none;fill-opacity:1;stroke:#000000;stroke-width:32;stroke-miterlimit:4;stroke-dasharray:none;stroke-opacity:1"
         inkscape:connector-curvature="0" />
      <path
         id="path8276"
         d="m 217.126,176.626 c -13.37,11.703 -25.72,24.58 -37.282,38.436 39.36,38.452 88.085,72.83 136.687,98.844 -26.054,-48.633 -60.754,-97.847 -99.405,-137.28 z"
         style="fill:none;fill-opacity:1;stroke:#000000;stroke-width:32;stroke-miterlimit:4;stroke-dasharray:none;stroke-opacity:1"
         inkscape:connector-curvature="0" />
    </g>
    <g
       id="g8266">
      <path
         style="fill:url(#radialGradient4516);fill-opacity:1"
         d="m 43.53,15.75 c -15.73,0 -28.31,12.583 -28.31,28.313 0,14.086 10.092,25.644 23.5,27.906 L 42.687,68 68.81,41.906 71.436,39.281 C 69.188,25.86 57.63,15.75 43.53,15.75 Z"
         id="path4500"
         inkscape:connector-curvature="0" />
      <path
         style="fill:url(#linearGradient4508);fill-opacity:1"
         d="m 77.25,59.875 -17,17 c 15.885,39.37 43.45,66.684 78.75,87.406 8.167,-8.585 16.65,-16.898 25.438,-24.936 C 141.95,104.242 112.903,77.051 77.25,59.875 Z"
         id="path4498"
         inkscape:connector-curvature="0" />
      <path
         style="fill:url(#linearGradient4524);fill-opacity:1"
         d="m 322.594,79.03 -51.25,4.314 c -79.356,48.134 -143.878,108.1 -186.72,186.53 l -4.31,51.47 44.155,-18.656 -2.94,-34.094 -0.25,-3.063 1.626,-2.624 c 35.94,-58.47 79.93,-109.41 141.5,-141.25 l 2.406,-1.25 2.688,0.25 34.125,2.906 18.97,-44.53 z"
         id="path4496"
         inkscape:connector-curvature="0" />
      <path
         style="fill:url(#linearGradient4540);fill-opacity:1"
         d="m 260.156,145.406 c -10.008,5.886 -19.5,12.338 -28.562,19.313 46.688,47.93 87.208,108.588 114.72,166.5 l 11.248,23.717 -23.718,-11.28 c -57.995,-27.554 -117.918,-67.57 -165.688,-113.907 -7.155,9.404 -14.028,19.174 -20.625,29.28 101.918,94.91 227.05,177.304 347.845,234.69 C 438.313,373.594 355.338,247.539 260.156,145.405 Z"
         id="path4494"
         inkscape:connector-curvature="0" />
      <path
         style="fill:url(#linearGradient4532);fill-opacity:1"
         d="m 217.126,176.626 c -13.37,11.703 -25.72,24.58 -37.282,38.436 39.36,38.452 88.085,72.83 136.687,98.844 -26.054,-48.633 -60.754,-97.847 -99.405,-137.28 z"
         id="path4"
         inkscape:connector-curvature="0" />
    </g>
  </g>
</svg>
