<?xml version="1.0" encoding="UTF-8" standalone="no"?>
<svg
   xmlns:dc="http://purl.org/dc/elements/1.1/"
   xmlns:cc="http://creativecommons.org/ns#"
   xmlns:rdf="http://www.w3.org/1999/02/22-rdf-syntax-ns#"
   xmlns:svg="http://www.w3.org/2000/svg"
   xmlns="http://www.w3.org/2000/svg"
   xmlns:xlink="http://www.w3.org/1999/xlink"
   xmlns:sodipodi="http://sodipodi.sourceforge.net/DTD/sodipodi-0.dtd"
   xmlns:inkscape="http://www.inkscape.org/namespaces/inkscape"
   style="height: 45px; width: 45px;"
   viewBox="0 0 512 512"
   version="1.1"
   id="svg8"
   sodipodi:docname="weapon-ranger-epic.svg"
   inkscape:version="0.92.4 (5da689c313, 2019-01-14)">
  <metadata
     id="metadata14">
    <rdf:RDF>
      <cc:Work
         rdf:about="">
        <dc:format>image/svg+xml</dc:format>
        <dc:type
           rdf:resource="http://purl.org/dc/dcmitype/StillImage" />
      </cc:Work>
    </rdf:RDF>
  </metadata>
  <defs
     id="defs12">
    <linearGradient
       inkscape:collect="always"
       id="linearGradient4557">
      <stop
         style="stop-color:#39aeff;stop-opacity:1"
         offset="0"
         id="stop4553" />
      <stop
         style="stop-color:#fffcdb;stop-opacity:1"
         offset="1"
         id="stop4555" />
    </linearGradient>
    <linearGradient
       inkscape:collect="always"
       id="linearGradient4543">
      <stop
         style="stop-color:#39aeff;stop-opacity:1"
         offset="0"
         id="stop4539" />
      <stop
         style="stop-color:#fffcdb;stop-opacity:1"
         offset="1"
         id="stop4541" />
    </linearGradient>
    <linearGradient
       inkscape:collect="always"
       id="linearGradient4527">
      <stop
         style="stop-color:#a392d4;stop-opacity:1"
         offset="0"
         id="stop4523" />
      <stop
         style="stop-color:#332f3a;stop-opacity:1"
         offset="1"
         id="stop4525" />
    </linearGradient>
    <linearGradient
       inkscape:collect="always"
       xlink:href="#linearGradient4527"
       id="linearGradient4529"
       x1="21.405001"
       y1="432.34399"
       x2="81.374001"
       y2="492.31299"
       gradientUnits="userSpaceOnUse" />
    <linearGradient
       inkscape:collect="always"
       xlink:href="#linearGradient4543"
       id="linearGradient4545"
       x1="272.811"
       y1="194.375"
       x2="306.98306"
       y2="64.542374"
       gradientUnits="userSpaceOnUse" />
    <linearGradient
       inkscape:collect="always"
       xlink:href="#linearGradient4557"
       id="linearGradient4559"
       x1="320.53101"
       y1="240.37399"
       x2="438.77966"
       y2="205.01695"
       gradientUnits="userSpaceOnUse" />
  </defs>
  <sodipodi:namedview
     pagecolor="#ffffff"
     bordercolor="#666666"
     borderopacity="1"
     objecttolerance="10"
     gridtolerance="10"
     guidetolerance="10"
     inkscape:pageopacity="0"
     inkscape:pageshadow="2"
     inkscape:window-width="2560"
     inkscape:window-height="1377"
     id="namedview10"
     showgrid="false"
     inkscape:zoom="1.4142136"
     inkscape:cx="163.63253"
     inkscape:cy="386.68603"
     inkscape:window-x="1912"
     inkscape:window-y="-8"
     inkscape:window-maximized="1"
     inkscape:current-layer="svg8" />
  <g
     id="g5214"
     transform="matrix(0.87327127,0,0,0.87327127,20.016252,41.33565)">
    <g
       style="fill:none;stroke:#000000;stroke-width:32;stroke-linejoin:miter;stroke-miterlimit:4;stroke-dasharray:none;stroke-opacity:1"
       id="g5196">
      <path
         sodipodi:nodetypes="ccccccccc"
         inkscape:connector-curvature="0"
         id="path5182"
         d="m 413.875,86 -86.97,86.97 -305.5,259.374 105.44,-46.78 -45.471,106.749 272.5,-319.875 73.22,-73.218 0.29378,-10.445155 z"
         style="fill:none;fill-opacity:1;stroke:#000000;stroke-width:32;stroke-linejoin:miter;stroke-miterlimit:4;stroke-dasharray:none;stroke-opacity:1" />
      <path
         id="path5184"
         d="M 35.96875,72.6875 60.0625,374.9668 77.623047,360.09375 55.904297,87.654297 Z"
         style="fill:none;fill-opacity:1;stroke:#000000;stroke-width:32;stroke-linejoin:miter;stroke-miterlimit:4;stroke-dasharray:none;stroke-opacity:1"
         inkscape:connector-curvature="0" />
      <path
         id="path5186"
         d="m 155.65625,433.9043 -14.81055,17.4082 301.56055,27.125 -14.5918,-20.0332 z"
         style="fill:none;fill-opacity:1;stroke:#000000;stroke-width:32;stroke-linejoin:miter;stroke-miterlimit:4;stroke-dasharray:none;stroke-opacity:1"
         inkscape:connector-curvature="0" />
      <path
         id="path5188"
         d="M 492.65625,20.40625 374.0625,76.626953 413.875,86 l 9.32227,4.982422 3.89648,8.238281 9.3418,39.808597 z"
         style="fill:none;fill-opacity:1;stroke:#000000;stroke-width:32;stroke-linejoin:miter;stroke-miterlimit:4;stroke-dasharray:none;stroke-opacity:1"
         inkscape:connector-curvature="0" />
      <path
         sodipodi:nodetypes="ccccccc"
         inkscape:connector-curvature="0"
         style="fill:none;fill-opacity:1;stroke:#000000;stroke-width:32;stroke-linejoin:miter;stroke-miterlimit:4;stroke-dasharray:none;stroke-opacity:1"
         d="M 35.969,72.687 55.904,87.655 C 113.879,119.609 225,112.82 272.811,194.375 l 66.625,-56.564 1.22,-1.218 C 292.74,38.666 86.01,99.716 19.406,20.4695 c -1.347,23.4295 5,39.9465 16.563,52.2175 z"
         id="path5190" />
      <path
         sodipodi:nodetypes="cccccccc"
         inkscape:connector-curvature="0"
         style="fill:none;fill-opacity:1;stroke:#000000;stroke-width:32;stroke-linejoin:miter;stroke-miterlimit:4;stroke-dasharray:none;stroke-opacity:1"
         d="m 378.937,172.029 -1.156,1.157 -57.25,67.188 c 82.006,47.945 75.587,159.267 107.283,218.03 l 14.593,20.033 c 12.48,12.283 29.4,19.084 53.688,17.687 -79.95,-67.2 -18.36,-275.754 -117.156,-324.094 z"
         id="path5192" />
    </g>
    <g
       id="g5180">
      <path
         style="fill:url(#linearGradient4529);fill-opacity:1"
         d="m 413.875,86 -86.97,86.97 -305.5,259.374 105.44,-46.78 -45.471,106.749 272.5,-319.875 73.22,-73.218 0.29378,-10.445155 z"
         id="path4496"
         inkscape:connector-curvature="0"
         sodipodi:nodetypes="ccccccccc" />
      <path
         style="fill:#ffffff;fill-opacity:1"
         d="M 35.96875,72.6875 60.0625,374.9668 77.623047,360.09375 55.904297,87.654297 Z"
         id="path4494"
         inkscape:connector-curvature="0" />
      <path
         style="fill:#ffffff;fill-opacity:1"
         d="m 155.65625,433.9043 -14.81055,17.4082 301.56055,27.125 -14.5918,-20.0332 z"
         id="path4"
         inkscape:connector-curvature="0" />
      <path
         style="fill:#ffffff;fill-opacity:1"
         d="M 492.65625,20.40625 374.0625,76.626953 413.875,86 l 9.32227,4.982422 z"
         id="path4498"
         inkscape:connector-curvature="0" />
      <path
         id="path4500"
         d="m 19.406,20.469 c -1.347,23.43 5,39.947 16.563,52.218 L 55.904,87.655 C 113.879,119.609 225,112.82 272.811,194.375 l 66.625,-56.564 1.22,-1.218 C 292.74,38.666 86.01,99.716 19.406,20.47 Z"
         style="fill:url(#linearGradient4545);fill-opacity:1"
         inkscape:connector-curvature="0"
         sodipodi:nodetypes="cccccccc" />
      <path
         id="path4505"
         d="m 378.937,172.029 -1.156,1.157 -57.25,67.188 c 82.006,47.945 75.587,159.267 107.283,218.03 l 14.593,20.033 c 12.48,12.283 29.4,19.084 53.688,17.687 -79.95,-67.2 -18.36,-275.754 -117.156,-324.094 z"
         style="fill:url(#linearGradient4559);fill-opacity:1"
         inkscape:connector-curvature="0"
         sodipodi:nodetypes="cccccccc" />
      <path
         sodipodi:nodetypes="ccccc"
         inkscape:connector-curvature="0"
         style="fill:#a2bcc5;fill-opacity:1"
         d="M 492.656,20.406 423.19636,90.982881 427.094,99.22 l 9.342,39.81 z"
         id="path4518" />
    </g>
  </g>
</svg>
