<?xml version="1.0" encoding="UTF-8" standalone="no"?>
<svg
   xmlns:dc="http://purl.org/dc/elements/1.1/"
   xmlns:cc="http://creativecommons.org/ns#"
   xmlns:rdf="http://www.w3.org/1999/02/22-rdf-syntax-ns#"
   xmlns:svg="http://www.w3.org/2000/svg"
   xmlns="http://www.w3.org/2000/svg"
   xmlns:xlink="http://www.w3.org/1999/xlink"
   xmlns:sodipodi="http://sodipodi.sourceforge.net/DTD/sodipodi-0.dtd"
   xmlns:inkscape="http://www.inkscape.org/namespaces/inkscape"
   style="height: 45px; width: 45px;"
   viewBox="0 0 512 512"
   version="1.1"
   id="svg8"
   sodipodi:docname="armor-warrior-uncommon.svg"
   inkscape:version="0.92.4 (5da689c313, 2019-01-14)">
  <metadata
     id="metadata14">
    <rdf:RDF>
      <cc:Work
         rdf:about="">
        <dc:format>image/svg+xml</dc:format>
        <dc:type
           rdf:resource="http://purl.org/dc/dcmitype/StillImage" />
      </cc:Work>
    </rdf:RDF>
  </metadata>
  <defs
     id="defs12">
    <linearGradient
       inkscape:collect="always"
       id="linearGradient4539">
      <stop
         style="stop-color:#a2bcc5;stop-opacity:1"
         offset="0"
         id="stop4535" />
      <stop
         id="stop4549"
         offset="0.27872714"
         style="stop-color:#a2bcc5;stop-opacity:1" />
      <stop
         id="stop4543"
         offset="0.40801352"
         style="stop-color:#69849c;stop-opacity:1" />
      <stop
         style="stop-color:#a2bcc5;stop-opacity:1"
         offset="0.71665275"
         id="stop4547" />
      <stop
         style="stop-color:#ffffff;stop-opacity:1"
         offset="0.85847187"
         id="stop4545" />
      <stop
         style="stop-color:#a2bcc5;stop-opacity:1"
         offset="1"
         id="stop4537" />
    </linearGradient>
    <linearGradient
       inkscape:collect="always"
       xlink:href="#linearGradient4539"
       id="linearGradient4541"
       x1="365.51001"
       y1="334.065"
       x2="122.5"
       y2="130.065"
       gradientUnits="userSpaceOnUse"
       spreadMethod="repeat" />
  </defs>
  <sodipodi:namedview
     pagecolor="#ffffff"
     bordercolor="#666666"
     borderopacity="1"
     objecttolerance="10"
     gridtolerance="10"
     guidetolerance="10"
     inkscape:pageopacity="0"
     inkscape:pageshadow="2"
     inkscape:window-width="2560"
     inkscape:window-height="1377"
     id="namedview10"
     showgrid="false"
     inkscape:zoom="1.4142136"
     inkscape:cx="212.84832"
     inkscape:cy="271.59832"
     inkscape:window-x="1912"
     inkscape:window-y="-8"
     inkscape:window-maximized="1"
     inkscape:current-layer="svg8" />
  <path
     d="M 156.7,25.83 89,39.38 C 88.9,97.95 87.26,158.7 45.51,206.6 104.4,246.5 189,260.7 247,248.8 v -99 L 108.3,88.22 115.7,71.78 256,134.2 396.3,71.78 403.7,88.22 265,149.8 v 99 c 58,11.9 142.6,-2.3 201.5,-42.2 C 424.7,158.7 423.1,97.95 423,39.38 L 355.3,25.83 C 342.4,39.71 334.7,53.98 322.4,66.36 308.9,79.78 289.5,89 256,89 222.5,89 203.1,79.78 189.6,66.36 177.3,53.98 169.6,39.71 156.7,25.83 Z M 53.88,232.9 C 75.96,281 96.07,336.6 102.7,392.8 l 65,22.8 c 4.2,-52.7 28.2,-104 63.7,-146.1 -55.1,6.3 -124.11422,-19.94213 -177.52,-36.6 z m 404.22,0 c -39.5972,11.35456 -122.4,42.9 -177.5,36.6 35.5,42.1 59.5,93.4 63.7,146.1 l 65.2,-22.9 c 6.6,-56.8 26.6,-111.8 48.6,-159.8 z M 256,269 c -40.5,43.1 -67.7,97.9 -70.7,152.7 L 247,443.3 V 336 h 18 v 107.3 l 61.7,-21.6 C 323.6,366.9 296.5,312.1 256,269 Z M 407.7,412.4 297,451.1 v 18.8 l 110.2,-44.1 c 0.1,-4.5 0.3,-8.9 0.5,-13.4 z m -303.3,0.1 c 0.3,4.5 0.4,8.9 0.5,13.4 l 110.1,44 v -18.7 z m 174.6,44.9 -23,8.1 -23,-8 v 19.6 l 23,9.2 23,-9.2 z"
     id="path23348"
     inkscape:connector-curvature="0"
     style="fill:none;fill-opacity:1;stroke:#000000;stroke-width:32;stroke-miterlimit:4;stroke-dasharray:none;stroke-opacity:1"
     sodipodi:nodetypes="ccccccccccccccccsccccccccccccccccccccccccccccccccccccc" />
  <path
     style="fill:url(#linearGradient4541);fill-opacity:1"
     inkscape:connector-curvature="0"
     id="path4"
     d="M 156.7,25.83 89,39.38 C 88.9,97.95 87.26,158.7 45.51,206.6 104.4,246.5 189,260.7 247,248.8 v -99 L 108.3,88.22 115.7,71.78 256,134.2 396.3,71.78 403.7,88.22 265,149.8 v 99 c 58,11.9 142.6,-2.3 201.5,-42.2 C 424.7,158.7 423.1,97.95 423,39.38 L 355.3,25.83 C 342.4,39.71 334.7,53.98 322.4,66.36 308.9,79.78 289.5,89 256,89 222.5,89 203.1,79.78 189.6,66.36 177.3,53.98 169.6,39.71 156.7,25.83 Z M 53.88,232.9 C 75.96,281 96.07,336.6 102.7,392.8 l 65,22.8 c 4.2,-52.7 28.2,-104 63.7,-146.1 -55.1,6.3 -122.7,-5.8 -177.52,-36.6 z m 404.22,0 c -54.8,30.8 -122.4,42.9 -177.5,36.6 35.5,42.1 59.5,93.4 63.7,146.1 l 65.2,-22.9 c 6.6,-56.8 26.6,-111.8 48.6,-159.8 z M 256,269 c -40.5,43.1 -67.7,97.9 -70.7,152.7 L 247,443.3 V 336 h 18 v 107.3 l 61.7,-21.6 C 323.6,366.9 296.5,312.1 256,269 Z M 407.7,412.4 297,451.1 v 18.8 l 110.2,-44.1 c 0.1,-4.5 0.3,-8.9 0.5,-13.4 z m -303.3,0.1 c 0.3,4.5 0.4,8.9 0.5,13.4 l 110.1,44 v -18.7 z m 174.6,44.9 -23,8.1 -23,-8 v 19.6 l 23,9.2 23,-9.2 z" />
</svg>
