<?xml version="1.0" encoding="UTF-8" standalone="no"?>
<svg
   xmlns:dc="http://purl.org/dc/elements/1.1/"
   xmlns:cc="http://creativecommons.org/ns#"
   xmlns:rdf="http://www.w3.org/1999/02/22-rdf-syntax-ns#"
   xmlns:svg="http://www.w3.org/2000/svg"
   xmlns="http://www.w3.org/2000/svg"
   xmlns:xlink="http://www.w3.org/1999/xlink"
   xmlns:sodipodi="http://sodipodi.sourceforge.net/DTD/sodipodi-0.dtd"
   xmlns:inkscape="http://www.inkscape.org/namespaces/inkscape"
   style="height: 45px; width: 45px;"
   viewBox="0 0 512 512"
   version="1.1"
   id="svg8"
   sodipodi:docname="weapon-rogue-epic.svg"
   inkscape:version="0.92.4 (5da689c313, 2019-01-14)">
  <metadata
     id="metadata14">
    <rdf:RDF>
      <cc:Work
         rdf:about="">
        <dc:format>image/svg+xml</dc:format>
        <dc:type
           rdf:resource="http://purl.org/dc/dcmitype/StillImage" />
      </cc:Work>
    </rdf:RDF>
  </metadata>
  <defs
     id="defs12">
    <linearGradient
       inkscape:collect="always"
       id="linearGradient4521">
      <stop
         style="stop-color:#ffffff;stop-opacity:1"
         offset="0"
         id="stop4517" />
      <stop
         style="stop-color:#fffcdb;stop-opacity:1"
         offset="1"
         id="stop4519" />
    </linearGradient>
    <linearGradient
       inkscape:collect="always"
       xlink:href="#linearGradient4521"
       id="linearGradient4523"
       x1="236.562"
       y1="388.72101"
       x2="322.4407"
       y2="322.49539"
       gradientUnits="userSpaceOnUse" />
  </defs>
  <sodipodi:namedview
     pagecolor="#ffffff"
     bordercolor="#666666"
     borderopacity="1"
     objecttolerance="10"
     gridtolerance="10"
     guidetolerance="10"
     inkscape:pageopacity="0"
     inkscape:pageshadow="2"
     inkscape:window-width="2560"
     inkscape:window-height="1377"
     id="namedview10"
     showgrid="false"
     inkscape:zoom="0.70710678"
     inkscape:cx="247.10192"
     inkscape:cy="334.83617"
     inkscape:window-x="1912"
     inkscape:window-y="-8"
     inkscape:window-maximized="1"
     inkscape:current-layer="svg8" />
  <path
     sodipodi:nodetypes="ccccccccc"
     inkscape:connector-curvature="0"
     id="path7466"
     d="M 86.385774,26.688565 70.822917,32.777508 34.434929,64.471329 32.045055,99.322514 53.298088,107.6593 110.82804,58.126556 105.67774,35.167382 86.387595,26.688565 Z"
     style="fill:none;fill-opacity:1;stroke:#000000;stroke-width:29.13369751;stroke-miterlimit:4;stroke-dasharray:none;stroke-opacity:1" />
  <path
     sodipodi:nodetypes="ccccc"
     inkscape:connector-curvature="0"
     id="path7468"
     d="M 112.19186,79.379588 77.052976,109.65132 92.217065,120.54914 122.83112,101.48478 Z"
     style="fill:none;fill-opacity:1;stroke:#000000;stroke-width:29.13369751;stroke-miterlimit:4;stroke-dasharray:none;stroke-opacity:1" />
  <path
     sodipodi:nodetypes="cccccc"
     inkscape:connector-curvature="0"
     id="path7470"
     d="m 131.79337,115.93874 -25.80517,16.10365 18.40885,17.46838 19.6871,-17.52574 c -0.17844,-0.11471 -0.36235,-0.22396 -0.54079,-0.3405 z"
     style="fill:none;fill-opacity:1;stroke:#000000;stroke-width:29.13369751;stroke-miterlimit:4;stroke-dasharray:none;stroke-opacity:1" />
  <path
     sodipodi:nodetypes="ccccc"
     inkscape:connector-curvature="0"
     id="path7472"
     d="m 159.4194,141.08931 -26.60271,23.70026 11.55334,30.89811 39.94412,-42.7628 z"
     style="fill:none;fill-opacity:1;stroke:#000000;stroke-width:29.13369751;stroke-miterlimit:4;stroke-dasharray:none;stroke-opacity:1" />
  <path
     sodipodi:nodetypes="ccccccccccc"
     inkscape:connector-curvature="0"
     id="path7474"
     d="m 201.61228,159.29787 -54.39808,58.2674 31.09658,42.56251 14.39569,-9.33189 -1.84817,-40.59781 -5.54906,-18.09475 17.21347,7.85244 47.8266,-5.23496 -1.87912,-14.79446 -26.488,-14.85181 z"
     style="fill:none;fill-opacity:1;stroke:#000000;stroke-width:29.13369751;stroke-miterlimit:4;stroke-dasharray:none;stroke-opacity:1" />
  <path
     inkscape:connector-curvature="0"
     id="path7476"
     d="m 210.94417,220.83826 c 2.70397,15.16317 1.60781,27.42755 -2.76042,37.01436 -0.0792,0.17571 -0.17298,0.3405 -0.25492,0.51348 27.31011,28.22873 38.35997,68.5352 19.28833,106.40628 34.89943,63.4277 132.53829,115.92844 233.83798,87.59865 C 297.15624,385.60934 355.1587,306.99388 242.92249,220.72445 c -9.06194,2.7677 -19.99709,3.06359 -31.97832,0.11381 z"
     style="fill:none;fill-opacity:1;stroke:#000000;stroke-width:29.13369751;stroke-miterlimit:4;stroke-dasharray:none;stroke-opacity:1"
     sodipodi:nodetypes="ccccccc" />
  <path
     style="fill:none;fill-opacity:1;stroke:#000000;stroke-width:29.13369751;stroke-miterlimit:4;stroke-dasharray:none;stroke-opacity:1"
     d="M 86.385774,26.688565 70.822917,32.777508 34.434929,64.471329 32.045055,99.322514 53.298088,107.6593 110.82804,58.126556 105.67774,35.167382 86.387595,26.688565 Z"
     id="path7478"
     inkscape:connector-curvature="0"
     sodipodi:nodetypes="ccccccccc" />
  <g
     id="g7464"
     transform="matrix(0.91042804,0,0,0.91042804,11.844478,10.869878)">
    <path
       inkscape:connector-curvature="0"
       id="path4"
       d="m 253.813,230.501 c -9.954,3.04 -21.965,3.365 -35.125,0.125 2.97,16.655 1.766,30.126 -3.032,40.656 -0.087,0.193 -0.19,0.374 -0.28,0.564 29.997,31.006 42.134,75.278 21.186,116.875 38.333,69.668 145.578,127.334 256.844,96.217 C 313.382,411.608 377.091,325.258 253.812,230.501 Z"
       style="fill:url(#linearGradient4523);fill-opacity:1" />
    <path
       sodipodi:nodetypes="ccccccccc"
       inkscape:connector-curvature="0"
       id="path4514"
       d="m 81.875,17.375 -17.094,6.688 -39.968,34.812 -2.625,38.28 23.344,9.157 63.19,-54.406 -5.657,-25.218 -21.188,-9.313 z"
       style="fill:#a79a5f;fill-opacity:1" />
    <path
       sodipodi:nodetypes="cccccc"
       inkscape:connector-curvature="0"
       id="path4512"
       d="M 110.22,75.25 71.624,108.5 88.28,120.47 121.906,99.53 110.219,75.25 Z"
       style="fill:#fffcdb;fill-opacity:1" />
    <path
       sodipodi:nodetypes="ccccccc"
       inkscape:connector-curvature="0"
       id="path4510"
       d="m 131.75,115.406 -28.344,17.688 20.22,19.187 21.624,-19.25 c -0.196,-0.126 -0.398,-0.246 -0.594,-0.374 l -12.906,-17.25 z"
       style="fill:#fffcdb;fill-opacity:1" />
    <path
       sodipodi:nodetypes="ccccc"
       inkscape:connector-curvature="0"
       id="path4508"
       d="m 162.094,143.031 -29.22,26.032 12.69,33.938 43.874,-46.97 z"
       style="fill:#fffcdb;fill-opacity:1" />
    <path
       sodipodi:nodetypes="cccccccccccc"
       inkscape:connector-curvature="0"
       id="path4506"
       d="m 208.438,163.031 -59.75,64 34.156,46.75 15.812,-10.25 -2.03,-44.592 -6.095,-19.875 18.907,8.625 52.532,-5.75 -2.064,-16.25 -29.094,-16.313 c -7.53,-1.796 -14.994,-3.922 -22.375,-6.344 z"
       style="fill:#a79a5f;fill-opacity:1" />
    <path
       style="fill:#a79a5f;fill-opacity:1"
       d="m 81.875,17.375 -17.094,6.688 -39.968,34.812 -2.625,38.28 23.344,9.157 63.19,-54.406 -5.657,-25.218 -21.188,-9.313 z"
       id="path4656"
       inkscape:connector-curvature="0"
       sodipodi:nodetypes="ccccccccc" />
  </g>
</svg>
