<?xml version="1.0" encoding="UTF-8" standalone="no"?>
<svg
   xmlns:dc="http://purl.org/dc/elements/1.1/"
   xmlns:cc="http://creativecommons.org/ns#"
   xmlns:rdf="http://www.w3.org/1999/02/22-rdf-syntax-ns#"
   xmlns:svg="http://www.w3.org/2000/svg"
   xmlns="http://www.w3.org/2000/svg"
   xmlns:sodipodi="http://sodipodi.sourceforge.net/DTD/sodipodi-0.dtd"
   xmlns:inkscape="http://www.inkscape.org/namespaces/inkscape"
   style="height: 512px; width: 512px;"
   viewBox="0 0 512 512"
   version="1.1"
   id="svg8"
   sodipodi:docname="pet-snake.svg"
   inkscape:version="0.92.4 (5da689c313, 2019-01-14)">
  <metadata
     id="metadata14">
    <rdf:RDF>
      <cc:Work
         rdf:about="">
        <dc:format>image/svg+xml</dc:format>
        <dc:type
           rdf:resource="http://purl.org/dc/dcmitype/StillImage" />
        <dc:title></dc:title>
      </cc:Work>
    </rdf:RDF>
  </metadata>
  <defs
     id="defs12" />
  <sodipodi:namedview
     pagecolor="#ffffff"
     bordercolor="#666666"
     borderopacity="1"
     objecttolerance="10"
     gridtolerance="10"
     guidetolerance="10"
     inkscape:pageopacity="0"
     inkscape:pageshadow="2"
     inkscape:window-width="1920"
     inkscape:window-height="1080"
     id="namedview10"
     showgrid="false"
     inkscape:zoom="0.65186406"
     inkscape:cx="-55.856027"
     inkscape:cy="210.87739"
     inkscape:window-x="2232"
     inkscape:window-y="160"
     inkscape:window-maximized="0"
     inkscape:current-layer="svg8" />
  <path
     id="path872"
     d="M 112.125,28.146484 C 81.148515,27.796583 36.655781,59.202656 31.699219,83.929688 9.4912185,194.89969 191.10078,120.99961 195.30078,136.59961 197.70078,145.49961 38.900234,172.5 31.740234,232 15.250234,369 352.9,232.70039 355.5,240.90039 c 5.5,17.8 -218.60078,46.39922 -149.80078,157.69922 39.7,64.2 114.80156,32.00039 164.10156,33.40039 26.3,42.4 66.5,60.5 96,48 25.5606,-10.79635 16.54136,-40.49451 4.54688,-69.29688 0,0 -1.61888,-17.88589 -13.82227,-26.02148 C 411.34292,330.95572 278.11032,383.85158 272.5,370.59961 c -10.2,-24.1 216.19922,-41.49922 180.19922,-158.69922 -29,-94.2 -332.69844,21.19961 -332.89844,6.09961 -0.2,-20.9 188.09844,-50.40039 167.39844,-94.90039 C 252.89922,49.279608 76.98,163.89977 62.25,89.509766 57,63.049766 140.30078,42.600234 132.30078,35.240234 127.03984,30.387578 120.02097,28.235675 112.125,28.146484 Z"
     style="fill:none;fill-opacity:1;stroke:#2b2518;stroke-width:32;stroke-miterlimit:4;stroke-dasharray:none;stroke-opacity:1"
     inkscape:connector-curvature="0"
     sodipodi:nodetypes="scccccccccccccccs" />
  <path
     style="fill:#bcd65d;fill-opacity:1"
     d="M 112.125 28.146484 C 81.148515 27.796583 36.655781 59.202656 31.699219 83.929688 C 9.4912185 194.89969 191.10078 120.99961 195.30078 136.59961 C 197.70078 145.49961 38.900234 172.5 31.740234 232 C 15.250234 369 352.9 232.70039 355.5 240.90039 C 361 258.70039 136.89922 287.29961 205.69922 398.59961 C 245.39922 462.79961 320.50078 430.6 369.80078 432 C 396.10078 474.4 436.30078 492.5 465.80078 480 C 491.36138 469.20365 482.34214 439.50549 470.34766 410.70312 A 17.2582 17.2582 0 0 1 454.08203 393.49414 A 17.2582 17.2582 0 0 1 456.52539 384.68164 C 411.34292 330.95572 278.11032 383.85158 272.5 370.59961 C 262.3 346.49961 488.69922 329.10039 452.69922 211.90039 C 423.69922 117.70039 120.00078 233.1 119.80078 218 C 119.60078 197.1 307.89922 167.59961 287.19922 123.09961 C 252.89922 49.279608 76.98 163.89977 62.25 89.509766 C 57 63.049766 140.30078 42.600234 132.30078 35.240234 C 127.03984 30.387578 120.02097 28.235675 112.125 28.146484 z M 403.8418 397.71289 A 17.2582 17.2582 0 0 1 421.09961 414.9707 A 17.2582 17.2582 0 0 1 403.8418 432.22852 A 17.2582 17.2582 0 0 1 386.58398 414.9707 A 17.2582 17.2582 0 0 1 403.8418 397.71289 z "
     id="path4" />
  <ellipse
     style="opacity:1;vector-effect:none;fill:#000000;fill-opacity:1;stroke:none;stroke-width:32.17858124;stroke-linecap:butt;stroke-linejoin:miter;stroke-miterlimit:4;stroke-dasharray:none;stroke-dashoffset:0;stroke-opacity:1;paint-order:normal"
     id="path874"
     cx="405.55936"
     cy="414.68243"
     rx="23.186441"
     ry="21.274633" />
  <path
     style="fill:#000000;fill-opacity:1;stroke:none;stroke-width:1px;stroke-linecap:butt;stroke-linejoin:miter;stroke-opacity:1"
     d="m 444.30276,385.63163 12.22263,-0.94999 c 8.41687,5.45961 13.57921,13.66522 13.82227,26.02148 l -7.4444,15.19764 -18.69638,-17.64171 z"
     id="path876"
     inkscape:connector-curvature="0"
     sodipodi:nodetypes="cccccc" />
  <path
     style="fill:#81a030;fill-opacity:1"
     d="M 106.85547 28.388672 C 76.334332 31.270702 36.381155 60.572692 31.699219 83.929688 C 31.338303 85.733129 31.034187 87.484441 30.779297 89.191406 C 44.0815 158.21484 180.9907 109.35029 195.30078 113.82031 C 209.61086 118.29033 203.00325 129.00651 195.30078 136.59961 C 197.66682 145.37366 43.366712 171.74012 32.138672 229.49414 C 51.546424 331.59482 334.47522 217.2307 355.5 218.12109 C 376.52478 219.01148 355.5 240.90039 355.5 240.90039 C 360.03234 255.56868 208.65651 277.57306 193.74805 347.14453 C 195.52598 356.04116 199.36879 365.57937 205.69922 375.82031 C 245.39922 440.02031 320.50078 407.8207 369.80078 409.2207 C 396.10078 451.6207 436.30078 469.7207 465.80078 457.2207 C 473.99601 453.75918 478.62252 448.34745 480.75 441.65234 C 478.70278 431.85828 474.72846 421.22277 470.34766 410.70312 C 461.22488 410.17759 454.09297 402.63204 454.08203 393.49414 C 454.08903 390.39037 454.93332 387.34599 456.52539 384.68164 C 411.34292 330.95572 278.11032 383.85158 272.5 370.59961 C 270.33694 364.18636 265.51313 361.77081 272.5 347.82031 C 279.48687 333.86981 441.28997 310.2685 455.6582 224.64453 C 455.0198 220.53147 454.04681 216.28755 452.69922 211.90039 C 423.69922 117.70039 120.00078 233.1 119.80078 218 C 115.10286 211.34648 110.5038 206.76889 119.80078 195.2207 C 129.09776 183.67251 258.51727 152.97148 284.59375 118.27539 C 244.84417 54.483859 76.639201 162.17865 62.25 89.509766 C 50.784973 34.60683 157.19038 41.005966 106.85547 28.388672 z M 403.96289 397.57812 A 17.477158 17.477158 0 0 1 421.43945 415.05469 A 17.477158 17.477158 0 0 1 403.96289 432.53125 A 17.477158 17.477158 0 0 1 386.48633 415.05469 A 17.477158 17.477158 0 0 1 403.96289 397.57812 z "
     id="path844" />
</svg>
