<?xml version="1.0" encoding="UTF-8" standalone="no"?>
<svg
   xmlns:dc="http://purl.org/dc/elements/1.1/"
   xmlns:cc="http://creativecommons.org/ns#"
   xmlns:rdf="http://www.w3.org/1999/02/22-rdf-syntax-ns#"
   xmlns:svg="http://www.w3.org/2000/svg"
   xmlns="http://www.w3.org/2000/svg"
   xmlns:xlink="http://www.w3.org/1999/xlink"
   xmlns:sodipodi="http://sodipodi.sourceforge.net/DTD/sodipodi-0.dtd"
   xmlns:inkscape="http://www.inkscape.org/namespaces/inkscape"
   style="height: 512px; width: 512px;"
   viewBox="0 0 512 512"
   version="1.1"
   id="svg8"
   sodipodi:docname="pet-penguin.svg"
   inkscape:version="0.92.4 (5da689c313, 2019-01-14)">
  <metadata
     id="metadata14">
    <rdf:RDF>
      <cc:Work
         rdf:about="">
        <dc:format>image/svg+xml</dc:format>
        <dc:type
           rdf:resource="http://purl.org/dc/dcmitype/StillImage" />
        <dc:title></dc:title>
      </cc:Work>
    </rdf:RDF>
  </metadata>
  <defs
     id="defs12">
    <linearGradient
       inkscape:collect="always"
       id="linearGradient847">
      <stop
         style="stop-color:#101416;stop-opacity:1"
         offset="0"
         id="stop843" />
      <stop
         style="stop-color:#474747;stop-opacity:1"
         offset="1"
         id="stop845" />
    </linearGradient>
    <linearGradient
       inkscape:collect="always"
       id="linearGradient830">
      <stop
         style="stop-color:#6d4815;stop-opacity:1"
         offset="0"
         id="stop826" />
      <stop
         id="stop834"
         offset="0.23482765"
         style="stop-color:#c4bd8e;stop-opacity:1" />
      <stop
         style="stop-color:#e2ddc9;stop-opacity:1"
         offset="1"
         id="stop828" />
    </linearGradient>
    <radialGradient
       inkscape:collect="always"
       xlink:href="#linearGradient830"
       id="radialGradient832"
       cx="816.90234"
       cy="316.94958"
       fx="816.90234"
       fy="316.94958"
       r="70.766377"
       gradientTransform="matrix(-1.2748729,4.1108987,-3.5523551,-1.1016574,2984.2664,-2808.0387)"
       gradientUnits="userSpaceOnUse" />
    <linearGradient
       inkscape:collect="always"
       xlink:href="#linearGradient847"
       id="linearGradient849"
       x1="617.92938"
       y1="348.64722"
       x2="827.80383"
       y2="350.18127"
       gradientUnits="userSpaceOnUse" />
  </defs>
  <sodipodi:namedview
     pagecolor="#ffffff"
     bordercolor="#666666"
     borderopacity="1"
     objecttolerance="10"
     gridtolerance="10"
     guidetolerance="10"
     inkscape:pageopacity="0"
     inkscape:pageshadow="2"
     inkscape:window-width="1920"
     inkscape:window-height="1080"
     id="namedview10"
     showgrid="false"
     inkscape:zoom="0.23046875"
     inkscape:cx="-141.58489"
     inkscape:cy="475.77101"
     inkscape:window-x="2232"
     inkscape:window-y="160"
     inkscape:window-maximized="0"
     inkscape:current-layer="svg8" />
  <g
     id="g863">
    <path
       style="fill:none;fill-opacity:1;stroke:#000000;stroke-opacity:1;stroke-width:32;stroke-miterlimit:4;stroke-dasharray:none"
       inkscape:connector-curvature="0"
       id="path833"
       d="m 299.538,26.987 c -27.712,4.261 -39.38,15.192 -49.267,22.648 l -0.053,0.041 -0.053,0.041 c -73.941,57.51 -101.795,128.454 -108.16,196.262 -6.068,64.64 6.728,126.235 16.002,173.3 -34.558,15.572 -55.01,34.272 -73.676,63.16 49.896,0.875 114.104,3.897 154.125,-14.92 33.248,24.616 108.192,18.58 125.744,12.72 -15.002,-12.068 -30.944,-22.905 -53.937,-24.522 -1.684,-10.036 -2.83,-21.368 -2.192,-30.248 25.491,-100.31 58.396,-193.682 30.438,-315.685 27.736,-8.906 78.544,-25.196 89.16,-35.451 -20.08,-15.046 -90.089,-52.22 -128.13,-47.346 z m 60.707,36.559 0.867,13.955 c -23.91,13.53 -34.384,18.079 -59.607,24.576 -9.107,-16.065 -22.116,-30.075 -33.367,-43.555 34.533,-19.437 53.308,-15.992 92.107,5.024 z m -72.43,51.62 c -0.99,18.622 -6.979,37.33 -10.996,53.891 -7.99,-11.08 -20.678,-17.038 -33.222,-16.574 -4.64,0.171 -9.26,1.22 -13.61,3.207 -8.7,3.976 -16.028,11.913 -19.63,22.748 -3.603,10.835 -3.732,24.346 0.396,40.598 6.371,25.08 6.294,69.204 7.719,106.699 0.712,18.747 1.8,35.878 4.814,49.297 1.507,6.709 3.403,12.55 6.776,17.539 3.372,4.988 9.425,9.27 16.175,9.25 l 0.336,-0.002 0.334,-0.026 a 43.534,43.534 0 0 0 3.383,-0.398 c -2.61,21.604 12.917,42.21 12.26,60.81 -9.846,-5.039 -14.043,-9.963 -22.057,-16.117 -37.715,21.695 -84.065,18.818 -120.26,17.752 20.485,-17.142 36.638,-25.124 58.305,-33.273 -14.806,-66.279 -23.097,-128.644 -18.613,-182.904 5.814,-61.937 28.745,-124.924 93.33,-178.202 20.062,5.353 34.83,40.62 34.56,45.705 z m -24.19,66.569 c 18.134,32.064 26.544,83.772 22.802,126.738 -1.871,21.483 -6.771,40.786 -14.04,54.17 -4.19,6.172 -22.242,27.486 -27.411,19.846 -1.247,-1.844 -2.888,-5.893 -4.125,-11.4 -2.474,-11.016 -3.693,-27.621 -4.393,-46.038 -1.4,-36.833 -0.715,-80.751 -8.258,-110.445 -3.515,-13.837 -2.97,-23.85 -0.761,-30.49 6.1,-18.223 28.237,-14.862 36.185,-2.381 z" />
    <g
       transform="translate(-478.37202,-91.11817)"
       id="g856">
      <path
         inkscape:connector-curvature="0"
         style="fill:url(#linearGradient849);fill-opacity:1"
         d="m 785.39844,117.66797 c -2.60732,-0.008 -5.10877,0.13287 -7.48633,0.4375 h -0.002 c -27.712,4.261 -39.37863,15.19244 -49.26563,22.64844 l -0.0527,0.041 -0.0547,0.041 c -73.941,57.51 -101.79516,128.45372 -108.16016,196.26172 -6.068,64.64 6.72796,126.23578 16.00196,173.30078 -34.558,15.572 -55.00977,34.27215 -73.67579,63.16015 49.896,0.875 114.10401,3.89513 154.125,-14.92187 8.24256,6.10258 19.05211,10.31848 30.91016,13.12305 0,0 0.002,0 0.002,0 -1.13847,-8.99043 -3.62054,-17.80121 -7.3789,-26.19336 -1.33164,-8.13026 -4.73137,-16.601 -7.57422,-25.32813 A 69.799828,152.63919 0 0 0 800.01367,367.79883 69.799828,152.63919 0 0 0 762.21289,232.29688 c 1.94302,-8.53707 3.51053,-17.28234 3.97461,-26.01172 0.0562,-1.0577 -0.55102,-3.43742 -1.70898,-6.56446 10.59975,1.41644 21.05859,5.21264 31.93945,5.23828 6.99898,-0.0898 17.72937,2.85971 20.46484,-4.05664 27.736,-8.906 78.54221,-25.19617 89.15821,-35.45117 -18.825,-14.10562 -81.53281,-47.6601 -120.64258,-47.7832 z m 3.23437,429.13867 c -11.52582,7.72693 -19.86238,17.35898 -24.18164,27.93945 32.2389,4.16131 66.90201,0.35699 78.1211,-3.38867 -15.002,-12.068 -30.94255,-22.90448 -53.93555,-24.52148 -0.002,-0.01 -0.002,-0.0197 -0.004,-0.0293 z"
         id="path837" />
      <path
         inkscape:connector-curvature="0"
         style="fill:url(#radialGradient832);fill-opacity:1"
         d="m 764.47852,199.7207 c 1.15796,3.12704 1.76514,5.50676 1.70898,6.56446 -0.99,18.622 -6.97909,37.32962 -10.99609,53.89062 -7.99,-11.08 -20.67671,-17.03822 -33.22071,-16.57422 -4.64,0.171 -9.26133,1.22003 -13.61132,3.20703 -8.70002,3.976 -16.02691,11.91305 -19.62891,22.74805 -3.603,10.835 -3.73347,24.34566 0.39453,40.59766 6.371,25.08 6.2957,69.20422 7.7207,106.69922 0.712,18.747 1.7985,35.87787 4.8125,49.29687 1.507,6.709 3.40435,12.55006 6.77735,17.53906 3.372,4.988 9.42381,9.27 16.17383,9.25 l 0.33593,-0.002 0.33399,-0.0254 a 43.534,43.534 0 0 0 3.38281,-0.39844 c -2.25241,18.64412 8.99513,36.54302 11.69922,53.05274 a 111.60302,100.48107 0 0 1 7.3789,26.19336 c 5.39824,1.27665 11.017,2.25523 16.70899,2.99023 a 93.016953,62.915253 0 0 1 24.18359,-27.94336 c -1.68136,-10.02888 -2.82684,-21.34724 -2.18945,-30.21875 25.48459,-100.2848 58.37939,-193.63578 30.45898,-315.59375 a 145.7359,83.989906 0 0 1 -20.10156,0.89648 145.7359,83.989906 0 0 1 -32.32226,-2.16992 z m -41.26758,62.8086 c 7.29025,0.1225 14.81115,4.08372 18.78515,10.32422 h 0.002 c 18.134,32.064 26.54473,83.77228 22.80273,126.73828 -1.871,21.483 -6.77201,40.78592 -14.04101,54.16992 -4.19,6.172 -22.24116,27.4857 -27.41016,19.8457 -1.247,-1.844 -2.888,-5.89339 -4.125,-11.40039 -2.474,-11.016 -3.69453,-27.62011 -4.39453,-46.03711 -1.4,-36.833 -0.71481,-80.75131 -8.25781,-110.44531 -3.515,-13.837 -2.96877,-23.85024 -0.75977,-30.49023 3.05,-9.1115 10.10819,-12.82758 17.39844,-12.70508 z"
         id="path839" />
      <path
         style="fill:#9a6159;fill-opacity:1;stroke:none;stroke-width:1px;stroke-linecap:butt;stroke-linejoin:miter;stroke-opacity:1"
         d="m 906.04102,165.45117 c 0,0 -67.82471,-14.95789 -105.22746,2.41324 38.33656,12.31572 105.22746,-2.41324 105.22746,-2.41324 z"
         id="path851"
         inkscape:connector-curvature="0"
         sodipodi:nodetypes="ccc" />
    </g>
  </g>
</svg>
