<?xml version="1.0" encoding="UTF-8" standalone="no"?>
<svg
   xmlns:dc="http://purl.org/dc/elements/1.1/"
   xmlns:cc="http://creativecommons.org/ns#"
   xmlns:rdf="http://www.w3.org/1999/02/22-rdf-syntax-ns#"
   xmlns:svg="http://www.w3.org/2000/svg"
   xmlns="http://www.w3.org/2000/svg"
   xmlns:xlink="http://www.w3.org/1999/xlink"
   xmlns:sodipodi="http://sodipodi.sourceforge.net/DTD/sodipodi-0.dtd"
   xmlns:inkscape="http://www.inkscape.org/namespaces/inkscape"
   style="height: 512px; width: 512px;"
   viewBox="0 0 512 512"
   version="1.1"
   id="svg8"
   sodipodi:docname="pet-3.svg"
   inkscape:version="0.92.4 (5da689c313, 2019-01-14)">
  <metadata
     id="metadata14">
    <rdf:RDF>
      <cc:Work
         rdf:about="">
        <dc:format>image/svg+xml</dc:format>
        <dc:type
           rdf:resource="http://purl.org/dc/dcmitype/StillImage" />
        <dc:title />
      </cc:Work>
    </rdf:RDF>
  </metadata>
  <defs
     id="defs12">
    <linearGradient
       inkscape:collect="always"
       id="linearGradient844">
      <stop
         style="stop-color:#0c0d10;stop-opacity:1"
         offset="0"
         id="stop840" />
      <stop
         id="stop848"
         offset="0.26063433"
         style="stop-color:#363636;stop-opacity:1" />
      <stop
         style="stop-color:#616161;stop-opacity:1"
         offset="0.84917134"
         id="stop852" />
      <stop
         style="stop-color:#5e5e5e;stop-opacity:1"
         offset="1"
         id="stop842" />
    </linearGradient>
    <linearGradient
       inkscape:collect="always"
       xlink:href="#linearGradient844"
       id="linearGradient846"
       x1="292.54001"
       y1="38.957001"
       x2="419.25259"
       y2="472.52505"
       gradientUnits="userSpaceOnUse" />
    <linearGradient
       inkscape:collect="always"
       xlink:href="#linearGradient844"
       id="linearGradient850"
       gradientUnits="userSpaceOnUse"
       x1="292.54001"
       y1="38.957001"
       x2="419.25259"
       y2="472.52505" />
  </defs>
  <sodipodi:namedview
     pagecolor="#ffffff"
     bordercolor="#666666"
     borderopacity="1"
     objecttolerance="10"
     gridtolerance="10"
     guidetolerance="10"
     inkscape:pageopacity="0"
     inkscape:pageshadow="2"
     inkscape:window-width="1920"
     inkscape:window-height="1080"
     id="namedview10"
     showgrid="false"
     inkscape:zoom="0.4609375"
     inkscape:cx="892.84811"
     inkscape:cy="239.12581"
     inkscape:window-x="2308"
     inkscape:window-y="129"
     inkscape:window-maximized="0"
     inkscape:current-layer="svg8" />
  <circle
     style="opacity:1;vector-effect:none;fill:#000000;fill-opacity:1;stroke:none;stroke-width:32;stroke-linecap:butt;stroke-linejoin:miter;stroke-miterlimit:4;stroke-dasharray:none;stroke-dashoffset:0;stroke-opacity:1;paint-order:normal"
     id="path836"
     cx="323.25424"
     cy="159.45763"
     r="26.033897" />
  <g
     id="g834"
     transform="translate(0,0)"
     style="stroke:#000000;stroke-opacity:1;stroke-width:32;stroke-miterlimit:4;stroke-dasharray:none;fill:none"
     class="">
    <path
       id="path832"
       d="m 432.766,87.746 -7.043,-2.28 c -27.146,-8.797 -71.525,-7.15 -97.6,0.11 L 321.22,87.5 292.54,38.957 c -33.63,69.254 -32.264,117.56 -14.79,148.574 18.71,33.208 57.378,49.09 99.117,48.574 48.743,-0.606 88.968,-19.665 107.035,-54.194 16.918,-32.332 15.684,-80.456 -20.4425,-144.9025 z m -108.831,49.848 c 18.45,0.1 29.36,15.338 31.462,36.644 -37.11,17.91 -53.963,3.398 -61.173,-26.545 11.382,-7.063 21.324,-10.144 29.71,-10.1 z m 109.26,0 c 8.385,-0.045 18.328,3.036 29.71,10.1 -7.21,29.942 -24.064,44.454 -61.174,26.544 2.104,-21.306 13.014,-36.545 31.463,-36.644 z m -293.553,50.96 c -1.226,-0.01 -2.446,-0.003 -3.66,0.018 -30.175,0.536 -56.142,10.59 -75.743,26.574 -43.444,35.43 -57.27,100.752 -12.824,166.192 20.293,33.995 44.432,54.24 70.797,64.187 32.85,12.395 66.655,8.823 99.94,4.114 33.284,-4.71 65.854,-10.63 96.896,-8.42 31.04,2.212 62.09,10.18 90.505,41.165 19.374,21.125 46.887,-1.627 23.82,-24.156 -35.024,-34.207 -72.527,-47.42 -109.377,-50.04 -36.85,-2.62 -72.2,4.698 -104.207,9.228 -32.007,4.53 -60.272,6.552 -84.558,-2.61 -14.39,-5.43 -28.308,-14.802 -41.55,-31.142 h 351.744 c 13.673,-52.293 14.867,-106.368 1.873,-142.072 -19.765,8.49 -42.412,12.9 -66.2,13.197 h -0.002 c -29.85,0.37 -59.458,-6.925 -82.907,-22.823 -4.647,3.012 -9.407,6.23 -14.292,9.685 l -5.734,4.057 -5.49,-4.382 c -46.63,-37.2 -91.028,-52.48 -129.03,-52.773 z"
       style="fill:none;fill-opacity:1;stroke:#000000;stroke-width:32;stroke-miterlimit:4;stroke-dasharray:none;stroke-opacity:1"
       inkscape:connector-curvature="0"
       sodipodi:nodetypes="cccccccccccccccccccccccccccccsscccccccccccc" />
  </g>
  <circle
     r="26.033897"
     cy="159.45763"
     cx="432.81357"
     id="circle838"
     style="opacity:1;vector-effect:none;fill:#000000;fill-opacity:1;stroke:none;stroke-width:32;stroke-linecap:butt;stroke-linejoin:miter;stroke-miterlimit:4;stroke-dasharray:none;stroke-dashoffset:0;stroke-opacity:1;paint-order:normal" />
  <g
     class=""
     style="fill-opacity:1;fill:url(#linearGradient846)"
     transform="translate(0,0)"
     id="g6">
    <path
       d="m 463.46,37.008 -30.694,50.738 -7.043,-2.28 c -27.146,-8.797 -71.525,-7.15 -97.6,0.11 L 321.22,87.5 292.54,38.957 c -33.63,69.254 -32.264,117.56 -14.79,148.574 18.71,33.208 57.378,49.09 99.117,48.574 48.743,-0.606 88.968,-19.665 107.035,-54.194 16.918,-32.332 15.684,-80.456 -20.443,-144.902 m 0,0 10e-4,-10e-4 M 323.935,137.594 c 18.45,0.1 29.36,15.338 31.462,36.644 -37.11,17.91 -53.963,3.398 -61.173,-26.545 11.382,-7.063 21.324,-10.144 29.71,-10.1 z m 109.26,0 c 8.385,-0.045 18.328,3.036 29.71,10.1 -7.21,29.942 -24.064,44.454 -61.174,26.544 2.104,-21.306 13.014,-36.545 31.463,-36.644 z m -293.553,50.96 c -1.226,-0.01 -2.446,-0.003 -3.66,0.018 -30.175,0.536 -56.142,10.59 -75.743,26.574 -43.444,35.43 -57.27,100.752 -12.824,166.192 20.293,33.995 44.432,54.24 70.797,64.187 32.85,12.395 66.655,8.823 99.94,4.114 33.284,-4.71 65.854,-10.63 96.896,-8.42 31.04,2.212 62.09,10.18 90.505,41.165 19.374,21.125 46.887,-1.627 23.82,-24.156 -35.024,-34.207 -72.527,-47.42 -109.377,-50.04 -36.85,-2.62 -72.2,4.698 -104.207,9.228 -32.007,4.53 -60.272,6.552 -84.558,-2.61 -14.39,-5.43 -28.308,-14.802 -41.55,-31.142 h 351.744 c 13.673,-52.293 14.867,-106.368 1.873,-142.072 -19.765,8.49 -42.412,12.9 -66.2,13.197 h -0.002 c -29.85,0.37 -59.458,-6.925 -82.907,-22.823 -4.647,3.012 -9.407,6.23 -14.292,9.685 l -5.734,4.057 -5.49,-4.382 c -46.63,-37.2 -91.028,-52.48 -129.03,-52.773 z"
       id="path4"
       inkscape:connector-curvature="0"
       style="fill:url(#linearGradient850);fill-opacity:1"
       sodipodi:nodetypes="cccccccccccccccccccccccccccccccsscccccccccccc" />
  </g>
</svg>
