<?xml version="1.0" encoding="UTF-8" standalone="no"?>
<svg
   xmlns:dc="http://purl.org/dc/elements/1.1/"
   xmlns:cc="http://creativecommons.org/ns#"
   xmlns:rdf="http://www.w3.org/1999/02/22-rdf-syntax-ns#"
   xmlns:svg="http://www.w3.org/2000/svg"
   xmlns="http://www.w3.org/2000/svg"
   xmlns:xlink="http://www.w3.org/1999/xlink"
   xmlns:sodipodi="http://sodipodi.sourceforge.net/DTD/sodipodi-0.dtd"
   xmlns:inkscape="http://www.inkscape.org/namespaces/inkscape"
   style="height: 512px; width: 512px;"
   viewBox="0 0 512 512"
   version="1.1"
   id="svg8"
   sodipodi:docname="pet-phoenix.svg"
   inkscape:version="0.92.4 (5da689c313, 2019-01-14)">
  <metadata
     id="metadata14">
    <rdf:RDF>
      <cc:Work
         rdf:about="">
        <dc:format>image/svg+xml</dc:format>
        <dc:type
           rdf:resource="http://purl.org/dc/dcmitype/StillImage" />
        <dc:title></dc:title>
      </cc:Work>
    </rdf:RDF>
  </metadata>
  <defs
     id="defs12">
    <linearGradient
       inkscape:collect="always"
       id="linearGradient854">
      <stop
         style="stop-color:#ff0000;stop-opacity:1"
         offset="0"
         id="stop850" />
      <stop
         id="stop858"
         offset="0.74679726"
         style="stop-color:#ff5555;stop-opacity:1" />
      <stop
         style="stop-color:#930000;stop-opacity:1"
         offset="1"
         id="stop852" />
    </linearGradient>
    <linearGradient
       inkscape:collect="always"
       id="linearGradient834">
      <stop
         style="stop-color:#ff7f2a;stop-opacity:1;"
         offset="0"
         id="stop830" />
      <stop
         id="stop838"
         offset="0.63400352"
         style="stop-color:#ff7f2a;stop-opacity:1" />
      <stop
         style="stop-color:#ff5555;stop-opacity:1"
         offset="1"
         id="stop832" />
    </linearGradient>
    <linearGradient
       inkscape:collect="always"
       id="linearGradient822">
      <stop
         style="stop-color:#ffffff;stop-opacity:1"
         offset="0"
         id="stop818" />
      <stop
         id="stop826"
         offset="0.29119098"
         style="stop-color:#ffe680;stop-opacity:1" />
      <stop
         style="stop-color:#ffe680;stop-opacity:1"
         offset="0.539056"
         id="stop828" />
      <stop
         style="stop-color:#ff7f2a;stop-opacity:1"
         offset="1"
         id="stop820" />
    </linearGradient>
    <radialGradient
       inkscape:collect="always"
       xlink:href="#linearGradient822"
       id="radialGradient824"
       cx="258.32416"
       cy="213.95187"
       fx="258.32416"
       fy="213.95187"
       r="184.0918"
       gradientTransform="matrix(1.3649002,0.00384108,-0.00289455,1.0285567,-93.643233,-7.5928778)"
       gradientUnits="userSpaceOnUse" />
    <radialGradient
       inkscape:collect="always"
       xlink:href="#linearGradient834"
       id="radialGradient836"
       cx="258.35077"
       cy="261.52864"
       fx="258.35077"
       fy="261.52864"
       r="232.17823"
       gradientTransform="matrix(1,0,0,1.0520178,0,-13.604148)"
       gradientUnits="userSpaceOnUse" />
    <radialGradient
       inkscape:collect="always"
       xlink:href="#linearGradient854"
       id="radialGradient856"
       cx="260.9427"
       cy="251.98929"
       fx="260.9427"
       fy="251.98929"
       r="242.68512"
       gradientTransform="matrix(1,0,0,1.062537,0,-15.758642)"
       gradientUnits="userSpaceOnUse" />
    <radialGradient
       inkscape:collect="always"
       xlink:href="#linearGradient854"
       id="radialGradient868"
       gradientUnits="userSpaceOnUse"
       gradientTransform="matrix(1,0,0,1.062537,0,-15.758642)"
       cx="260.9427"
       cy="251.98929"
       fx="260.9427"
       fy="251.98929"
       r="242.68512" />
    <radialGradient
       inkscape:collect="always"
       xlink:href="#linearGradient834"
       id="radialGradient870"
       gradientUnits="userSpaceOnUse"
       gradientTransform="matrix(1,0,0,1.0520178,0,-13.604148)"
       cx="258.35077"
       cy="261.52864"
       fx="258.35077"
       fy="261.52864"
       r="232.17823" />
    <radialGradient
       inkscape:collect="always"
       xlink:href="#linearGradient822"
       id="radialGradient872"
       gradientUnits="userSpaceOnUse"
       gradientTransform="matrix(1.3649002,0.00384108,-0.00289455,1.0285567,-93.643233,-7.5928778)"
       cx="258.32416"
       cy="213.95187"
       fx="258.32416"
       fy="213.95187"
       r="184.0918" />
  </defs>
  <sodipodi:namedview
     pagecolor="#ffffff"
     bordercolor="#666666"
     borderopacity="1"
     objecttolerance="10"
     gridtolerance="10"
     guidetolerance="10"
     inkscape:pageopacity="0"
     inkscape:pageshadow="2"
     inkscape:window-width="1554"
     inkscape:window-height="1035"
     id="namedview10"
     showgrid="false"
     inkscape:zoom="0.70710678"
     inkscape:cx="-88.721642"
     inkscape:cy="507.88024"
     inkscape:window-x="2232"
     inkscape:window-y="160"
     inkscape:window-maximized="0"
     inkscape:current-layer="svg8" />
  <g
     id="g866"
     transform="matrix(0.95064055,0,0,0.95064055,12.879988,12.438053)">
    <g
       class=""
       id="g4539"
       style="fill:none;fill-opacity:1;stroke:url(#radialGradient856);stroke-width:16;stroke-miterlimit:4;stroke-dasharray:none;stroke-opacity:1">
      <path
         d="m 38.643,17.275 c -18.287115,55.631427 65.36156,86.08099 103.8797,105.26607 0,0 -89.7477,-19.21307 -115.7527,-31.93907 -8.543291,48.9855 76.79587,33.23825 111.49423,57.96485 0,0 -82.36423,1.92315 -106.07323,1.29315 6.717022,46.94363 76.4516,8.71135 110.31848,26.8116 0,0 -68.74848,15.5394 -89.88348,24.7154 19.42529,20.41846 70.43622,-0.41737 101.17533,3.89454 L 92.669,243.857 c 17.29575,15.22227 60.32706,-14.74986 86.78994,-9.42378 L 133.159,273.018 c 19.91,13.99 40.34889,-14.07995 61.15,1.718 -0.804,6.438 11.34801,28.24711 11.17401,35.51711 -8.91392,62.53173 -27.68545,72.81573 -46.86123,155.65509 38.03243,-41.70685 37.95894,-52.4215 53.85719,-76.1043 -9.20251,38.75541 -9.21669,55.39045 -1.86246,94.41361 9.89949,-20.85965 25.12029,-94.22883 25.12029,-94.22883 13.60719,43.25262 15.23495,41.80562 35.08656,85.2219 6.26355,-59.57534 -17.83998,-78.37391 2.04764,-163.31858 6.416,-8.725 11.636,-17.086 15.786,-25.042 40.06017,-5.41675 52.34322,36.48576 75.84,29.93 -24.26227,-24.52721 -36.43871,-43.83195 -36.43871,-43.83195 23.11104,-9.20526 68.31044,27.16577 83.50742,14.82785 -29.28814,-16.81356 -60.19339,-40.98046 -60.19339,-40.98046 33.49595,-7.95967 80.85409,23.77697 95.21468,8.96856 -21.07136,-9.85014 -82.29761,-39.91357 -82.29761,-39.91357 34.03038,-6.39588 91.52977,17.19756 107.16261,-5.07843 -19.626,-4.04 -92.74143,-19.33736 -92.74143,-19.33736 C 417.40508,174.78013 479.32961,187.95 490.529,158.058 c -23.616,6.897 -101.423,8.03 -101.423,8.03 44.44694,-38.65726 105.02429,-23.33715 96.584,-73.088 -84.44,76.087 -173.95,30.858 -210.133,83.916 -5.043,-1.298 -10.115,-1.43 -14.932,-0.56 C 245.925,95.661 121.592,122.932 38.643,17.273 Z M 293,226.155 l -9.643,45.806 -23.623,-44.347 c 10.196,4.382 20.545,8.023 33.266,-1.457 z"
         id="path4537"
         inkscape:connector-curvature="0"
         style="fill:none;fill-opacity:1;stroke:url(#radialGradient868);stroke-width:16;stroke-miterlimit:4;stroke-dasharray:none;stroke-opacity:1"
         sodipodi:nodetypes="cccccccccccccccccccccccccccccccccccccccc" />
    </g>
    <g
       style="fill:url(#radialGradient836);fill-opacity:1"
       id="g6"
       class="">
      <path
         sodipodi:nodetypes="cccccccccccccccccccccccccccccccccccccccc"
         style="fill:url(#radialGradient870);fill-opacity:1"
         inkscape:connector-curvature="0"
         id="path4"
         d="m 38.643,17.275 c -18.287115,55.631427 65.36156,86.08099 103.8797,105.26607 0,0 -89.7477,-19.21307 -115.7527,-31.93907 -8.543291,48.9855 76.79587,33.23825 111.49423,57.96485 0,0 -82.36423,1.92315 -106.07323,1.29315 6.717022,46.94363 76.4516,8.71135 110.31848,26.8116 0,0 -68.74848,15.5394 -89.88348,24.7154 19.42529,20.41846 70.43622,-0.41737 101.17533,3.89454 L 92.669,243.857 c 17.29575,15.22227 60.32706,-14.74986 86.78994,-9.42378 L 133.159,273.018 c 19.91,13.99 40.34889,-14.07995 61.15,1.718 -0.804,6.438 11.34801,28.24711 11.17401,35.51711 -8.91392,62.53173 -27.68545,72.81573 -46.86123,155.65509 29.9007,-60.44518 37.95894,-52.4215 53.85719,-76.1043 -9.20251,38.75541 -0.0243,77.66431 -4.69089,115.98037 L 235.7368,389.98868 c 11.48587,31.2318 19.83114,37.91653 35.08656,85.2219 6.26355,-59.57534 -17.83998,-78.37391 2.04764,-163.31858 6.416,-8.725 11.636,-17.086 15.786,-25.042 40.06017,-5.41675 52.34322,36.48576 75.84,29.93 -24.26227,-24.52721 -36.43871,-43.83195 -36.43871,-43.83195 23.11104,-9.20526 68.31044,27.16577 83.50742,14.82785 -29.28814,-16.81356 -60.19339,-40.98046 -60.19339,-40.98046 33.49595,-7.95967 80.85409,23.77697 95.21468,8.96856 -21.07136,-9.85014 -82.29761,-39.91357 -82.29761,-39.91357 34.03038,-6.39588 91.52977,17.19756 107.16261,-5.07843 -19.626,-4.04 -92.74143,-19.33736 -92.74143,-19.33736 C 417.40508,174.78013 479.32961,187.95 490.529,158.058 c -23.616,6.897 -101.423,8.03 -101.423,8.03 44.44694,-38.65726 105.02429,-23.33715 96.584,-73.088 -84.44,76.087 -173.95,30.858 -210.133,83.916 -5.043,-1.298 -10.115,-1.43 -14.932,-0.56 C 245.925,95.661 121.592,122.932 38.643,17.273 Z M 293,226.155 l -9.643,45.806 -23.623,-44.347 c 10.196,4.382 20.545,8.023 33.266,-1.457 z" />
    </g>
    <g
       class=""
       id="g4547"
       style="fill:url(#radialGradient824);fill-opacity:1;stroke:none;stroke-opacity:1">
      <path
         id="path4545"
         d="m 47.111328,41.789062 c 0.783422,2.734887 1.799627,5.430728 3.230469,8.105469 4.830108,9.029151 13.650326,17.816335 24.65625,25.78125 22.011847,15.929831 51.935173,28.206079 71.873043,38.136719 a 9.752956,9.752956 0 0 1 -6.38867,18.26367 c 0,0 -22.57084,-4.83042 -48.439451,-11.26953 -18.636285,-4.63887 -38.461293,-9.8593 -53.873047,-15.20117 0.943782,1.23612 2.081418,2.40456 3.582031,3.58984 5.093293,4.02301 14.809345,7.42361 26.59375,9.95117 23.568811,5.05514 54.355057,6.35463 75.578127,21.47852 a 9.752956,9.752956 0 0 1 -5.43164,17.69141 c 0,0 -59.099938,1.35896 -91.730471,1.33203 1.245017,1.03024 2.650686,1.90011 4.453125,2.64258 5.382286,2.21709 14.5713,2.7414 25.33789,2.05859 21.533182,-1.36563 48.647986,-7.98635 70.552736,3.7207 a 9.752956,9.752956 0 0 1 -2.44531,18.11328 c 0,0 -17.08105,3.86183 -36.76758,8.85743 -6.58865,1.67191 -13.260988,3.55925 -19.912111,5.40429 3.213567,-0.18357 6.444822,-0.37768 9.912109,-0.76367 18.400242,-2.04835 39.019322,-6.61781 57.263672,-4.05859 a 9.752956,9.752956 0 0 1 3.84961,17.90625 l -33.625,21.21875 c 1.49539,-0.42649 2.86447,-0.75241 4.41406,-1.22266 15.91526,-4.82976 33.88528,-12.21528 51.58789,-8.65234 a 9.752956,9.752956 0 0 1 4.31836,17.05273 l -27.02344,22.51953 c 0.60012,-0.1909 1.10297,-0.32462 1.72461,-0.52539 5.17131,-1.67014 11.09833,-3.63777 18.01368,-3.89453 6.91534,-0.25676 14.87046,1.68932 21.79101,6.94531 a 9.752956,9.752956 0 0 1 3.7793,8.97461 c 0.25723,-2.05977 0.13161,0.33422 1.0039,2.94531 0.87229,2.6111 2.24867,6.04738 3.70118,9.61719 1.45251,3.56982 2.97921,7.27905 4.21484,10.83008 1.23563,3.55103 2.43743,6.49993 2.32617,11.14844 a 9.752956,9.752956 0 0 1 -0.0957,1.14453 c -4.58139,32.13875 -11.93607,51.60945 -20.16797,72.42187 -2.44173,6.17335 -4.98723,12.69946 -7.57617,19.59375 6.12862,-6.20181 11.01942,-10.38584 16.98828,-19.27734 a 9.752956,9.752956 0 0 1 17.58594,7.68945 c -2.21063,9.30981 -3.21956,18.79268 -3.625,28.42969 l 7.91406,-32.78711 a 9.752956,9.752956 0 0 1 18.63281,-1.07812 c 4.91447,13.36317 9.38157,22.33137 14.12891,32.24414 -0.65971,-4.75778 -1.34487,-9.54237 -1.96094,-14.62891 -2.82781,-23.34776 -3.8612,-51.08909 6.31836,-94.56836 a 9.752956,9.752956 0 0 1 1.63867,-3.55469 c 6.14958,-8.3627 11.10082,-16.30772 14.9961,-23.77539 a 9.752956,9.752956 0 0 1 0.6289,-1.02734 9.752956,9.752956 0 0 1 -5.88867,-4.76758 l -23.62305,-44.34765 a 9.752956,9.752956 0 0 1 12.45899,-13.54297 c 4.89857,2.10529 8.94784,3.52048 12.32226,3.68945 3.37443,0.16897 6.39877,-0.38237 11.26368,-4.00781 a 9.752956,9.752956 0 0 1 15.37109,9.83008 l -9.64258,45.80468 a 9.752956,9.752956 0 0 1 -1.14844,2.9336 c 12.88639,-0.77562 23.65774,2.67532 32.48243,7.57812 -2.62178,-3.67543 -4.42383,-6.33203 -4.42383,-6.33203 a 9.752956,9.752956 0 0 1 4.63867,-14.26367 c 8.8439,-3.52258 17.95083,-2.39316 26.625,-0.23438 3.84886,0.95789 7.66568,2.23373 11.4414,3.56836 -9.44466,-6.85284 -17.15039,-12.74414 -17.15039,-12.74414 a 9.752956,9.752956 0 0 1 3.75391,-17.16992 c 13.91244,-3.30602 28.09629,-1.07026 41.36524,2.21484 -15.99591,-7.80684 -30.49415,-14.91796 -30.49415,-14.91796 a 9.752956,9.752956 0 0 1 2.49805,-18.3379 c 13.9309,-2.61825 29.06203,-1.03109 43.86524,0.89454 -10.79342,-2.25592 -29.63868,-6.17969 -29.63868,-6.17969 a 9.752956,9.752956 0 0 1 -1.85937,-18.50195 c 7.33032,-3.15505 15.11459,-5.26292 23.00195,-6.83594 -3.89891,0.0893 -8.60937,0.19531 -8.60937,0.19531 a 9.752956,9.752956 0 0 1 -6.54297,-17.10742 c 5.08118,-4.4193 10.34342,-8.06058 15.63672,-11.31445 -12.04538,2.64022 -23.68888,4.4452 -34.56641,5.8496 -18.90544,2.4409 -35.7392,4.1868 -49.21094,8.20118 -13.47173,4.01437 -23.32324,9.75792 -30.95117,20.94336 a 9.752956,9.752956 0 0 1 -10.48828,3.94922 c -3.66973,-0.94454 -7.29923,-1.03267 -10.76758,-0.40626 a 9.752956,9.752956 0 0 1 -11.32617,-7.8496 C 247.80802,160.40974 239.39218,149.74679 225.83594,140.32227 212.2797,130.89774 193.3948,123.52605 171.75781,115.29102 133.72176,100.81449 87.15548,83.192974 47.111328,41.789062 Z"
         style="fill:url(#radialGradient872);fill-opacity:1;stroke:none;stroke-opacity:1"
         inkscape:connector-curvature="0" />
    </g>
  </g>
</svg>
