<?xml version="1.0" encoding="UTF-8" standalone="no"?>
<svg
   xmlns:dc="http://purl.org/dc/elements/1.1/"
   xmlns:cc="http://creativecommons.org/ns#"
   xmlns:rdf="http://www.w3.org/1999/02/22-rdf-syntax-ns#"
   xmlns:svg="http://www.w3.org/2000/svg"
   xmlns="http://www.w3.org/2000/svg"
   xmlns:xlink="http://www.w3.org/1999/xlink"
   xmlns:sodipodi="http://sodipodi.sourceforge.net/DTD/sodipodi-0.dtd"
   xmlns:inkscape="http://www.inkscape.org/namespaces/inkscape"
   style="height: 512px; width: 512px;"
   viewBox="0 0 512 512"
   version="1.1"
   id="svg8"
   sodipodi:docname="pet-pig.svg"
   inkscape:version="0.92.4 (5da689c313, 2019-01-14)">
  <metadata
     id="metadata14">
    <rdf:RDF>
      <cc:Work
         rdf:about="">
        <dc:format>image/svg+xml</dc:format>
        <dc:type
           rdf:resource="http://purl.org/dc/dcmitype/StillImage" />
        <dc:title></dc:title>
      </cc:Work>
    </rdf:RDF>
  </metadata>
  <defs
     id="defs12">
    <linearGradient
       inkscape:collect="always"
       id="linearGradient849">
      <stop
         style="stop-color:#f4d2c8;stop-opacity:1"
         offset="0"
         id="stop845" />
      <stop
         style="stop-color:#6f3d27;stop-opacity:1"
         offset="1"
         id="stop847" />
    </linearGradient>
    <linearGradient
       inkscape:collect="always"
       xlink:href="#linearGradient849"
       id="linearGradient851"
       x1="253.43059"
       y1="108.47414"
       x2="249.89143"
       y2="405.69446"
       gradientUnits="userSpaceOnUse" />
  </defs>
  <sodipodi:namedview
     pagecolor="#ffffff"
     bordercolor="#666666"
     borderopacity="1"
     objecttolerance="10"
     gridtolerance="10"
     guidetolerance="10"
     inkscape:pageopacity="0"
     inkscape:pageshadow="2"
     inkscape:window-width="1920"
     inkscape:window-height="1080"
     id="namedview10"
     showgrid="false"
     inkscape:zoom="0.65186406"
     inkscape:cx="-136.78082"
     inkscape:cy="302.52661"
     inkscape:window-x="2232"
     inkscape:window-y="160"
     inkscape:window-maximized="0"
     inkscape:current-layer="svg8" />
  <g
     id="g856"
     transform="matrix(0.94565299,0,0,0.94565299,13.731344,13.912812)">
    <g
       class=""
       style="fill:none;fill-opacity:1;stroke:#000000;stroke-width:32;stroke-miterlimit:4;stroke-dasharray:none;stroke-opacity:1"
       id="g834">
      <path
         sodipodi:nodetypes="ccccccccccccccccccccccccccsccccccccccccccccccccccccccccccccccccccc"
         inkscape:connector-curvature="0"
         style="fill:#0a0a0a;fill-opacity:1;stroke:#000000;stroke-width:32;stroke-miterlimit:4;stroke-dasharray:none;stroke-opacity:1"
         d="m 213.705,344.935 2.7,53.87 h -26.24 l -19.46,-55.41 z m 150.56,0.33 -0.34,4.38 18.15,49.16 h 24.44 l -5.66,-56.51 c -12.12462,1.6754 -24.33393,2.66697 -36.57,2.97 z m 32.79,-164.08 c 4.37142,-0.0561 8.73295,-0.43042 13.05,-1.12 51.2,-7.62 36.49,-49.56 36.49,-49.56 0,0 -40.36,9 -52.83,23.42 0.02,0 -28.12,27.26 3.31,27.26 z m 81.85,-25.33 c 0,0 -6.81,0 -15.92,0.82 -2.14116,8.74804 -6.75068,16.6967 -13.28,22.9 2.79852,4.52145 5.28432,9.22911 7.44,14.09 25.25,-9.43 21.79,-37.81 21.79,-37.81 z m 11.8,100.18 v 41.49 c 0,0 -53.15,31.9 -134.5,31.9 -2.19,0 -4.44,-0.15 -6.67,-0.2 l -5.48,69.58 h -19 l -24.45,-66.86 -162.59,-5.87 -9.4,72.73 h -22.63 c 0,0 -48.15,-101.58 -23.18,-182.06 -5.55,-3.84 -11.38,-8.17 -16.73,-12.7 -5.13,2.65 -10.26,4.11 -15,3.85 -15.76,-0.85 -28.37,-12.73 -29.78,-14.09 l 11.16,-11.46 c 2.6,2.5 11.21,9.13 19.48,9.57 0.568973,0.0245 1.138927,-0.0124 1.7,-0.11 -1.712045,-2.02156 -3.247665,-4.18615 -4.59,-6.47 -5.65,-9.83 -7,-20.32 -3.84,-28.79 2.771279,-7.12568 8.639233,-12.59974 15.94,-14.87 11.29,-3.81 26.85,-3.35 34.75,4.9 2.94,3.07 7.24,9.84 3,20.7 -3.59,9.29 -10.85,19.34 -19.36,27.12 2.87,2.3 5.94,4.61 9.09,6.87 9.46,-20.85 24.84,-39.58 48.52,-53.76 37.41808,-22.56089 80.30684,-34.42794 124,-34.31 42.02799,0.11667 83.39697,10.45377 120.54,30.12 -2.8168,2.88548 -5.41403,5.97742 -7.77,9.25 -7.6,10.67 -9.67,20.49 -6.15,29.19 2.85,7 10.23,15.42 29.24,15.42 5.16164,-0.054 10.31227,-0.48847 15.41,-1.3 8.32569,-1.12611 16.42375,-3.54878 24,-7.18 15.75,25.72 17.22,58.67 28,61 12.79,2.72 26.29,6.34 26.29,6.34 z m -406.69,-94.52 c 0.43,-1.12 1.05,-3.11 0.32,-3.87 -1.32,-1.38 -4.81,-2.26 -8.92,-2.26 -3.10949,-0.0177 -6.201831,0.46163 -9.16,1.42 -3.13,1.05 -5.12,2.81 -6.09,5.38 -1.46,3.95 -0.46,9.62 2.75,15.19 1.365309,2.25086 2.971424,4.34652 4.79,6.25 6.66,-5.82 13.19,-14.04 16.31,-22.11 z"
         id="path832" />
    </g>
    <path
       d="m 213.705,344.935 2.7,53.87 h -26.24 l -19.46,-55.41 z m 150.56,0.33 -0.34,4.38 18.15,49.16 h 24.44 l -5.66,-56.51 a 326.16,326.16 0 0 1 -36.57,2.97 z m 32.79,-164.08 a 90.06,90.06 0 0 0 13.05,-1.12 c 51.2,-7.62 36.49,-49.56 36.49,-49.56 0,0 -40.36,9 -52.83,23.42 0.02,0 -28.12,27.26 3.31,27.26 z m 81.85,-25.33 c 0,0 -6.81,0 -15.92,0.82 a 47,47 0 0 1 -13.28,22.9 116.55,116.55 0 0 1 7.44,14.09 c 25.25,-9.43 21.79,-37.81 21.79,-37.81 z m 11.8,100.18 v 41.49 c 0,0 -53.15,31.9 -134.5,31.9 -2.19,0 -4.44,-0.15 -6.67,-0.2 l -5.48,69.58 h -19 l -24.45,-66.86 -162.59,-5.87 -9.4,72.73 h -22.63 c 0,0 -48.15,-101.58 -23.18,-182.06 -5.55,-3.84 -11.38,-8.17 -16.73,-12.7 -5.13,2.65 -10.26,4.11 -15,3.85 -15.76,-0.85 -28.37,-12.73 -29.78,-14.09 l 11.16,-11.46 c 2.6,2.5 11.21,9.13 19.48,9.57 a 7.93,7.93 0 0 0 1.7,-0.11 46.36,46.36 0 0 1 -4.59,-6.47 c -5.65,-9.83 -7,-20.32 -3.84,-28.79 a 25.1,25.1 0 0 1 15.94,-14.87 c 11.29,-3.81 26.85,-3.35 34.75,4.9 2.94,3.07 7.24,9.84 3,20.7 -3.59,9.29 -10.85,19.34 -19.36,27.12 2.87,2.3 5.94,4.61 9.09,6.87 9.46,-20.85 24.84,-39.58 48.52,-53.76 a 238.9,238.9 0 0 1 124,-34.31 259.14,259.14 0 0 1 120.54,30.12 80.94,80.94 0 0 0 -7.77,9.25 c -7.6,10.67 -9.67,20.49 -6.15,29.19 2.85,7 10.23,15.42 29.24,15.42 a 105,105 0 0 0 15.41,-1.3 80.49,80.49 0 0 0 24,-7.18 c 15.75,25.72 17.22,58.67 28,61 12.79,2.72 26.29,6.34 26.29,6.34 z m -406.69,-94.52 c 0.43,-1.12 1.05,-3.11 0.32,-3.87 -1.32,-1.38 -4.81,-2.26 -8.92,-2.26 a 29.18,29.18 0 0 0 -9.16,1.42 c -3.13,1.05 -5.12,2.81 -6.09,5.38 -1.46,3.95 -0.46,9.62 2.75,15.19 a 36.3,36.3 0 0 0 4.79,6.25 c 6.66,-5.82 13.19,-14.04 16.31,-22.11 z m 331.14,81.55 a 9.05,9.05 0 1 0 -9.05,9.05 9.05,9.05 0 0 0 9.05,-9.05 z"
       id="path4"
       inkscape:connector-curvature="0"
       style="fill:url(#linearGradient851);fill-opacity:1" />
  </g>
</svg>
