<?xml version="1.0" encoding="UTF-8" standalone="no"?>
<svg
   xmlns:dc="http://purl.org/dc/elements/1.1/"
   xmlns:cc="http://creativecommons.org/ns#"
   xmlns:rdf="http://www.w3.org/1999/02/22-rdf-syntax-ns#"
   xmlns:svg="http://www.w3.org/2000/svg"
   xmlns="http://www.w3.org/2000/svg"
   xmlns:sodipodi="http://sodipodi.sourceforge.net/DTD/sodipodi-0.dtd"
   xmlns:inkscape="http://www.inkscape.org/namespaces/inkscape"
   style="height: 512px; width: 512px;"
   viewBox="0 0 512 512"
   version="1.1"
   id="svg8"
   sodipodi:docname="pet-turtle.svg"
   inkscape:version="0.92.4 (5da689c313, 2019-01-14)">
  <metadata
     id="metadata14">
    <rdf:RDF>
      <cc:Work
         rdf:about="">
        <dc:format>image/svg+xml</dc:format>
        <dc:type
           rdf:resource="http://purl.org/dc/dcmitype/StillImage" />
        <dc:title></dc:title>
      </cc:Work>
    </rdf:RDF>
  </metadata>
  <defs
     id="defs12" />
  <sodipodi:namedview
     pagecolor="#ffffff"
     bordercolor="#666666"
     borderopacity="1"
     objecttolerance="10"
     gridtolerance="10"
     guidetolerance="10"
     inkscape:pageopacity="0"
     inkscape:pageshadow="2"
     inkscape:window-width="1920"
     inkscape:window-height="1080"
     id="namedview10"
     showgrid="false"
     inkscape:zoom="0.65186406"
     inkscape:cx="-133.36886"
     inkscape:cy="191.52677"
     inkscape:window-x="2232"
     inkscape:window-y="160"
     inkscape:window-maximized="0"
     inkscape:current-layer="svg8" />
  <path
     sodipodi:nodetypes="sscccccscccccccccscccccss"
     style="fill:none;fill-opacity:1;stroke:#000000;stroke-opacity:1;stroke-width:32;stroke-miterlimit:4;stroke-dasharray:none"
     inkscape:connector-curvature="0"
     id="path835"
     d="m 258.406,25.03 c -13.73,0 -44.75,28.13 -44.75,62.814 0,31.578 6.432,55.835 16.5,70.937 -23.144,3.766 -44.237,12.52 -61.03,27.314 -2.99,2.633 -5.824,5.462 -8.5,8.47 -38.335,-36.232 -115.217,13.032 -137,39.28 -19.604,23.618 58.395,26.618 110.718,16.75 -1.837,9.754 -2.813,20.262 -2.813,31.53 0,39.603 11.68,76.216 31.157,104.282 -42.685,4.89 -61.916,64.204 -61.093,90.438 0.912,29.105 77,-17.718 105.5,-49.375 8.82,4.862 18.197,8.497 28,10.75 4.822,14.255 10.526,28.394 23.312,41.655 13.732,-13.89 18.762,-27.77 23.28,-41.656 9.815,-2.253 19.203,-5.883 28.033,-10.75 28.498,31.656 104.587,78.48 105.5,49.374 0.822,-26.234 -18.41,-85.55 -61.095,-90.438 19.477,-28.066 31.156,-64.68 31.156,-104.28 0,-11.27 -0.974,-21.778 -2.81,-31.532 52.322,9.868 130.32,6.868 110.717,-16.75 -21.784,-26.248 -98.666,-75.512 -137,-39.28 -2.677,-3.008 -5.51,-5.837 -8.5,-8.47 -16.86,-14.855 -38.058,-23.604 -61.312,-27.344 10.232,-15.31 16.78,-39.817 16.78,-70.906 0,-34.683 -31.018,-62.813 -44.75,-62.813 z" />
  <path
     d="m 258.406,25.03 c -13.73,0 -44.75,28.13 -44.75,62.814 0,31.578 6.432,55.835 16.5,70.937 -23.144,3.766 -44.237,12.52 -61.03,27.314 -2.99,2.633 -5.824,5.462 -8.5,8.47 -38.335,-36.232 -115.217,13.032 -137,39.28 -19.604,23.618 58.395,26.618 110.718,16.75 -1.837,9.754 -2.813,20.262 -2.813,31.53 0,39.603 11.68,76.216 31.157,104.282 -42.685,4.89 -61.916,64.204 -61.093,90.438 0.912,29.105 77,-17.718 105.5,-49.375 8.82,4.862 18.197,8.497 28,10.75 4.822,14.255 10.526,28.394 23.312,41.655 13.732,-13.89 18.762,-27.77 23.28,-41.656 9.815,-2.253 19.203,-5.883 28.033,-10.75 28.498,31.656 104.587,78.48 105.5,49.374 0.822,-26.234 -18.41,-85.55 -61.095,-90.438 19.477,-28.066 31.156,-64.68 31.156,-104.28 0,-11.27 -0.974,-21.778 -2.81,-31.532 52.322,9.868 130.32,6.868 110.717,-16.75 -21.784,-26.248 -98.666,-75.512 -137,-39.28 -2.677,-3.008 -5.51,-5.837 -8.5,-8.47 -16.86,-14.855 -38.058,-23.604 -61.312,-27.344 10.232,-15.31 16.78,-39.817 16.78,-70.906 0,-34.683 -31.018,-62.813 -44.75,-62.813 z"
     id="path833"
     inkscape:connector-curvature="0"
     style="fill:#324f77;fill-opacity:1"
     sodipodi:nodetypes="sscccccscccccccccscccccss" />
  <path
     style="fill:#3b3127;fill-opacity:1"
     inkscape:connector-curvature="0"
     id="path4"
     d="m 230.156,158.781 c -23.144,3.766 -44.237,12.52 -61.03,27.314 -2.99,2.633 -5.824,5.462 -8.5,8.47 l -26.282,56.03 c -1.837,9.754 -2.813,20.262 -2.813,31.53 0,39.603 11.68,76.216 31.157,104.282 l 44.407,41.063 c 8.82,4.862 18.197,8.497 28,10.75 l 46.592,-0.001 c 9.815,-2.253 19.203,-5.883 28.033,-10.75 l 44.405,-41.064 c 19.477,-28.066 31.156,-64.68 31.156,-104.28 0,-11.27 -0.974,-21.778 -2.81,-31.532 l -26.283,-56.03 c -2.677,-3.008 -5.51,-5.837 -8.5,-8.47 -16.86,-14.855 -38.058,-23.604 -61.312,-27.344 z"
     sodipodi:nodetypes="ccccsccccccsccccc" />
  <path
     d="m 230.156,158.781 c -23.144,3.766 -44.237,12.52 -61.03,27.314 -2.99,2.633 5.00253,-5.69792 -8.5,8.47 -13.50253,14.16792 -24.82113,44.10215 -26.282,56.03 -1.46087,11.92785 -2.813,20.262 -2.813,31.53 0,39.603 11.68,76.216 31.157,104.282 13.53177,27.8252 44.407,41.063 44.407,41.063 8.82,4.862 18.197,8.497 28,10.75 22.47568,6.53187 46.592,-0.001 46.592,-0.001 9.815,-2.253 19.203,-5.883 28.033,-10.75 0,0 26.16844,-17.9945 44.405,-41.064 19.477,-28.066 31.156,-64.68 31.156,-104.28 0,-11.27 -0.974,-21.778 -2.81,-31.532 0,0 -3.19434,-30.48544 -26.283,-56.03 -2.677,-3.008 -5.51,-5.837 -8.5,-8.47 -16.86,-14.855 -36.72976,-22.61034 -61.312,-27.344 -24.58224,-4.73366 -56.22,0.032 -56.22,0.032 z m 28.25,16.499 c 20.22,0 38.787,3.424 54.563,10.532 l -26.345,31.97 h -56.438 l -26.343,-31.97 c 15.775,-7.108 34.34,-10.53 54.562,-10.53 z m -70.937,20.032 25.75,31.25 -29.97,44.032 -4.28,6.28 5.31,5.47 36.532,37.625 -23.312,28.436 -5.28,6.438 5.78,6 27.125,28 13.438,-13 -21.344,-22.03 21.53,-26.22 h 39.313 l 21.53,26.22 -21.343,22.03 13.438,13 27.125,-28 5.78,-6 -5.28,-6.438 L 296,319.97 l 36.563,-37.626 5.25,-5.438 -4.22,-6.28 -29.718,-44.376 25.5,-30.938 c 2.06,1.506 4.06,3.1 5.97,4.782 19.106,16.832 31.25,42.762 31.25,82.03 0,78.538 -49.7,140.063 -108.19,140.063 -58.486,0 -108.186,-61.525 -108.186,-140.062 0,-39.27 12.14,-65.2 31.25,-82.03 1.913,-1.688 3.93,-3.273 6,-4.782 z m 41.593,41.157 h 59.156 l 25.655,38.25 -33.188,34.186 H 236.123 L 203,274.78 229.063,236.47 Z"
     id="path837"
     inkscape:connector-curvature="0"
     style="fill:#b3996b;fill-opacity:1"
     sodipodi:nodetypes="cczzsccccccsccczcccccccccccccccccccccccccccccccccccsssccccccccccc" />
</svg>
