<?xml version="1.0" encoding="UTF-8" standalone="no"?>
<svg
   xmlns:dc="http://purl.org/dc/elements/1.1/"
   xmlns:cc="http://creativecommons.org/ns#"
   xmlns:rdf="http://www.w3.org/1999/02/22-rdf-syntax-ns#"
   xmlns:svg="http://www.w3.org/2000/svg"
   xmlns="http://www.w3.org/2000/svg"
   xmlns:xlink="http://www.w3.org/1999/xlink"
   xmlns:sodipodi="http://sodipodi.sourceforge.net/DTD/sodipodi-0.dtd"
   xmlns:inkscape="http://www.inkscape.org/namespaces/inkscape"
   style="height: 45px; width: 45px;"
   viewBox="0 0 512 512"
   version="1.1"
   id="svg8"
   sodipodi:docname="weapon-warrior-rare.svg"
   inkscape:version="0.92.4 (5da689c313, 2019-01-14)">
  <metadata
     id="metadata14">
    <rdf:RDF>
      <cc:Work
         rdf:about="">
        <dc:format>image/svg+xml</dc:format>
        <dc:type
           rdf:resource="http://purl.org/dc/dcmitype/StillImage" />
      </cc:Work>
    </rdf:RDF>
  </metadata>
  <defs
     id="defs12">
    <linearGradient
       inkscape:collect="always"
       id="linearGradient4563">
      <stop
         style="stop-color:#600119;stop-opacity:1"
         offset="0"
         id="stop4559" />
      <stop
         style="stop-color:#435655;stop-opacity:1"
         offset="1"
         id="stop4561" />
    </linearGradient>
    <linearGradient
       inkscape:collect="always"
       id="linearGradient4547">
      <stop
         style="stop-color:#2c3233;stop-opacity:1;"
         offset="0"
         id="stop4543" />
      <stop
         style="stop-color:#101010;stop-opacity:1"
         offset="1"
         id="stop4545" />
    </linearGradient>
    <linearGradient
       inkscape:collect="always"
       id="linearGradient4510">
      <stop
         style="stop-color:#fda414;stop-opacity:1"
         offset="0"
         id="stop4506" />
      <stop
         style="stop-color:#f16e03;stop-opacity:1"
         offset="1"
         id="stop4508" />
    </linearGradient>
    <linearGradient
       inkscape:collect="always"
       id="linearGradient4502">
      <stop
         style="stop-color:#a79a5f;stop-opacity:1"
         offset="0"
         id="stop4498" />
      <stop
         style="stop-color:#473513;stop-opacity:1"
         offset="1"
         id="stop4500" />
    </linearGradient>
    <linearGradient
       inkscape:collect="always"
       xlink:href="#linearGradient4502"
       id="linearGradient4504"
       x1="68.059998"
       y1="434"
       x2="88.040001"
       y2="456.60001"
       gradientUnits="userSpaceOnUse" />
    <linearGradient
       inkscape:collect="always"
       xlink:href="#linearGradient4510"
       id="linearGradient4512"
       x1="94.959999"
       y1="409.29999"
       x2="115.3"
       y2="431.5"
       gradientUnits="userSpaceOnUse" />
    <linearGradient
       inkscape:collect="always"
       xlink:href="#linearGradient4547"
       id="linearGradient4549"
       x1="360.39999"
       y1="148.7"
       x2="396"
       y2="185"
       gradientUnits="userSpaceOnUse"
       spreadMethod="reflect" />
    <radialGradient
       inkscape:collect="always"
       xlink:href="#linearGradient4563"
       id="radialGradient4565"
       cx="399"
       cy="185.88058"
       fx="399"
       fy="185.88058"
       r="183.05078"
       gradientTransform="matrix(-0.19664408,-0.19218051,1.0645745,-1.0892992,279.57727,460.15959)"
       gradientUnits="userSpaceOnUse" />
  </defs>
  <sodipodi:namedview
     pagecolor="#ffffff"
     bordercolor="#666666"
     borderopacity="1"
     objecttolerance="10"
     gridtolerance="10"
     guidetolerance="10"
     inkscape:pageopacity="0"
     inkscape:pageshadow="2"
     inkscape:window-width="2560"
     inkscape:window-height="1377"
     id="namedview10"
     showgrid="false"
     inkscape:zoom="2"
     inkscape:cx="193.90632"
     inkscape:cy="311.31137"
     inkscape:window-x="1912"
     inkscape:window-y="-8"
     inkscape:window-maximized="1"
     inkscape:current-layer="svg8" />
  <g
     id="g11641"
     transform="matrix(0.87062272,0,0,0.87062272,23.31412,41.982413)">
    <g
       style="fill:none;stroke:#000000;stroke-width:32;stroke-miterlimit:4;stroke-dasharray:none;stroke-opacity:1"
       id="g11629">
      <path
         sodipodi:nodetypes="ccccccccc"
         inkscape:connector-curvature="0"
         id="path11621"
         d="M 488.7,24.74 C 463.1,50.28 437,75.67 410.7,101 353.7,87.62 279.35,113 240,144 c 49.3,-8 98.8,-16.3 120.4,4.7 -85.4,80.4 -173.5,159.8 -261.92,239 l 38.92,44.9 c 23.9,-8.7 56.6,-29.2 92,-57.6 38,-30.6 79.2,-70.3 117.4,-113.7 C 414.5,184.5 472.4,95.16 488.7,24.74 Z"
         style="fill:none;fill-opacity:1;stroke:#000000;stroke-width:32;stroke-miterlimit:4;stroke-dasharray:none;stroke-opacity:1" />
      <path
         id="path11623"
         d="m 94.96,409.3 -13.61,12.5 19.95,22.6 14,-12.9 z"
         style="fill:none;fill-opacity:1;stroke:#000000;stroke-width:32;stroke-miterlimit:4;stroke-dasharray:none;stroke-opacity:1"
         inkscape:connector-curvature="0" />
      <path
         id="path11625"
         d="M 68.06,434 18,480.1 V 494 h 29.39 l 40.65,-37.4 z"
         style="fill:none;fill-opacity:1;stroke:#000000;stroke-width:32;stroke-miterlimit:4;stroke-dasharray:none;stroke-opacity:1"
         inkscape:connector-curvature="0" />
      <path
         sodipodi:nodetypes="ccccccccc"
         inkscape:connector-curvature="0"
         id="path11627"
         d="m 488.69922,24.740234 c -10.21418,10.190235 -20.52459,20.351807 -30.87891,30.5 C 432.1591,115.82407 385.0145,183.93425 331.80078,244.30078 293.60078,287.70078 252.40039,327.4 214.40039,358 c -35.30473,28.32357 -67.91986,48.78354 -91.80273,57.52344 l 14.80273,17.07617 c 23.9,-8.7 56.6,-29.19961 92,-57.59961 38,-30.6 79.20039,-70.29922 117.40039,-113.69922 67.7,-76.8 125.59844,-166.140546 141.89844,-236.560546 z"
         style="fill:none;fill-opacity:1;stroke:#000000;stroke-width:32;stroke-miterlimit:4;stroke-dasharray:none;stroke-opacity:1" />
    </g>
    <g
       id="g11619">
      <path
         style="fill:url(#linearGradient4549);fill-opacity:1"
         d="M 488.7,24.74 C 463.1,50.28 437,75.67 410.7,101 353.7,87.62 281.1,117.5 240,144 c 49.3,-8 98.8,-16.3 120.4,4.7 -85.4,80.4 -173.5,159.8 -261.92,239 l 38.92,44.9 c 23.9,-8.7 56.6,-29.2 92,-57.6 38,-30.6 79.2,-70.3 117.4,-113.7 C 414.5,184.5 472.4,95.16 488.7,24.74 Z"
         id="path4496"
         inkscape:connector-curvature="0" />
      <path
         style="fill:url(#linearGradient4512);fill-opacity:1"
         d="m 94.96,409.3 -13.61,12.5 19.95,22.6 14,-12.9 z"
         id="path4494"
         inkscape:connector-curvature="0" />
      <path
         style="fill:url(#linearGradient4504);fill-opacity:1"
         d="M 68.06,434 18,480.1 V 494 h 29.39 l 40.65,-37.4 z"
         id="path4"
         inkscape:connector-curvature="0" />
      <path
         style="fill:url(#radialGradient4565);fill-opacity:1"
         d="m 488.69922,24.740234 c -10.21418,10.190235 -20.52459,20.351807 -30.87891,30.5 C 432.1591,115.82407 385.0145,183.93425 331.80078,244.30078 293.60078,287.70078 252.40039,327.4 214.40039,358 c -35.30473,28.32357 -67.91986,48.78354 -91.80273,57.52344 l 14.80273,17.07617 c 23.9,-8.7 56.6,-29.19961 92,-57.59961 38,-30.6 79.20039,-70.29922 117.40039,-113.69922 67.7,-76.8 125.59844,-166.140546 141.89844,-236.560546 z"
         id="path4532"
         inkscape:connector-curvature="0"
         sodipodi:nodetypes="ccccccccc" />
    </g>
  </g>
</svg>
