<?xml version="1.0" encoding="UTF-8" standalone="no"?>
<svg
   xmlns:dc="http://purl.org/dc/elements/1.1/"
   xmlns:cc="http://creativecommons.org/ns#"
   xmlns:rdf="http://www.w3.org/1999/02/22-rdf-syntax-ns#"
   xmlns:svg="http://www.w3.org/2000/svg"
   xmlns="http://www.w3.org/2000/svg"
   xmlns:xlink="http://www.w3.org/1999/xlink"
   xmlns:sodipodi="http://sodipodi.sourceforge.net/DTD/sodipodi-0.dtd"
   xmlns:inkscape="http://www.inkscape.org/namespaces/inkscape"
   style="height: 45px; width: 45px;"
   viewBox="0 0 512 512"
   version="1.1"
   id="svg8"
   sodipodi:docname="weapon-warrior-uncommon.svg"
   inkscape:version="0.92.1 r15371">
  <metadata
     id="metadata14">
    <rdf:RDF>
      <cc:Work
         rdf:about="">
        <dc:format>image/svg+xml</dc:format>
        <dc:type
           rdf:resource="http://purl.org/dc/dcmitype/StillImage" />
      </cc:Work>
    </rdf:RDF>
  </metadata>
  <defs
     id="defs12">
    <linearGradient
       inkscape:collect="always"
       id="linearGradient4558">
      <stop
         style="stop-color:#a79a5f;stop-opacity:1"
         offset="0"
         id="stop4554" />
      <stop
         style="stop-color:#473513;stop-opacity:1"
         offset="1"
         id="stop4556" />
    </linearGradient>
    <linearGradient
       inkscape:collect="always"
       id="linearGradient4541">
      <stop
         style="stop-color:#ffffff;stop-opacity:1;"
         offset="0"
         id="stop4537" />
      <stop
         style="stop-color:#a2bcc5;stop-opacity:1"
         offset="1"
         id="stop4539" />
    </linearGradient>
    <linearGradient
       inkscape:collect="always"
       id="linearGradient4533">
      <stop
         style="stop-color:#a2bcc5;stop-opacity:1;"
         offset="0"
         id="stop4529" />
      <stop
         style="stop-color:#69849c;stop-opacity:1"
         offset="1"
         id="stop4531" />
    </linearGradient>
    <linearGradient
       inkscape:collect="always"
       id="linearGradient4525">
      <stop
         style="stop-color:#a2bcc5;stop-opacity:1"
         offset="0"
         id="stop4521" />
      <stop
         style="stop-color:#69849c;stop-opacity:1"
         offset="1"
         id="stop4523" />
    </linearGradient>
    <linearGradient
       inkscape:collect="always"
       id="linearGradient4517">
      <stop
         style="stop-color:#a2bcc5;stop-opacity:1"
         offset="0"
         id="stop4513" />
      <stop
         style="stop-color:#435655;stop-opacity:1"
         offset="1"
         id="stop4515" />
    </linearGradient>
    <linearGradient
       inkscape:collect="always"
       id="linearGradient4501">
      <stop
         style="stop-color:#ffffff;stop-opacity:1;"
         offset="0"
         id="stop4497" />
      <stop
         style="stop-color:#a2bcc5;stop-opacity:1"
         offset="1"
         id="stop4499" />
    </linearGradient>
    <radialGradient
       inkscape:collect="always"
       xlink:href="#linearGradient4501"
       id="radialGradient4503"
       cx="220.90495"
       cy="19.44339"
       fx="220.90495"
       fy="19.44339"
       r="143.12117"
       gradientTransform="matrix(-0.81056455,1.4067937,-0.67879207,-0.39110531,413.16069,-259.05225)"
       gradientUnits="userSpaceOnUse" />
    <linearGradient
       inkscape:collect="always"
       xlink:href="#linearGradient4517"
       id="linearGradient4519"
       x1="163.659"
       y1="309.535"
       x2="202.465"
       y2="348.34201"
       gradientUnits="userSpaceOnUse" />
    <radialGradient
       inkscape:collect="always"
       xlink:href="#linearGradient4525"
       id="radialGradient4527"
       cx="205.56433"
       cy="124.13275"
       fx="205.56433"
       fy="124.13275"
       r="102.14289"
       gradientTransform="matrix(-0.13614587,1.2792243,-0.9565047,-0.10179638,352.28463,-124.91029)"
       gradientUnits="userSpaceOnUse" />
    <radialGradient
       inkscape:collect="always"
       xlink:href="#linearGradient4533"
       id="radialGradient4535"
       cx="346.69806"
       cy="292.10617"
       fx="346.69806"
       fy="292.10617"
       r="98.2515"
       gradientTransform="matrix(0.34349969,0.92120386,-0.97409497,0.36322305,512.14654,-132.85017)"
       gradientUnits="userSpaceOnUse" />
    <radialGradient
       inkscape:collect="always"
       xlink:href="#linearGradient4541"
       id="radialGradient4543"
       cx="437.20773"
       cy="339.15674"
       fx="437.20773"
       fy="339.15674"
       r="112.12221"
       gradientTransform="matrix(0.30525859,-2.0136844,1.2620559,0.19131768,-124.28846,1172.5714)"
       gradientUnits="userSpaceOnUse" />
    <linearGradient
       inkscape:collect="always"
       xlink:href="#linearGradient4558"
       id="linearGradient4560"
       x1="176.38477"
       y1="296.80859"
       x2="215.19141"
       y2="335.61523"
       gradientUnits="userSpaceOnUse" />
  </defs>
  <sodipodi:namedview
     pagecolor="#ffffff"
     bordercolor="#666666"
     borderopacity="1"
     objecttolerance="10"
     gridtolerance="10"
     guidetolerance="10"
     inkscape:pageopacity="0"
     inkscape:pageshadow="2"
     inkscape:window-width="958"
     inkscape:window-height="1008"
     id="namedview10"
     showgrid="false"
     inkscape:zoom="0.35355339"
     inkscape:cx="389.97606"
     inkscape:cy="177.66644"
     inkscape:window-x="953"
     inkscape:window-y="0"
     inkscape:window-maximized="0"
     inkscape:current-layer="svg8" />
  <rect
     fill="#000"
     fill-opacity="1"
     height="512"
     width="512"
     rx="64"
     ry="64"
     id="rect2" />
  <path
     inkscape:connector-curvature="0"
     style="fill:url(#radialGradient4503);fill-opacity:1"
     d="m 292.736,21.215 c -2.334,-0.015 -4.68,0.001 -7.035,0.049 -32.975,0.664 -67.786,7.496 -98.318,21.232 -34.895,15.698 -64.057,40.163 -79.979,74.672 -15,32.512 -18.36,74.591 -2.508,128.285 a 201.433,201.433 0 0 1 13.502,-5.59 c -9.866,-43.961 -5.617,-80.245 8.301,-109.01 15.464,-31.958 42.464,-54.15 72.95,-68.302 30.484,-14.153 64.583,-20.494 95.738,-20.95 1.947,-0.028 3.882,-0.035 5.804,-0.019 22.847,0.186 43.814,3.494 60.614,9.836 7.12,-3.36 13.61,-6.894 18.914,-10.852 -20.447,-11.111 -49.38,-18.154 -81.016,-19.212 a 257.951,257.951 0 0 0 -6.967,-0.14 z"
     id="path4510" />
  <path
     inkscape:connector-curvature="0"
     style="fill:url(#radialGradient4527);fill-opacity:1"
     d="m 301.029,59.588 c -1.78,-0.019 -3.574,-0.015 -5.379,0.012 -28.88,0.421 -60.75,6.43 -88.421,19.277 -27.671,12.847 -51.013,32.303 -64.327,59.818 -11.852,24.495 -16.052,55.773 -7.242,95.895 12.372,-2.904 23.747,-3.494 33.565,-1.195 9.93,2.325 18.916,9.147 21.732,19.312 0.306,1.106 0.52,2.235 0.701,3.373 L 293.861,153.877 c -11.857,-18.99 -15.828,-34.784 -12.218,-48.416 4.005,-15.125 16.44,-24.638 30.048,-31.797 7.436,-3.912 15.487,-7.412 23.547,-10.8 -10.343,-1.974 -21.956,-3.15 -34.209,-3.276 z"
     id="path4508" />
  <path
     style="fill:url(#linearGradient4560);fill-opacity:1"
     d="M 384.08594 127.91406 L 335.57812 137.61523 L 176.38477 296.80859 L 215.19141 335.61523 L 374.38477 176.41992 L 384.08594 127.91406 z M 125.00781 348.18555 L 24 449.19336 L 24 488 L 62.806641 488 L 163.81445 386.99219 L 125.00781 348.18555 z "
     id="path4506" />
  <path
     inkscape:connector-curvature="0"
     style="fill:url(#radialGradient4543);fill-opacity:1"
     d="m 471.434,131.281 c -3.956,5.301 -7.489,11.788 -10.848,18.905 6.876,18.213 10.179,41.335 9.812,66.427 -0.455,31.155 -6.796,65.254 -20.949,95.739 -14.153,30.485 -36.344,57.485 -68.303,72.949 -28.764,13.918 -65.048,18.167 -109.01,8.3 a 201.436,201.436 0 0 1 -5.59,13.503 c 53.695,15.852 95.774,12.492 128.286,-2.508 34.51,-15.922 58.974,-45.084 74.672,-79.979 15.698,-34.894 22.379,-75.376 21.142,-112.32 -1.058,-31.637 -8.1,-60.569 -19.212,-81.016 z"
     id="path4504" />
  <path
     inkscape:connector-curvature="0"
     style="fill:url(#radialGradient4535);fill-opacity:1"
     d="m 449.137,176.761 c -3.39,8.06 -6.89,16.112 -10.801,23.548 -7.159,13.608 -16.672,26.043 -31.797,30.048 -13.632,3.61 -29.425,-0.361 -48.416,-12.218 L 255.92,320.342 c 1.138,0.181 2.267,0.395 3.373,0.701 10.165,2.816 16.987,11.802 19.312,21.732 2.3,9.818 1.709,21.193 -1.195,33.565 40.122,8.81 71.4,4.61 95.895,-7.242 27.515,-13.314 46.971,-36.656 59.818,-64.327 12.847,-27.67 18.856,-59.542 19.277,-88.421 0.208,-14.228 -1.004,-27.742 -3.263,-39.588 z"
     id="path4502" />
  <path
     inkscape:connector-curvature="0"
     style="fill:url(#linearGradient4519);fill-opacity:1"
     d="m 163.659,309.535 -25.925,25.922 38.809,38.809 25.922,-25.924 z"
     id="path4494" />
</svg>
