<?xml version="1.0" encoding="UTF-8" standalone="no"?>
<svg
   xmlns:dc="http://purl.org/dc/elements/1.1/"
   xmlns:cc="http://creativecommons.org/ns#"
   xmlns:rdf="http://www.w3.org/1999/02/22-rdf-syntax-ns#"
   xmlns:svg="http://www.w3.org/2000/svg"
   xmlns="http://www.w3.org/2000/svg"
   xmlns:xlink="http://www.w3.org/1999/xlink"
   xmlns:sodipodi="http://sodipodi.sourceforge.net/DTD/sodipodi-0.dtd"
   xmlns:inkscape="http://www.inkscape.org/namespaces/inkscape"
   style="height: 45px; width: 45px;"
   viewBox="0 0 512 512"
   version="1.1"
   id="svg8"
   sodipodi:docname="weapon-cleric-uncommon.svg"
   inkscape:version="0.92.4 (5da689c313, 2019-01-14)">
  <metadata
     id="metadata14">
    <rdf:RDF>
      <cc:Work
         rdf:about="">
        <dc:format>image/svg+xml</dc:format>
        <dc:type
           rdf:resource="http://purl.org/dc/dcmitype/StillImage" />
      </cc:Work>
    </rdf:RDF>
  </metadata>
  <defs
     id="defs12">
    <linearGradient
       inkscape:collect="always"
       id="linearGradient4547">
      <stop
         style="stop-color:#ffe22c;stop-opacity:1"
         offset="0"
         id="stop4543" />
      <stop
         style="stop-color:#ff8d3e;stop-opacity:1"
         offset="1"
         id="stop4545" />
    </linearGradient>
    <linearGradient
       inkscape:collect="always"
       id="linearGradient4539">
      <stop
         style="stop-color:#ffe22c;stop-opacity:1"
         offset="0"
         id="stop4535" />
      <stop
         style="stop-color:#ff8d3e;stop-opacity:1"
         offset="1"
         id="stop4537" />
    </linearGradient>
    <linearGradient
       inkscape:collect="always"
       id="linearGradient4531">
      <stop
         style="stop-color:#e0a186;stop-opacity:1"
         offset="0"
         id="stop4527" />
      <stop
         style="stop-color:#6d4734;stop-opacity:1"
         offset="1"
         id="stop4529" />
    </linearGradient>
    <linearGradient
       inkscape:collect="always"
       id="linearGradient4514">
      <stop
         style="stop-color:#ffffff;stop-opacity:1"
         offset="0"
         id="stop4510" />
      <stop
         style="stop-color:#69849c;stop-opacity:1"
         offset="1"
         id="stop4512" />
    </linearGradient>
    <radialGradient
       inkscape:collect="always"
       xlink:href="#linearGradient4514"
       id="radialGradient4516"
       cx="410.03391"
       cy="78.112427"
       fx="410.03391"
       fy="78.112427"
       r="86.362667"
       gradientTransform="matrix(0.38937092,1.1555527,-0.94789366,0.31939767,324.4209,-420.66302)"
       gradientUnits="userSpaceOnUse" />
    <linearGradient
       inkscape:collect="always"
       xlink:href="#linearGradient4531"
       id="linearGradient4533"
       x1="100.69922"
       y1="359.80078"
       x2="152.19922"
       y2="411.30078"
       gradientUnits="userSpaceOnUse" />
    <linearGradient
       inkscape:collect="always"
       xlink:href="#linearGradient4539"
       id="linearGradient4541"
       x1="87.160004"
       y1="371.79999"
       x2="140.2"
       y2="424.89999"
       gradientUnits="userSpaceOnUse" />
    <radialGradient
       inkscape:collect="always"
       xlink:href="#linearGradient4547"
       id="radialGradient4549"
       cx="327.59323"
       cy="121.51987"
       fx="327.59323"
       fy="121.51987"
       r="87.45"
       gradientTransform="matrix(0.45895467,1.4264812,-0.9525406,0.3064712,292.99539,-383.0564)"
       gradientUnits="userSpaceOnUse" />
    <linearGradient
       inkscape:collect="always"
       xlink:href="#linearGradient4531"
       id="linearGradient3032"
       gradientUnits="userSpaceOnUse"
       x1="100.69922"
       y1="359.80078"
       x2="152.19922"
       y2="411.30078" />
    <radialGradient
       inkscape:collect="always"
       xlink:href="#linearGradient4514"
       id="radialGradient3034"
       gradientUnits="userSpaceOnUse"
       gradientTransform="matrix(0.38937092,1.1555527,-0.94789366,0.31939767,324.4209,-420.66302)"
       cx="410.03391"
       cy="78.112427"
       fx="410.03391"
       fy="78.112427"
       r="86.362667" />
    <radialGradient
       inkscape:collect="always"
       xlink:href="#linearGradient4547"
       id="radialGradient3036"
       gradientUnits="userSpaceOnUse"
       gradientTransform="matrix(0.45895467,1.4264812,-0.9525406,0.3064712,292.99539,-383.0564)"
       cx="327.59323"
       cy="121.51987"
       fx="327.59323"
       fy="121.51987"
       r="87.45" />
    <linearGradient
       inkscape:collect="always"
       xlink:href="#linearGradient4539"
       id="linearGradient3038"
       gradientUnits="userSpaceOnUse"
       x1="87.160004"
       y1="371.79999"
       x2="140.2"
       y2="424.89999" />
  </defs>
  <sodipodi:namedview
     pagecolor="#ffffff"
     bordercolor="#666666"
     borderopacity="1"
     objecttolerance="10"
     gridtolerance="10"
     guidetolerance="10"
     inkscape:pageopacity="0"
     inkscape:pageshadow="2"
     inkscape:window-width="2560"
     inkscape:window-height="1377"
     id="namedview10"
     showgrid="false"
     inkscape:zoom="2"
     inkscape:cx="355.55121"
     inkscape:cy="298.42665"
     inkscape:window-x="1912"
     inkscape:window-y="-8"
     inkscape:window-maximized="1"
     inkscape:current-layer="svg8" />
  <path
     inkscape:connector-curvature="0"
     id="path2990"
     d="m 475.69922,23.5 -16.5,16.449219 c 2.3,1.93 4.50117,3.961328 6.70117,6.111328 2.1,2.15 4.19961,4.370156 6.09961,6.660156 L 488.5,36.240234 Z M 254,224.59961 100.69922,359.80078 l 51.5,51.5 L 287.40039,258 Z"
     style="fill:url(#linearGradient3032);fill-opacity:1;stroke:#000000;stroke-width:32;stroke-miterlimit:4;stroke-dasharray:none;stroke-opacity:1;stroke-linejoin:bevel" />
  <path
     inkscape:connector-curvature="0"
     id="path2992"
     d="m 391.7,33.23 c -19.5,0 -39,6.51 -55,19.54 L 318.8,34.83 306,47.55 464.4,206 l 12.8,-12.8 -18,-18 C 487.1,140.9 485.1,90.74 453.2,58.79 436.1,41.75 413.9,33.23 391.7,33.23 Z"
     style="fill:url(#radialGradient3034);fill-opacity:1;stroke:#000000;stroke-width:32;stroke-miterlimit:4;stroke-dasharray:none;stroke-opacity:1;stroke-linejoin:bevel" />
  <path
     inkscape:connector-curvature="0"
     id="path2998"
     d="M 314.9,79.09 C 301,104.8 301.1,135.9 315,161.6 l -36.6,36.6 -7.7,-7.8 -12.8,12.8 50.9,50.9 12.8,-12.8 -7.8,-7.8 36.6,-36.6 c 25.7,13.9 56.7,13.9 82.4,0.1 z"
     style="fill:url(#radialGradient3036);fill-opacity:1;stroke:#000000;stroke-width:32;stroke-miterlimit:4;stroke-dasharray:none;stroke-opacity:1;stroke-linejoin:bevel" />
  <path
     inkscape:connector-curvature="0"
     id="path3002"
     d="M 87.16,371.8 69.89,387 c -3.53,3.6 -5.82,9.8 -5.82,16.3 0,5.2 1.47,10.2 3.85,13.7 -3.23,-1.3 -6.55,-2.2 -9.87,-2.7 -9.4,-1.3 -19.3,0.9 -26.3,7.9 -7,7 -9.26,16.9 -7.92,26.3 1.34,9.3 6.01,18.5 13.58,26.1 7.56,7.5 16.75,12.2 26.02,13.5 9.4,1.4 19.3,-0.9 26.3,-7.9 7,-7 9.26,-16.9 7.92,-26.3 -0.48,-3.3 -1.4,-6.6 -2.72,-9.8 3.61,2.4 8.67,3.9 13.77,3.9 6.5,0 12.7,-2.3 16.3,-5.8 l 15.2,-17.3 z"
     style="fill:url(#linearGradient3038);fill-opacity:1;stroke:#000000;stroke-width:32;stroke-miterlimit:4;stroke-dasharray:none;stroke-opacity:1" />
  <g
     id="g2988">
    <path
       id="path4508"
       d="M 475.69922 23.5 L 459.19922 39.949219 C 461.49922 41.879219 463.70039 43.910547 465.90039 46.060547 C 468.00039 48.210547 470.1 50.430703 472 52.720703 L 488.5 36.240234 L 475.69922 23.5 z M 254 224.59961 L 100.69922 359.80078 L 152.19922 411.30078 L 287.40039 258 L 254 224.59961 z "
       style="fill:url(#linearGradient4533);fill-opacity:1" />
    <path
       id="path4506"
       d="m 391.7,33.23 c -19.5,0 -39,6.51 -55,19.54 L 318.8,34.83 306,47.55 464.4,206 l 12.8,-12.8 -18,-18 C 487.1,140.9 485.1,90.74 453.2,58.79 436.1,41.75 413.9,33.23 391.7,33.23 Z"
       style="fill:url(#radialGradient4516);fill-opacity:1" />
    <path
       id="path4504"
       d="m 391.8,55.74 a 8,8 0 0 1 5.5,2.34 8,8 0 0 1 0,11.32 8,8 0 0 1 -11.3,0 8,8 0 0 1 0,-11.32 8,8 0 0 1 5.8,-2.34 z"
       style="fill:#69849c;fill-opacity:1" />
    <path
       id="path4502"
       d="m 435.7,68.33 a 8,8 0 0 1 5.6,2.34 8,8 0 0 1 0,11.31 8,8 0 0 1 -11.3,0 8,8 0 0 1 0,-11.31 8,8 0 0 1 5.7,-2.34 z"
       style="fill:#69849c;fill-opacity:1" />
    <path
       id="path4500"
       d="M 314.9,79.09 C 301,104.8 301.1,135.9 315,161.6 l -36.6,36.6 -7.7,-7.8 -12.8,12.8 50.9,50.9 12.8,-12.8 -7.8,-7.8 36.6,-36.6 c 25.7,13.9 56.7,13.9 82.4,0.1 z"
       style="fill:url(#radialGradient4549);fill-opacity:1" />
    <path
       id="path4498"
       d="m 448.2,112.3 a 8,8 0 0 1 0.1,0 8,8 0 0 1 5.6,2.4 8,8 0 0 1 0,11.3 8,8 0 0 1 -11.4,0 8,8 0 0 1 0,-11.3 8,8 0 0 1 5.7,-2.4 z"
       style="fill:#69849c;fill-opacity:1" />
    <path
       id="path4494"
       d="M 87.16,371.8 69.89,387 c -3.53,3.6 -5.82,9.8 -5.82,16.3 0,5.2 1.47,10.2 3.85,13.7 -3.23,-1.3 -6.55,-2.2 -9.87,-2.7 -9.4,-1.3 -19.3,0.9 -26.3,7.9 -7,7 -9.26,16.9 -7.92,26.3 1.34,9.3 6.01,18.5 13.58,26.1 7.56,7.5 16.75,12.2 26.02,13.5 9.4,1.4 19.3,-0.9 26.3,-7.9 7,-7 9.26,-16.9 7.92,-26.3 -0.48,-3.3 -1.4,-6.6 -2.72,-9.8 3.61,2.4 8.67,3.9 13.77,3.9 6.5,0 12.7,-2.3 16.3,-5.8 l 15.2,-17.3 z"
       style="fill:url(#linearGradient4541);fill-opacity:1" />
    <path
       id="path4"
       d="m 51.98,431.9 c 1.08,0 2.26,0 3.53,0.2 4.95,0.8 10.89,3.6 15.84,8.5 4.95,5 7.77,10.9 8.48,15.9 0.71,5.1 -0.42,8.6 -2.83,11 -2.4,2.4 -5.94,3.5 -11.03,2.8 -4.95,-0.7 -10.89,-3.5 -15.84,-8.5 -4.95,-4.9 -7.77,-10.8 -8.48,-15.8 -0.71,-5.1 0.42,-8.6 2.83,-11 1.8,-1.8 4.24,-2.9 7.5,-3.1 z"
       style="fill:#101010;fill-opacity:1" />
  </g>
</svg>
