<?xml version="1.0" encoding="UTF-8" standalone="no"?>
<svg
   xmlns:dc="http://purl.org/dc/elements/1.1/"
   xmlns:cc="http://creativecommons.org/ns#"
   xmlns:rdf="http://www.w3.org/1999/02/22-rdf-syntax-ns#"
   xmlns:svg="http://www.w3.org/2000/svg"
   xmlns="http://www.w3.org/2000/svg"
   xmlns:xlink="http://www.w3.org/1999/xlink"
   xmlns:sodipodi="http://sodipodi.sourceforge.net/DTD/sodipodi-0.dtd"
   xmlns:inkscape="http://www.inkscape.org/namespaces/inkscape"
   style="height: 45px; width: 45px;"
   viewBox="0 0 512 512"
   version="1.1"
   id="svg8"
   sodipodi:docname="weapon-ranger-uncommon.svg"
   inkscape:version="0.92.1 r15371">
  <metadata
     id="metadata14">
    <rdf:RDF>
      <cc:Work
         rdf:about="">
        <dc:format>image/svg+xml</dc:format>
        <dc:type
           rdf:resource="http://purl.org/dc/dcmitype/StillImage" />
      </cc:Work>
    </rdf:RDF>
  </metadata>
  <defs
     id="defs12">
    <linearGradient
       inkscape:collect="always"
       id="linearGradient4542">
      <stop
         style="stop-color:#ffffff;stop-opacity:1"
         offset="0"
         id="stop4538" />
      <stop
         style="stop-color:#a2bcc5;stop-opacity:1"
         offset="1"
         id="stop4540" />
    </linearGradient>
    <linearGradient
       inkscape:collect="always"
       id="linearGradient4520">
      <stop
         style="stop-color:#e0a186;stop-opacity:1;"
         offset="0"
         id="stop4516" />
      <stop
         style="stop-color:#88512b;stop-opacity:1"
         offset="1"
         id="stop4518" />
    </linearGradient>
    <linearGradient
       inkscape:collect="always"
       id="linearGradient4504">
      <stop
         style="stop-color:#e0a186;stop-opacity:1;"
         offset="0"
         id="stop4500" />
      <stop
         style="stop-color:#88512b;stop-opacity:1"
         offset="1"
         id="stop4502" />
    </linearGradient>
    <linearGradient
       inkscape:collect="always"
       id="linearGradient4496">
      <stop
         style="stop-color:#fffcdb;stop-opacity:1;"
         offset="0"
         id="stop4492" />
      <stop
         style="stop-color:#e0a186;stop-opacity:1"
         offset="1"
         id="stop4494" />
    </linearGradient>
    <linearGradient
       inkscape:collect="always"
       xlink:href="#linearGradient4496"
       id="linearGradient4498"
       x1="358.72266"
       y1="394.0293"
       x2="401.38281"
       y2="349.38477"
       gradientUnits="userSpaceOnUse" />
    <linearGradient
       inkscape:collect="always"
       xlink:href="#linearGradient4504"
       id="linearGradient4506"
       x1="84.145706"
       y1="420.07611"
       x2="103.94469"
       y2="454.72437"
       gradientUnits="userSpaceOnUse" />
    <linearGradient
       inkscape:collect="always"
       xlink:href="#linearGradient4520"
       id="linearGradient4522"
       x1="416.4859"
       y1="80.664864"
       x2="452.54834"
       y2="99.756744"
       gradientUnits="userSpaceOnUse" />
    <radialGradient
       inkscape:collect="always"
       xlink:href="#linearGradient4542"
       id="radialGradient4544"
       cx="395"
       cy="437.76907"
       fx="395"
       fy="437.76907"
       r="89.4"
       gradientTransform="matrix(0.90604029,0.13422833,-0.14748646,0.99553256,101.67909,-50.83357)"
       gradientUnits="userSpaceOnUse" />
  </defs>
  <sodipodi:namedview
     pagecolor="#ffffff"
     bordercolor="#666666"
     borderopacity="1"
     objecttolerance="10"
     gridtolerance="10"
     guidetolerance="10"
     inkscape:pageopacity="0"
     inkscape:pageshadow="2"
     inkscape:window-width="1920"
     inkscape:window-height="1057"
     id="namedview10"
     showgrid="false"
     inkscape:zoom="1.4142136"
     inkscape:cx="220.93179"
     inkscape:cy="239.22936"
     inkscape:window-x="1912"
     inkscape:window-y="-8"
     inkscape:window-maximized="1"
     inkscape:current-layer="svg8" />
  <rect
     fill="#000"
     fill-opacity="1"
     height="512"
     width="512"
     rx="64"
     ry="64"
     id="rect2" />
  <path
     style="fill:url(#linearGradient4498);fill-opacity:1"
     d="M 158.9082,166.88867 358.72266,394.0293 c 15.618,-13.627 29.60515,-28.40953 42.66015,-44.64453 L 171.50586,155.60547 Z"
     id="path4524"
     inkscape:connector-curvature="0"
     sodipodi:nodetypes="ccccc" />
  <path
     style="fill:url(#linearGradient4522);fill-opacity:1"
     d="m 498.66992,21.869141 c -18.54,4.97 -33.68951,13.015515 -46.60351,23.603515 l -18.82618,18.927735 c -29.99,36.359999 -46.84062,89.070019 -71.39062,142.416019 l 36.55859,36.56054 c 29.22,-70.24 45.01372,-148.090809 100.26172,-221.507809 z"
     id="path4522" />
  <path
     style="fill:url(#linearGradient4506);fill-opacity:1"
     d="m 210.21875,360.72461 c -53.122,25.232 -105.77388,42.4887 -142.546875,71.3457 l -19.324219,18.03711 c -11.712,13.235 -20.715265,28.85006 -25.822265,47.91406 74.198,-55.834 152.879469,-71.60181 223.605469,-101.38281 z"
     id="path4500" />
  <path
     style="fill:#fffcdb;fill-opacity:1"
     d="m 102.463,54.486 50.355,38.916 v 54.795 H 99.236 l -0.607,-0.146 -38.357,-50.988 49,7.89 -6.81,-50.466 z"
     id="path4498" />
  <path
     style="fill:#67541f;fill-opacity:1"
     d="m 350.566,221.966 c -8.162,13.275 -17.044,25.835 -26.586,37.727 l 30.727,25.903 c 11.16,-8.75 22.568,-17.176 34.06,-25.432 l -38.2,-38.2 z"
     id="path4496" />
  <path
     style="fill:url(#radialGradient4544);fill-opacity:1"
     d="M 450.572,311.706 C 414.826,368.52 375.184,412.43 315.88,447.67 c 59.143,20.683 118.488,37.302 178.8,43.98 -8.706,-60.66 -23.977,-120.562 -44.108,-179.94 z"
     id="path4494" />
  <path
     style="fill:#67541f;fill-opacity:1"
     d="m 266.492,317.48 c -13.42,10.98 -27.58,21.186 -42.414,30.674 l 37.47,37.47 c 8.748,-14.57 18.62,-27.954 29.327,-40.43 z"
     id="path4" />
  <path
     id="path4502"
     d="M 59.475,127.392 48.348,450.107 67.671,432.071 77.345,151.531 Z"
     style="fill:#ffffff;fill-opacity:1"
     inkscape:connector-curvature="0"
     sodipodi:nodetypes="ccccc" />
  <path
     id="path4504"
     d="m 159.646,75.061 273.594,-10.66 18.826,-18.928 -0.02,-0.506 -315.437,12.29 z"
     style="fill:#ffffff;fill-opacity:1"
     inkscape:connector-curvature="0"
     sodipodi:nodetypes="cccccc" />
  <path
     style="fill:#fffcdb;fill-opacity:1"
     d="m 17.966797,71.322266 41.507812,56.070314 17.871094,24.13867 8.058594,10.88867 2.201172,4.46875 83.789211,-0.16159 -84.009914,-84.230986 z"
     id="path4506"
     inkscape:connector-curvature="0"
     sodipodi:nodetypes="cccccccc" />
  <path
     sodipodi:nodetypes="ccccccccc"
     inkscape:connector-curvature="0"
     style="fill:#b24e2c;fill-opacity:1"
     d="m 77.85,11.848 9.535,70.648 84.00968,84.23108 L 171.506,155.605 V 84.226 l -11.86,-9.165 -23.037,-17.804 -58.76,-45.41 z"
     id="path4525" />
</svg>
