<?xml version="1.0" encoding="UTF-8" standalone="no"?>
<svg
   xmlns:dc="http://purl.org/dc/elements/1.1/"
   xmlns:cc="http://creativecommons.org/ns#"
   xmlns:rdf="http://www.w3.org/1999/02/22-rdf-syntax-ns#"
   xmlns:svg="http://www.w3.org/2000/svg"
   xmlns="http://www.w3.org/2000/svg"
   xmlns:xlink="http://www.w3.org/1999/xlink"
   xmlns:sodipodi="http://sodipodi.sourceforge.net/DTD/sodipodi-0.dtd"
   xmlns:inkscape="http://www.inkscape.org/namespaces/inkscape"
   style="height: 45px; width: 45px;"
   viewBox="0 0 512 512"
   version="1.1"
   id="svg8"
   sodipodi:docname="wood-stick.svg"
   inkscape:version="0.92.1 r15371">
  <metadata
     id="metadata14">
    <rdf:RDF>
      <cc:Work
         rdf:about="">
        <dc:format>image/svg+xml</dc:format>
        <dc:type
           rdf:resource="http://purl.org/dc/dcmitype/StillImage" />
      </cc:Work>
    </rdf:RDF>
  </metadata>
  <defs
     id="defs12">
    <linearGradient
       inkscape:collect="always"
       id="linearGradient4569">
      <stop
         style="stop-color:#fffcdb;stop-opacity:1"
         offset="0"
         id="stop4565" />
      <stop
         style="stop-color:#e0a186;stop-opacity:1"
         offset="1"
         id="stop4567" />
    </linearGradient>
    <linearGradient
       inkscape:collect="always"
       id="linearGradient4561">
      <stop
         style="stop-color:#fffcdb;stop-opacity:1"
         offset="0"
         id="stop4557" />
      <stop
         style="stop-color:#e0a186;stop-opacity:1"
         offset="1"
         id="stop4559" />
    </linearGradient>
    <radialGradient
       inkscape:collect="always"
       xlink:href="#linearGradient4561"
       id="radialGradient4563"
       cx="33.627117"
       cy="432.0784"
       fx="33.627117"
       fy="432.0784"
       r="29.658441"
       gradientTransform="matrix(1.0972382,0.73149188,-0.50874805,0.76312233,216.5492,78.486929)"
       gradientUnits="userSpaceOnUse" />
    <linearGradient
       inkscape:collect="always"
       xlink:href="#linearGradient4569"
       id="linearGradient4571"
       x1="55.301544"
       y1="395.97086"
       x2="94.310318"
       y2="443.4613"
       gradientUnits="userSpaceOnUse" />
  </defs>
  <sodipodi:namedview
     pagecolor="#ffffff"
     bordercolor="#666666"
     borderopacity="1"
     objecttolerance="10"
     gridtolerance="10"
     guidetolerance="10"
     inkscape:pageopacity="0"
     inkscape:pageshadow="2"
     inkscape:window-width="958"
     inkscape:window-height="1008"
     id="namedview10"
     showgrid="false"
     inkscape:zoom="0.088388348"
     inkscape:cx="833.76932"
     inkscape:cy="1758.5536"
     inkscape:window-x="953"
     inkscape:window-y="0"
     inkscape:window-maximized="0"
     inkscape:current-layer="svg8" />
  <rect
     fill="#000"
     fill-opacity="1"
     height="512"
     width="512"
     rx="64"
     ry="64"
     id="rect2" />
  <path
     style="fill:url(#linearGradient4571);fill-opacity:1;stroke-width:1"
     d="M 485.72035,43.845701 C 445.07737,84.411371 373.95301,156.41979 323.14928,192.31373 l -18.66528,13.25315 3.01776,-22.00014 c -7.31834,-5.04605 -15.00625,-10.12379 -22.48117,-15.65614 l -7.81728,56.65159 -2.6489,2.43104 C 211.04974,286.08018 130.4248,340.63896 55.301543,395.97085 c 10.724005,2.65063 20.68673,7.61927 27.854474,15.79204 7.731002,8.61455 10.933415,20.21234 11.154301,31.6984 C 223.63894,329.1529 388.30972,185.79631 495.66021,65.082231 c 2.42974,-9.387646 0.99313,-12.036552 -1.43662,-14.797624 -1.5462,-1.910661 -4.85862,-4.009162 -8.50324,-6.438906 z"
     id="path4496"
     inkscape:connector-curvature="0"
     sodipodi:nodetypes="ccccccccccccc" />
  <path
     inkscape:connector-curvature="0"
     style="fill:url(#radialGradient4563);fill-opacity:1;stroke-width:1"
     d="m 37.178641,413.7513 c -9.321379,0.22088 -17.273268,3.31328 -20.829529,7.62056 -1.490979,1.87752 -1.910662,5.52214 0.110443,11.37561 2.021105,5.96392 6.394644,12.81138 10.282233,17.00821 5.27917,5.74303 13.728052,12.25916 21.613674,15.68289 7.874578,3.31329 13.915804,3.53417 17.770261,0.99398 4.053254,-2.65062 7.708914,-10.16074 8.216951,-18.99617 0.508037,-8.94588 -2.330345,-18.22308 -6.05227,-22.41991 C 63.419872,419.49433 52.276185,414.63484 41.253984,413.86174 39.873448,413.7513 38.515,413.7513 37.189686,413.7513 Z"
     id="path4" />
  <g
     id="g4552"
     transform="matrix(0.3824496,0.03865005,-0.03865005,0.3824496,82.146692,540.47543)"
     style="fill:#d291ff;stroke-width:2.60147285">
    <path
       id="path4541"
       d="m 326.90838,-706.06199 -18.686,0.313 0.375,22.968 -22.97,-0.374 -0.313,18.688 23.594,0.406 0.408,23.594 18.687,-0.313 -0.375,-22.968 22.97,0.375 0.31,-18.687 -23.592,-0.406 z"
       style="fill:#d291ff;fill-opacity:1;stroke-width:2.60147285"
       inkscape:connector-curvature="0" />
    <path
       id="path4539"
       d="m 257.81638,-644.56199 -18.22,4.125 7.188,31.906 1.313,5.876 5.874,1.22 31.22,6.593 3.873,-18.282 -13.593,-2.875 12.53,-12.5 -13.218,-13.22 -13.312,13.313 -3.656,-16.156 z"
       style="fill:#d291ff;fill-opacity:1;stroke-width:2.60147285"
       inkscape:connector-curvature="0" />
    <path
       id="path4537"
       d="m 208.09638,-606.31199 -2.25,28.156 -27.468,1.813 1.25,18.655 30.844,-2.03 17.937,17.936 13.22,-13.217 -17.5,-17.5 2.594,-32.313 -18.625,-1.5 z"
       style="fill:#d291ff;fill-opacity:1;stroke-width:2.60147285"
       inkscape:connector-curvature="0" />
    <path
       id="path4535"
       d="m 164.65938,-550.68699 -18.28,3.875 7.22,34.125 -34.845,-6.875 -3.626,18.344 48.72,9.594 13.874,2.718 -2.938,-13.844 z"
       style="fill:#d291ff;fill-opacity:1;stroke-width:2.60147285"
       inkscape:connector-curvature="0" />
    <path
       id="path4533"
       d="m 107.65938,-474.59299 -16.779996,16.78 -27.689,-6.249 -4.093,18.25 26.06,5.875 5.345,25.344 18.312996,-3.845 -5.375,-25.53 17.437,-17.408 -13.22,-13.218 z"
       style="fill:#d291ff;fill-opacity:1;stroke-width:2.60147285"
       inkscape:connector-curvature="0" />
    <path
       id="path4531"
       d="m 50.504384,-429.65699 -18.688,0.313 0.376,22.967 -22.938,-0.375 -0.314,18.69 23.563,0.375 0.406,23.594 18.69,-0.314 z"
       style="fill:#d291ff;fill-opacity:1;stroke-width:2.60147285"
       inkscape:connector-curvature="0" />
    <path
       id="path4508"
       d="m -3.339616,-363.62699 -11.5,11.533 v 13.032 h 13.407 l 11.313,-11.344 -13.22,-13.22 z"
       style="fill:#d291ff;fill-opacity:1;stroke-width:2.60147285"
       inkscape:connector-curvature="0" />
  </g>
  <g
     style="fill:#d291ff;stroke-width:3.18874741"
     transform="matrix(0.31201352,0.03153184,-0.03153184,0.31201352,234.70133,389.60423)"
     id="g4587">
    <path
       inkscape:connector-curvature="0"
       style="fill:#d291ff;fill-opacity:1;stroke-width:3.18874741"
       d="m 326.90838,-706.06199 -18.686,0.313 0.375,22.968 -22.97,-0.374 -0.313,18.688 23.594,0.406 0.408,23.594 18.687,-0.313 -0.375,-22.968 22.97,0.375 0.31,-18.687 -23.592,-0.406 z"
       id="path4573" />
    <path
       inkscape:connector-curvature="0"
       style="fill:#d291ff;fill-opacity:1;stroke-width:3.18874741"
       d="m 257.81638,-644.56199 -18.22,4.125 7.188,31.906 1.313,5.876 5.874,1.22 31.22,6.593 3.873,-18.282 -13.593,-2.875 12.53,-12.5 -13.218,-13.22 -13.312,13.313 -3.656,-16.156 z"
       id="path4575" />
    <path
       inkscape:connector-curvature="0"
       style="fill:#d291ff;fill-opacity:1;stroke-width:3.18874741"
       d="m 208.09638,-606.31199 -2.25,28.156 -27.468,1.813 1.25,18.655 30.844,-2.03 17.937,17.936 13.22,-13.217 -17.5,-17.5 2.594,-32.313 -18.625,-1.5 z"
       id="path4577" />
    <path
       inkscape:connector-curvature="0"
       style="fill:#d291ff;fill-opacity:1;stroke-width:3.18874741"
       d="m 164.65938,-550.68699 -18.28,3.875 7.22,34.125 -34.845,-6.875 -3.626,18.344 48.72,9.594 13.874,2.718 -2.938,-13.844 z"
       id="path4579" />
    <path
       inkscape:connector-curvature="0"
       style="fill:#d291ff;fill-opacity:1;stroke-width:3.18874741"
       d="m 107.65938,-474.59299 -16.779996,16.78 -27.689,-6.249 -4.093,18.25 26.06,5.875 5.345,25.344 18.312996,-3.845 -5.375,-25.53 17.437,-17.408 -13.22,-13.218 z"
       id="path4581" />
    <path
       inkscape:connector-curvature="0"
       style="fill:#d291ff;fill-opacity:1;stroke-width:3.18874741"
       d="m 50.504384,-429.65699 -18.688,0.313 0.376,22.967 -22.938,-0.375 -0.314,18.69 23.563,0.375 0.406,23.594 18.69,-0.314 z"
       id="path4583" />
    <path
       inkscape:connector-curvature="0"
       style="fill:#d291ff;fill-opacity:1;stroke-width:3.18874741"
       d="m -3.339616,-363.62699 -11.5,11.533 v 13.032 h 13.407 l 11.313,-11.344 -13.22,-13.22 z"
       id="path4585" />
  </g>
</svg>
